<?xml version="1.0" encoding="UTF-8"?>
<svg id="b" data-name="Layer 2" xmlns="http://www.w3.org/2000/svg" width="137.351" height="213.892" viewBox="0 0 137.351 213.892">
  <g id="c" data-name="Layer 1">
    <g>
      <circle cx="35.116" cy="178.512" r="6.113" fill="#5800ff"/>
      <path d="M137.351,213.892H0V0h137.351v213.892ZM1.371,212.521h134.609V1.371H1.371v211.15Z" fill="#5800ff"/>
      <polygon points="102.236 77.666 68.676 44.106 35.116 77.666 26.39 68.94 64.313 31.017 73.039 31.017 110.962 68.94 102.236 77.666" fill="#5800ff"/>
      <polygon points="102.236 112.97 68.676 79.41 35.116 112.97 26.39 104.244 64.313 66.321 73.039 66.321 110.962 104.244 102.236 112.97" fill="#5800ff"/>
      <polygon points="108.406 184.682 68.676 184.682 62.505 178.512 62.505 100.776 74.846 100.776 74.846 172.342 108.406 172.342 108.406 184.682" fill="#5800ff"/>
    </g>
  </g>
</svg>