<?xml version="1.0" encoding="UTF-8"?>
<svg id="b" data-name="Layer 2" xmlns="http://www.w3.org/2000/svg" width="137.351" height="213.892" viewBox="0 0 137.351 213.892">
  <g id="c" data-name="Layer 1">
    <g>
      <path d="M0,0v213.892h137.351V0H0ZM135.98,212.521H1.371V1.371h134.609v211.15Z" fill="#00b6e0"/>
      <path d="M62.505,146.466v38.178h12.34v-38.178c8.309-1.283,15.974-5.147,22.032-11.205l4.363-4.363-8.726-8.726-4.363,4.363c-3.715,3.715-8.306,6.231-13.305,7.37v-53.673c4.879,1.114,9.513,3.56,13.306,7.353l4.363,4.363,8.726-8.726-4.363-4.363c-6.204-6.204-13.961-9.925-22.031-11.178V29.171h-12.34v38.509c-8.07,1.254-15.827,4.974-22.031,11.178-7.533,7.533-11.681,17.549-11.681,28.202s4.149,20.669,11.681,28.201c6.058,6.057,13.722,9.921,22.031,11.205ZM49.2,87.585c3.793-3.792,8.426-6.239,13.305-7.353v53.672c-4.999-1.139-9.591-3.654-13.305-7.37-5.202-5.201-8.067-12.118-8.067-19.475s2.865-14.273,8.067-19.476Z" fill="#00b6e0"/>
      <circle cx="102.388" cy="106.87" r="6.113" fill="#00b6e0"/>
    </g>
  </g>
</svg>