<?xml version="1.0" encoding="UTF-8"?>
<svg id="b" data-name="Layer 2" xmlns="http://www.w3.org/2000/svg" width="137.351" height="213.892" viewBox="0 0 137.351 213.892">
  <g id="c" data-name="Layer 1">
    <g>
      <path d="M0,0v213.892h137.351V0H0ZM135.98,212.52H1.371V1.371h134.608v211.149Z" fill="#ff6700"/>
      <path d="M62.505,108.46v23.186c-11.845,2.796-20.69,13.45-20.69,26.137,0,14.811,12.049,26.86,26.86,26.86s26.86-12.05,26.86-26.86c0-12.687-8.845-23.341-20.69-26.137v-23.186c8.309-1.283,15.974-5.147,22.031-11.204l4.363-4.363-8.726-8.726-4.363,4.363c-5.202,5.202-12.119,8.067-19.475,8.067s-14.273-2.865-19.475-8.067c-10.739-10.739-10.739-28.212,0-38.951,5.202-5.202,12.119-8.067,19.475-8.067s14.273,2.865,19.475,8.067l4.363,4.363,8.726-8.726-4.363-4.363c-7.533-7.533-17.548-11.682-28.202-11.682s-20.669,4.149-28.202,11.682c-15.55,15.55-15.55,40.853,0,56.403,6.058,6.058,13.722,9.921,22.031,11.204ZM83.195,157.784c0,8.006-6.514,14.52-14.52,14.52s-14.52-6.514-14.52-14.52,6.514-14.52,14.52-14.52,14.52,6.514,14.52,14.52Z" fill="#ff6700"/>
      <path d="M96.275,68.865c0,3.376,2.737,6.113,6.113,6.113s6.113-2.737,6.113-6.113-2.737-6.113-6.113-6.113-6.113,2.737-6.113,6.113Z" fill="#ff6700"/>
    </g>
  </g>
</svg>