<?xml version="1.0" encoding="UTF-8"?>
<svg id="b" data-name="Layer 2" xmlns="http://www.w3.org/2000/svg" width="137.351" height="213.892" viewBox="0 0 137.351 213.892">
  <g id="c" data-name="Layer 1">
    <g>
      <path d="M0,0v213.892h137.351V0H0ZM135.98,212.521H1.371V1.371h134.609v211.15Z" fill="#8bef00"/>
      <path d="M68.675,108.938c10.653,0,20.669-4.149,28.202-11.682l4.363-4.363-8.726-8.726-4.363,4.363c-5.202,5.203-12.119,8.068-19.476,8.068s-14.273-2.865-19.476-8.068c-5.202-5.201-8.067-12.118-8.067-19.475s2.865-14.274,8.067-19.476c5.202-5.203,12.119-8.068,19.476-8.068s14.273,2.865,19.476,8.068l4.363,4.363,8.726-8.726-4.363-4.363c-7.533-7.533-17.549-11.682-28.202-11.682s-20.669,4.149-28.202,11.682c-7.533,7.533-11.681,17.549-11.681,28.202s4.148,20.669,11.681,28.201c7.533,7.533,17.549,11.682,28.202,11.682Z" fill="#8bef00"/>
      <path d="M96.275,68.865c0,3.376,2.737,6.113,6.113,6.113s6.113-2.737,6.113-6.113-2.737-6.113-6.113-6.113-6.113,2.737-6.113,6.113Z" fill="#8bef00"/>
      <polygon points="41.133 125.944 102.388 187.2 111.114 178.474 39.326 106.685 28.792 111.048 28.792 184.644 41.133 184.644 41.133 125.944" fill="#8bef00"/>
    </g>
  </g>
</svg>