<?xml version="1.0" encoding="UTF-8"?>
<svg id="b" data-name="Layer 2" xmlns="http://www.w3.org/2000/svg" width="137.351" height="213.892" viewBox="0 0 137.351 213.892">
  <g id="c" data-name="Layer 1">
    <g>
      <path d="M97.117,106.946c0,3.376,2.737,6.113,6.113,6.113s6.113-2.737,6.113-6.113-2.737-6.113-6.113-6.113-6.113,2.737-6.113,6.113Z" fill="#e600ff"/>
      <path d="M0,0v213.892h137.351V0H0ZM135.98,212.52H1.371V1.371h134.608v211.149Z" fill="#e600ff"/>
      <path d="M66.346,149.179l35.772,38.055,8.992-8.452-35.777-38.06c7.689-9.141,12.333-20.924,12.333-33.775s-4.644-24.634-12.333-33.775l35.777-38.06-8.992-8.452-35.772,38.055c-8.737-6.478-19.543-10.318-31.231-10.318h-6.17v12.34h6.17c8.42,0,16.24,2.606,22.706,7.047l-27.201,28.937v8.452l27.201,28.937c-6.466,4.441-14.286,7.047-22.706,7.047h-6.17v12.34h6.17c11.688,0,22.494-3.839,31.231-10.318ZM66.807,82.241c5.33,6.823,8.519,15.396,8.519,24.705s-3.189,17.882-8.519,24.705l-23.223-24.705,23.223-24.705Z" fill="#e600ff"/>
    </g>
  </g>
</svg>