<?xml version="1.0" encoding="UTF-8"?>
<svg id="b" data-name="Layer 2" xmlns="http://www.w3.org/2000/svg" width="137.351" height="213.892" viewBox="0 0 137.351 213.892">
  <g id="c" data-name="Layer 1">
    <g>
      <path d="M0,0v213.892h137.351V0H0ZM135.98,212.521H1.371V1.371h134.609v211.15Z" fill="#f9318c"/>
      <path d="M43.423,184.682c10.327,0,19.507-4.998,25.252-12.701,5.745,7.703,14.926,12.701,25.253,12.701,17.362,0,31.487-14.125,31.487-31.487v-48.279h-12.34v48.279c0,10.557-8.589,19.146-19.146,19.146-9.982,0-18.2-7.68-19.066-17.44.03-.565.048-1.134.048-1.706v-35.939h25.253v-12.34h-25.381v-63.366h33.777v-12.34H28.792v12.34h33.649v63.366h-25.125v12.34h25.125v35.939c0,.573.017,1.141.048,1.706-.867,9.76-9.084,17.44-19.066,17.44-10.557,0-19.146-8.589-19.146-19.146v-48.279h-12.34v48.279c0,17.362,14.125,31.487,31.487,31.487Z" fill="#f9318c"/>
    </g>
  </g>
</svg>