<?xml version="1.0" encoding="UTF-8"?>
<svg id="b" data-name="Layer 2" xmlns="http://www.w3.org/2000/svg" width="137.351" height="213.892" viewBox="0 0 137.351 213.892">
  <g id="c" data-name="Layer 1">
    <g>
      <path d="M0,0v213.892h137.351V0H0ZM135.98,212.521H1.371V1.371h134.609v211.15Z" fill="#ddd"/>
      <path d="M68.676,47.568c3.376,0,6.113-2.737,6.113-6.113s-2.737-6.113-6.113-6.113-6.113,2.737-6.113,6.113,2.737,6.113,6.113,6.113Z" fill="#ddd"/>
      <polygon points="41.133 85.162 62.505 108.927 62.505 159.983 74.846 159.983 74.846 122.649 97.801 148.173 108.558 144.047 108.558 29.171 96.218 29.171 96.218 127.958 74.846 104.194 74.846 53.909 62.505 53.909 62.505 90.472 39.55 64.948 28.792 69.074 28.792 184.644 41.133 184.644 41.133 85.162" fill="#ddd"/>
    </g>
  </g>
</svg>