<?xml version="1.0" encoding="UTF-8"?>
<svg id="b" data-name="Layer 2" xmlns="http://www.w3.org/2000/svg" width="137.351" height="213.892" viewBox="0 0 137.351 213.892">
  <g id="c" data-name="Layer 1">
    <g>
      <path d="M0,0v213.892h137.351V0H0ZM135.98,212.521H1.371V1.371h134.609v211.15Z" fill="#00efb6"/>
      <path d="M41.133,97.859c5.757,5.507,13.149,9.317,21.372,10.6v70.016l6.17,6.17h39.883v-12.34h-33.713v-63.845c19.072-2.975,33.713-19.511,33.713-39.404,0-21.992-17.891-39.883-39.883-39.883-10.676,0-20.377,4.224-27.543,11.079v-11.079h-12.34v155.473h12.34v-86.786ZM96.218,69.054c0,13.066-9.147,24.027-21.372,26.837v-53.674c12.225,2.81,21.372,13.771,21.372,26.837ZM62.505,42.217v53.674c-12.225-2.81-21.372-13.771-21.372-26.837s9.147-24.027,21.372-26.837Z" fill="#00efb6"/>
    </g>
  </g>
</svg>