<?xml version="1.0" encoding="UTF-8"?>
<svg id="b" data-name="Layer 2" xmlns="http://www.w3.org/2000/svg" width="137.351" height="213.892" viewBox="0 0 137.351 213.892">
  <g id="c" data-name="Layer 1">
    <g>
      <path d="M0,0v213.892h137.351V0H0ZM135.98,212.52H1.371V1.371h134.608v211.149Z" fill="#d8381c"/>
      <path d="M62.261,182.837l4.363,1.807c23.122,0,41.934-18.812,41.934-41.934,0-11.539-4.686-22.004-12.254-29.594h12.254v-12.34h-37.832c-16.318,0-29.594-13.276-29.594-29.594v-.076c0-15.491,11.965-28.241,27.139-29.493l27.946,27.946v19.377h12.34v-21.933l-1.807-4.363-31.661-31.661-4.363-1.807c-23.122,0-41.934,18.812-41.934,41.934v.076c0,11.539,4.686,22.004,12.254,29.594h-12.254v12.34h37.832c16.318,0,29.594,13.276,29.594,29.594,0,15.491-11.965,28.241-27.139,29.493l-27.946-27.946v-21.428h-12.34v23.984l1.807,4.363,31.661,31.661Z" fill="#d8381c"/>
      <path d="M74.788,142.71c0-3.376-2.737-6.113-6.113-6.113s-6.113,2.737-6.113,6.113,2.737,6.113,6.113,6.113,6.113-2.737,6.113-6.113Z" fill="#d8381c"/>
    </g>
  </g>
</svg>