<?xml version="1.0" encoding="UTF-8"?>
<svg id="b" data-name="Layer 2" xmlns="http://www.w3.org/2000/svg" width="59.239" height="59.239" viewBox="0 0 59.239 59.239">
  <g id="c" data-name="Layer 1">
    <g>
      <rect x="1" y="1" width="57.239" height="57.239" stroke="#ff0014" stroke-miterlimit="10" stroke-width="2"/>
      <g>
        <rect x="9.29" y="19.783" width="42.895" height="38.425" fill="none"/>
        <path d="M18.27,46.395l-.98-3.56h-4.14l-.96,3.56h-2.64l3.92-13.96h3.64l3.94,13.96h-2.78ZM15.31,35.015h-.16l-1.54,5.7h3.24l-1.54-5.7Z" fill="#ff0014"/>
        <path d="M25.01,35.515l-1.8-1.22,2.34-3.12-3.58-1.22.66-2,3.54,1.24v-3.78h2.24v3.78l3.54-1.24.66,2-3.58,1.22,2.34,3.12-1.8,1.22-2.28-3.12-2.28,3.12Z" fill="#ff0014"/>
      </g>
      <line x1="9.29" y1="50.963" x2="28.49" y2="50.963" fill="none" stroke="#ff0014" stroke-miterlimit="10" stroke-width="2"/>
    </g>
  </g>
</svg>