<?xml version="1.0" encoding="UTF-8"?>
<svg id="b" data-name="Layer 2" xmlns="http://www.w3.org/2000/svg" width="59.239" height="59.239" viewBox="0 0 59.239 59.239">
  <g id="c" data-name="Layer 1">
    <g>
      <rect x="1" y="1" width="57.239" height="57.239" stroke="#ff0014" stroke-miterlimit="10" stroke-width="2"/>
      <rect x="10.137" y="10.137" width="38.965" height="38.965" stroke="#ff0014" stroke-miterlimit="10" stroke-width="2"/>
      <line x1="10.137" y1="10.137" x2="10.137" y2="1" fill="none" stroke="#ff0014" stroke-miterlimit="10" stroke-width="2"/>
      <line x1="15.704" y1="10.137" x2="15.704" y2="1" fill="none" stroke="#ff0014" stroke-miterlimit="10" stroke-width="2"/>
      <line x1="21.27" y1="10.137" x2="21.27" y2="1" fill="none" stroke="#ff0014" stroke-miterlimit="10" stroke-width="2"/>
      <line x1="26.836" y1="10.137" x2="26.836" y2="1" fill="none" stroke="#ff0014" stroke-miterlimit="10" stroke-width="2"/>
      <line x1="32.403" y1="10.137" x2="32.403" y2="1" fill="none" stroke="#ff0014" stroke-miterlimit="10" stroke-width="2"/>
      <line x1="37.969" y1="10.137" x2="37.969" y2="1" fill="none" stroke="#ff0014" stroke-miterlimit="10" stroke-width="2"/>
      <line x1="43.535" y1="10.137" x2="43.535" y2="1" fill="none" stroke="#ff0014" stroke-miterlimit="10" stroke-width="2"/>
      <line x1="49.102" y1="10.137" x2="49.102" y2="1" fill="none" stroke="#ff0014" stroke-miterlimit="10" stroke-width="2"/>
      <line x1="10.137" y1="58.239" x2="10.137" y2="49.102" fill="none" stroke="#ff0014" stroke-miterlimit="10" stroke-width="2"/>
      <line x1="15.704" y1="58.239" x2="15.704" y2="49.102" fill="none" stroke="#ff0014" stroke-miterlimit="10" stroke-width="2"/>
      <line x1="21.27" y1="58.239" x2="21.27" y2="49.102" fill="none" stroke="#ff0014" stroke-miterlimit="10" stroke-width="2"/>
      <line x1="26.836" y1="58.239" x2="26.836" y2="49.102" fill="none" stroke="#ff0014" stroke-miterlimit="10" stroke-width="2"/>
      <line x1="32.403" y1="58.239" x2="32.403" y2="49.102" fill="none" stroke="#ff0014" stroke-miterlimit="10" stroke-width="2"/>
      <line x1="37.969" y1="58.239" x2="37.969" y2="49.102" fill="none" stroke="#ff0014" stroke-miterlimit="10" stroke-width="2"/>
      <line x1="43.535" y1="58.239" x2="43.535" y2="49.102" fill="none" stroke="#ff0014" stroke-miterlimit="10" stroke-width="2"/>
      <line x1="49.102" y1="58.239" x2="49.102" y2="49.102" fill="none" stroke="#ff0014" stroke-miterlimit="10" stroke-width="2"/>
      <line x1="49.102" y1="10.137" x2="58.239" y2="10.137" fill="none" stroke="#ff0014" stroke-miterlimit="10" stroke-width="2"/>
      <line x1="49.102" y1="15.704" x2="58.239" y2="15.703" fill="none" stroke="#ff0014" stroke-miterlimit="10" stroke-width="2"/>
      <line x1="49.102" y1="21.27" x2="58.239" y2="21.27" fill="none" stroke="#ff0014" stroke-miterlimit="10" stroke-width="2"/>
      <line x1="49.102" y1="26.836" x2="58.239" y2="26.836" fill="none" stroke="#ff0014" stroke-miterlimit="10" stroke-width="2"/>
      <line x1="49.102" y1="32.403" x2="58.239" y2="32.403" fill="none" stroke="#ff0014" stroke-miterlimit="10" stroke-width="2"/>
      <line x1="49.102" y1="37.969" x2="58.239" y2="37.969" fill="none" stroke="#ff0014" stroke-miterlimit="10" stroke-width="2"/>
      <line x1="49.102" y1="43.535" x2="58.239" y2="43.535" fill="none" stroke="#ff0014" stroke-miterlimit="10" stroke-width="2"/>
      <line x1="49.102" y1="49.102" x2="58.239" y2="49.102" fill="none" stroke="#ff0014" stroke-miterlimit="10" stroke-width="2"/>
      <line x1="1" y1="10.137" x2="10.137" y2="10.137" fill="none" stroke="#ff0014" stroke-miterlimit="10" stroke-width="2"/>
      <line x1="1" y1="15.704" x2="10.137" y2="15.704" fill="none" stroke="#ff0014" stroke-miterlimit="10" stroke-width="2"/>
      <line x1="1" y1="21.27" x2="10.137" y2="21.27" fill="none" stroke="#ff0014" stroke-miterlimit="10" stroke-width="2"/>
      <line x1="1" y1="26.836" x2="10.137" y2="26.836" fill="none" stroke="#ff0014" stroke-miterlimit="10" stroke-width="2"/>
      <line x1="1" y1="32.403" x2="10.137" y2="32.403" fill="none" stroke="#ff0014" stroke-miterlimit="10" stroke-width="2"/>
      <line x1="1" y1="37.969" x2="10.137" y2="37.969" fill="none" stroke="#ff0014" stroke-miterlimit="10" stroke-width="2"/>
      <line x1="1" y1="43.535" x2="10.137" y2="43.535" fill="none" stroke="#ff0014" stroke-miterlimit="10" stroke-width="2"/>
      <line x1="1" y1="49.102" x2="10.137" y2="49.102" fill="none" stroke="#ff0014" stroke-miterlimit="10" stroke-width="2"/>
    </g>
  </g>
</svg>