<?xml version="1.0" encoding="UTF-8"?>
<svg id="b" data-name="Layer 2" xmlns="http://www.w3.org/2000/svg" width="64.655" height="64.655" viewBox="0 0 64.655 64.655">
  <g id="c" data-name="Layer 1">
    <g>
      <path d="M54.876,63.655H9.779V1h28.659c6.419,6.419,10.018,10.018,16.438,16.438v46.217Z" stroke="#ff0014" stroke-miterlimit="10" stroke-width="2"/>
      <rect x="1" y="24.407" width="62.655" height="22.089" stroke="#ff0014" stroke-miterlimit="10" stroke-width="2"/>
      <polyline points="54.876 17.415 38.387 17.415 38.387 1" fill="none" stroke="#ff0014" stroke-miterlimit="10" stroke-width="2"/>
      <g>
        <rect x=".995" y="24.407" width="62.66" height="21.125" fill="none"/>
        <path d="M14.325,42.589c-.693,0-1.187-.147-1.48-.44-.293-.293-.44-.653-.44-1.08v-.6c0-.427.146-.787.44-1.08.293-.293.787-.44,1.48-.44s1.187.147,1.48.44.44.653.44,1.08v.6c0,.427-.147.787-.44,1.08-.293.293-.787.44-1.48.44Z" fill="#ff0014"/>
        <path d="M31.365,42.369h-10.08v-2.3l6.94-9.5h-6.7v-2.16h9.58v2.3l-6.92,9.5h7.18v2.16Z" fill="#ff0014"/>
        <path d="M33.885,42.369v-1.96h3.14v-10.04h-3.14v-1.96h8.88v1.96h-3.14v10.04h3.14v1.96h-8.88Z" fill="#ff0014"/>
        <path d="M45.925,42.369v-13.96h5.3c1.36,0,2.4.386,3.12,1.158s1.08,1.823,1.08,3.153-.36,2.381-1.08,3.152-1.76,1.157-3.12,1.157h-2.68v5.34h-2.62ZM48.545,34.909h2.14c.707,0,1.213-.144,1.52-.432s.46-.747.46-1.376v-.764c0-.629-.153-1.087-.46-1.375-.307-.289-.813-.433-1.52-.433h-2.14v4.38Z" fill="#ff0014"/>
      </g>
    </g>
  </g>
</svg>