<?xml version="1.0" encoding="UTF-8"?>
<svg id="b" data-name="Layer 2" xmlns="http://www.w3.org/2000/svg" width="64.66" height="64.66" viewBox="0 0 64.66 64.66">
  <g id="c" data-name="Layer 1">
    <g>
      <path d="M53.909,1H10.751C6.943,4.808,4.808,6.943,1,10.751v43.158l9.751,9.751h43.158l9.751-9.751V10.751c-3.808-3.808-5.943-5.943-9.751-9.751Z" stroke="#ff0014" stroke-miterlimit="10" stroke-width="2"/>
      <rect x="1" y="17.121" width="62.66" height="30.419" stroke="#ff0014" stroke-miterlimit="10" stroke-width="2"/>
      <g>
        <rect x="1" y="19.126" width="62.66" height="26.409" fill="none"/>
        <path d="M14.69,39.97c-1.827,0-3.177-.626-4.05-1.88-.874-1.253-1.31-3.033-1.31-5.34,0-2.293.437-4.07,1.31-5.33.873-1.26,2.223-1.89,4.05-1.89.693,0,1.303.093,1.83.277.527.185.983.439,1.37.763.387.324.707.715.96,1.173.253.458.453.96.6,1.507l-2.4.68c-.094-.32-.2-.62-.32-.9s-.27-.523-.45-.73c-.18-.207-.404-.367-.67-.48s-.586-.17-.96-.17c-.907,0-1.557.348-1.95,1.044-.394.696-.59,1.646-.59,2.852v2.409c0,1.205.197,2.155.59,2.851.393.696,1.043,1.044,1.95,1.044.374,0,.693-.057.96-.17.267-.113.49-.273.67-.48.18-.207.33-.45.45-.73s.227-.58.32-.9l2.4.68c-.147.547-.347,1.049-.6,1.507-.253.458-.573.849-.96,1.173s-.843.578-1.37.763c-.527.185-1.137.277-1.83.277Z" fill="#ff0014"/>
        <path d="M26.33,32.85c-.693,0-1.187-.147-1.48-.44-.293-.293-.44-.653-.44-1.08v-.6c0-.427.146-.787.44-1.08.293-.293.787-.44,1.48-.44s1.187.147,1.48.44c.293.293.44.653.44,1.08v.6c0,.427-.147.787-.44,1.08s-.787.44-1.48.44ZM26.33,39.95c-.693,0-1.187-.146-1.48-.44-.293-.293-.44-.653-.44-1.08v-.6c0-.427.146-.786.44-1.08.293-.293.787-.439,1.48-.439s1.187.146,1.48.439c.293.294.44.653.44,1.08v.6c0,.427-.147.787-.44,1.08-.293.293-.787.44-1.48.44Z" fill="#ff0014"/>
        <path d="M40.47,42.49l-6.58-17.96h2.3l6.58,17.96h-2.3Z" fill="#ff0014"/>
        <path d="M46.03,37.11l6.28-3.4v-.16l-6.28-3.4v-2.44l8.6,4.72v2.4l-8.6,4.72v-2.44Z" fill="#ff0014"/>
      </g>
    </g>
  </g>
</svg>