<?xml version="1.0" encoding="UTF-8"?>
<svg id="b" data-name="Layer 2" xmlns="http://www.w3.org/2000/svg" width="541.863" height="543.74" viewBox="0 0 541.863 543.74">
  <g id="c" data-name="Layer 1">
    <g>
      <g>
        <path d="M57.447,112.855c1.996-.084,2.074-.491,2.085,1.56.015,2.857-1.46,5.301-1.113,8.192l2.112,12.811c1.777.245,1-2.347,1.024-3.579.077-3.899.96-7.096,1.097-10.276.17-3.935-2.455-8.687-2.124-12.807,2.169-.635,2.59,1.15,2.845,2.773.383,2.444,1.131,6.942,1.245,9.106.093,1.761-1.023,3.277-1.049,5.015-.064,4.215.686,10.38-.158,14.196-.689,3.113-3.952,4.523-5.172,7.138-.491,1.052-2.808,8.705-2.806,9.483.006,3.083,3.722,4.673,4.096,7.168.577,3.847-2.316,10.327-1.052,14.867,7.075-3.096,11.287,2.813,16.051,7.099,2.264.655,3.508-1.883,5.425-2.544,3.02-1.041,6.16-.332,8.311,2.078,2.13,2.386,6.272,17.044,6.9,20.796,1.181,7.059-.523,8.912,6.271,14.245l3.203,8.586.115-7.069,5.935-2.269c.066-2.486.363-5.152.161-7.635-.349-4.279-3.202-3.98-5.737-6.572-5.415-5.537-4.114-11.189-4.544-18.024-.131-2.086-1.208-3.84-1.13-6.112.205-5.914,6.998-11.617.037-16.386-6.617-4.533-15.234-.517-20.463-5.185-2.39-2.134-4.461-10.08-5.084-13.381-.439-2.327.887-4.941-1.605-6.592-2.518,1.982-3.785,5.447-3.569,8.609.384,5.612,7.989,17.373,13.368,19.617,1.452.606,2.472-.442,3.366-.258,3.031.623,8.259,1.865,9.78,4.472,1.981,3.395,1.102,11.065,1.688,15.752.131,1.046,1.576,3.224-.516,3.081l-3.528-17.502c-.234-.342-5.474-2.556-6.418-2.815-2.17-.594-3.636.343-6.015-1.166-4.047-2.567-12.875-15.618-13.599-20.288-.754-4.867,1.967-9.711,5.959-12.28.055-2.949,2.287-8.061.549-10.605-.617-.903-2.837-1.468-4.117-3.062-5.52-6.874-.819-11.018-.553-16.986.162-3.65-2.781-8.691-2.033-12.734,1.135-1.331,1.977-.168,2.052,1.522.166,3.704-1.046,8.638,3.069,10.784-.038-3.499,3.283-7.083,3.915-9.938,1.093-4.943-.767-10.215,3.423-15.041l3.949-4.764c.711,3.97-4.099,8.105-4.934,10.958-.906,3.097.351,7.444-.386,10.897-1.131,5.294-7.408,11.316-8.009,17.712-.34,3.622,1.721,9.506,6.151,8.641-2.456-7.797,8.5-12.538,9.026-18.095.109-1.155-.88-2.423-.805-3.876.056-1.079.871-2.159.956-3.229.373-4.705-.782-10.351,5.129-12.295,8.459-2.782,11.693,5.898,9.817,12.889-2.364,3.302-6.45,2.411-9.249-.002-2.676,1.979-.86,5.091-2.071,8.17-2.218,5.643-8.381,5.892-9.964,9.527-2.416,5.547-1.053,11.324-1.831,16.624-.246,1.674-1.655,3.088-1.689,4.109-.069,2.091,5.553,14.595,7.282,15.988,2.384,1.921,6.806.605,9.815.952-5.142-5.289-8.335-9.357-8.943-17.108-.238-3.039,2.499-4.229-2.901-6.429-2.614-5.158,5.754-9.827,9.298-6.224,3.886,3.951-.604,8.487-1.361,12.007-1.112,5.174.136,10.03,4.929,12.63-.128-3.566,1.58-7.519,1.768-10.96.081-1.483-.881-2.897-.729-4.841.17-2.179,2.709-11.609,3.532-13.995,1.556-4.513,9.41-7.244,9.758-8.754-.443-2.584-2.628-4.501-3.011-7.122-.691-4.72.661-10.65-.049-15.337-.333-2.198-2.013-3.572-2.111-6.177-.078-2.083,4.72-21.74,5.7-24.127,2.125-5.176,6.454-5.613,9.487-8.466.733-.69,1.071-2.261,2.297-3.339,2.564-2.255,5.507-3.99,7.735-6.632,1.776,1.131-.495,2.243-1.051,3.052-1.689,2.459-4.681,6.728-6.638,8.749-3.009,3.109-7.277,4.889-9.462,9.004-2.538,4.781-3.1,16.203-2.859,21.771.054,1.259-.274,2.062,1.528,1.518,4.338-1.31,6.855-7.602,10.26-10.259,2.316-1.807,5.413-2.436,7.218-5.094-2.194-6.817-1.322-12.696.495-19.508,1.775-.246,1.003,2.352,1.022,3.581.037,2.371-.158,4.753.066,7.117.082.863.62,4.844,1.979,4.68-.131-2.909,4.451-6.021,4.977-7.848.486-1.689-.011-3.794.402-5.752,1.049-4.972,3.079-10.249,6.427-14.088.794-.149.616.94.52,1.543-.494,3.088-3.666,6.68-4.661,9.703-.943,2.864-.793,6.996-1.703,9.58-.274.777-7.989,13.416-8.538,14.03-1.548,1.733-4.195,1.735-6.174,3.059-2.625,1.756-4.092,5.245-6.076,7.259-1.527,1.55-5.038,2.952-5.533,4.725.388,4.125-1.729,8.125-1.157,12.124.541,3.781,5.016,8.21,4.084,12.851l.504-.004c4.845-2.664,10.323-5.482,15.904-4.101-1.623-4.247,2.012-9.837,1.98-12.807-.02-1.804-1.157-3.303-.908-6.08.449-5.025,4.921-10.243,5.14-12.421.268-2.655-2.421-4.481-2.164-7.137.307-3.178,5.99-6.936,8.207-3.026,1.084,3.714-2.196,4.232-2.829,6.274-.522,1.683.05,3.706-1.214,5.449l4.101,1.026-7.199,2.55c-4.032,6.621,1.015,13.778-2.028,21.047l10.83-8.221c.793-1.345-.893-3.224-.442-5.411.484-2.347,3.196-4.371,2.973-7.343-.18-2.39-3.074-4.919-2.903-7.046.212-2.632,3.506-6.719,3.548-8.377.045-1.789-2.203-5.316-2.534-7.424-.871-5.547,3.645-14.162,4.947-19.773,1.839-.089,2.181-.49,2.077,1.561-.151,2.966-1.792,5.763-2.084,8.694,5.998-.779,6.074-6.183,8.254-10.73l-2.665-1.497c-1.591-2.109,1.477-11.029,4.162-12.383,2.139-.317,1.751.449,1.077,2.104-.937,2.302-3.115,4.321-2.621,7.12,6.584,1.899,9.116-9.46,10.777-10.25,1.318-.627,1.725.17,1.444,1.438-.408,1.843-1.66,6.275-2.521,7.745-1.698,2.9-6.909,5.954-8.728,8.711-1.301,1.971-.924,4.255-2.103,6.103-1.234,1.935-5.169,2.943-5.888,5.397-.436,1.487-.745,9.402,1.351,9.472l3.467-1.07c.553-2.454.782-5.222,2.672-7.069,1.767-1.727,7.541-3.933,8.265-5.072,1.475-2.322,1.09-7.595,1.973-10.336.923-2.867,5.79-6.154,6.942-9.471l4.413-13.028c2.39-.53,1.693,2.147,1.476,3.529-.213,1.357-.748,2.645-1.2,3.931-.507,1.443-1.846,1.946.735,1.762,3.979-3.01,8.35-5.082,12.32-8.2,1.535-1.205,3.867-4.535,5.135-5.125,1.176-.548,2.074.348,1.528,1.527-.26.561-8.124,7.366-9.273,8.169-6.48,4.534-8.077,3.681-14.317,10.304-4.527,4.804-7.939,7.101-7.18,14.87,6.768-4.563,7.685-11.274,15.372-14.886,10.802-5.076,12.622-6.729,20.059-15.846,2.572-3.154,5.819-5.879,8.175-9.266,2.031-.31,1.889.371,1.008,2.035-1.417,2.676-4.045,4.66-5.632,7.186,6.888-.691,15.747-10.887,21.966-10.232,6.615.697,11.96-.392,18.323,1.241,1.046.268,1.783,1.539,3.309,1.815,5.113.924,9.953-2.17,12.844-1.626,2.918.549,11.352,6.893,12.132,9.479,1.065,3.532-.775,8.035-4.458,8.586-2.966.444-5.949-1.242-9.248-1.126-4.316.152-10.015,1.4-14.35,1.158-4.532-.254-10.171-3.728-15.354-4.182-5.496-.482-19.569,1.249-25.453,2.296-2.881.513-5.605,2.187-6.893,4.9l20.009-2.048c3.43-.563,3.737-4.553,9.052-1.866,2.856,1.444,2.26,6.215-.317,7.536-2.617,1.341-6.888-1.003-9.841-1.488-8.3-1.362-20.274-.235-28.415,2.208-8.684,2.607-10.597,8.695-16.648,14.127-3.011,2.703-11.562,7.025-12.883,8.66-1.689,2.092-1.921,7.247-3.229,8.572-2.383,2.414-7.343,1.078-8.826,8.089-.733,3.463.71,5.549.573,7.849-.203,3.406-4.36,7.997-3.847,11.96,3.181-3.715,9.684-4.699,9.983-9.915.178-3.096-1.145-3.288.871-7.441,3.312-6.824,10.545-16.952,16.883-21.068,4.114-2.672,18.577-9.177,22.336-5.494,3.284,6.254-7.235,9.152-5.977.841-3.033-.436-4.536.11-6.862,1.83-.843.623-1.905-.207-1.333,2.267l5.135,2.048c-2.544.277-7.162-2.123-9.319-1.568-4.124,1.063-11.933,9.743-14.071,13.575-.507.908-2.227,2.626-.723,3.38,1.123-1.412,4.472-2.291,5.397-3.318.752-.834.898-2.651,1.802-3.842,1.354-1.784,4.978-3.702,7.197-4.09.941-.165,4.82-.785,4.585.991-4.093-.511-6.74,1.734-9.222,4.62l4.092,2.56c-4.104-1.541-15.771,4.246-17.934,7.203-2.463,3.367-.446,9.288-3.111,12.275-1.289,1.445-3.88,1.907-5.671,3.562-2.408,2.224-4.299,6.285-6.6,8.788-2.778,3.023-7.859,5.629-9.641,8.824-1.634,2.93-7.494,21.118-8.122,24.704-.513,2.93-.019,4.731.828,7.463l8.767-1.974c.99-4.13.868-9.893,2.715-13.697,1.321-2.72,9.694-11.623,9.897-12.647.18-.909-.88-2.58-.929-3.967-.281-7.915,4.844-8.704,8.738-13.892,1.078-1.436.95-3.964,2.593-4.069.138,2.416-1.214,5.261-2.606,7.132-2.954,3.972-10.53,5.337-5.084,12.345l3.586-7.168-.78,5.88-14.469,18.366c-1.167,5.267,3.123,4.688,7.026,4.455.372-.465-.363-6.026,2.067-6.135l-.475,9.263c-1.014,1.487-1.566.639-2.589.531-2.37-.251-4.978-.618-7.186-1.591.048,2.426.315,6.425-1.517,8.232-1.639,1.618-4.731.608-7.098,2.136-1.214.784-2.927,3.662-3.255,4.968-.39,1.555,1.515,2.925,1.638,4.715.132,1.924-1.404,3.767-1.102,6.073.301,2.3,3.413,4.445,3.95,6.377,2.009,7.226-7.245,16.794-9.584,23.879-1.337,4.049-1.127,8.9-3.585,12.873.593,3.968,4.401,3.121,6.927,4.37,2.13,1.053,5.888,4.842,7.111,5.199,1.835.536,4.007-.114,5.929.227,6,1.063,15.911,2.773,15.898,10.702-.01,6.231-5.086,5.379-7.594,8.747-5.132,6.89,4.405,15.881,5.416,23.248l3.272,5.441c-1.18-8.035-5.207-16.896-1.826-24.907,1.023-2.423,8.922-7.932,12.09-7.919,1.061-1.039-3.739-5.927-4.565-7.225-4.043-6.35-4.94-10.494-12.155-14.516-4.205-2.344-9.251-1.748-11.866-6.6-2.141-3.972-1.994-11.596-2.252-16.204-.059-1.048-.887-2.155-.948-3.229-.085-1.51,1.316-6.722,2.142-8.016,1.716-2.689,4.922-1.983,6.574-3.685,2.069-2.132,1.039-5.28,1.689-7.543.444-1.545,2.78-2.094,2.973-4.278.096-1.091-1.999-7.846-2.631-8.696-.757-1.017-2.53-1.204-3.115-2.011-2.476-3.413,2.769-8.55,6.246-5.225,1.598,2.471-.997,6.464-.557,9.753.628,4.703,5.742,8.89-2.101,12.468-.163,2.422.663,5.338-.455,7.58-1.024,2.054-4.309,2.732-5.471,4.788-1.456,2.576-2.435,14.831-1.975,18.033,1.494,10.419,8.542,7.25,16.154,11.02,1.256-1.336-5.126-6.225-6.013-7.831-1.755-3.177-1.532-10.302-.929-14.007.267-1.639.655-3.407,2.841-2.776l-1.019,9.228c.177.21,5.309-3.572,5.116-.513-.037.584-5.762,3.233-5.022,6.022.129.604,7.416,7.896,8.605,8.864,1.475,1.201,3.757,1.601,4.421,2.252,1.891,1.855,1.907,6.776,2.739,9.057.921,2.523,4.465,6.949,4.698,8.704.814,6.145-3.093,5.543-6.557,7.824-5.203,3.426-7.781,4.651-6.599,11.424.966,5.531,7.167,22.127,11.018,25.904,2.51,2.462,7.082,4.366,9.299,7.115,2.063,2.558,2.293,6.025,4.084,8.733-3.201-.195-3.641-3.716-6.201-5.592-2.146-1.573-5.206-2.334-7.466-3.818-6.579-4.319-14.772-9.689-18.106-16.815-6.208,2.046-11.324-2.193-17.47-2.488l-.575,14.335,2.77,3.974c9.991-1.776,12.092,5.203,18.229,11.015l-1.949,2.47c-.232-3.713-4.06-4.598-7.191-5.13.071,1.224-.8,2.148-.77,3.381.042,1.749,2.705,5.484-1.274,4.827.114-1.809-1.789-4.19-1.723-5.663.077-1.714,2.718-3.481.688-6.65-3.347,2.387-11.167-1.471-12.143-4.777-1.926-6.528,2.488-9.105,2.933-13.23.263-2.442-2.224-5.776-.061-7.159,3.825-2.446,11.346,2.015,15.425,2.602.945-.988-2.069-16.726-3.003-19.045-1.352-3.356-3.859-3.368-7.119-3.646-.659-7.527-8.863-22.976-17.983-20.276-2.262.67-1.723,6.048-3.191,8.088-1.842,2.561-7.85,1.056-6.665,6.159,9.565.177,18.624,2.438,18.556,13.853-.026,4.353-1.29,16.047-2.615,20.032-1.119,3.365-4.933,7.686-4.484,11.52.929,7.948,5.027,6.354,10.109,8.43,4.796,1.959,6.328,12.435,1.014,14.89,1.552-4.132.824-7.223-.474-11.326-7.738-2.41-13.358-3.829-14.751-13.025-.863-5.696,5.326-13.372,7.048-19.207,1.807-6.123,3.409-15.544-2.082-20.036.294,6.645-3.636,10.762-8.186,14.899-1.27,1.155-3.329,1.921-4.202,2.979-2.351,2.85.837,15.249.048,20.562-.501,3.374-5.089,10.048-5.094,12.333-.006,2.366,2.883,4.486,3.63,6.616.815,2.326.939,5.734,1.493,8.256,4.587-1.889,8.171-10.459,11.8-12.304,1.756-.893,1.748,1.057,1.367,2.393-.516,1.803-5.737,11.216-4.962,11.96,3.833.104,8.264-2.906,11.883-3.061,1.711-.073,3.24.92,5.011,1.043,7.206.501,8.853-1.949,14.624-3.905,6.408-2.171,12.857-4.233,19.257-6.434,12.677.047,13.458,8.777,9.496,18.769-2.264,5.71-7.31,6.111-10.977,9.54-2.41,2.254-4.671,6.581-7.713,8.7-5.942,4.141-17.663,1.342-24.43-.258-1.296-.306-2.333-1.395-3.487-1.642-2.42-.52-5.107.545-7.068-1.14-5.204-5.409-.776-9.299,4.336-12.215l6.504-3.235-20.462,2.101-1.064,23.519,23.135,4.054c4.997.062,10.162.77,14.802-1.478l13.342-6.15-23.586,18.465c3.34,4.153,7.273,9.342,7.169,14.873-8.598-8.551-20.121-12.783-31.797-15.384-.814,4.744,2.734,11.265-.502,15.401-.888,1.135-2.862.404-2.577,2.029,5.964-.058,10.182-.821,15.346,2.61,1.403.932,2.097,2.446,3.85,3.331,5.342,2.699,12.372-1.009,15.295,6.421l14.752-1.073c.348,1.992-1.323,2.973-2.697,3.966l-8.584,3.207c5.411.258,12.025,5.167,12.37,10.762.154,2.503-1.34,5.738-.988,7.018.409,1.484,6.521,6.471,8.11,8.38,2.331,2.801,7.714,10.046,8.182,13.36.314,2.221-.157,4.478.269,6.911,1.892,10.806,10.838,21.163-8.45,21.269-.494-2.883.621-1.691,2.28-2.289,2.247-.809,4.672-1.017,5.804-3.478-.65-3.95-3.441-8.401-3.931-12.232-.363-2.836.527-6.523-.215-9.017-.565-1.901-16.843-15.809-19.265-16.634-5.577-1.899-5.189,1.192-8.314,3.094-1.818,1.106-5.66,1.623-7.163,3.093-2.051,2.007.566,5.316-3.053,4.639-2.165-6.034,4.046-9.112,4.933-13.008,2.274-9.994-11.188-10.671-17.272-13.12-1.879-.756-3.352-2.597-5.045-3.162-4.402-1.47-10.817,1.076-14.396-2.019-3.101-2.681-10.057-15.487-12.918-19.908-.884-1.366-2.399-2.286-3.374-3.807-1.652-2.578-6.247-10.996-2.534-12.488,4.466-1.795,7.289,0,10.586,2.895l.009-11.286c-6.814,1.164-11.627-2.696-11.286-9.671.239-4.886,5.945-8.733,3.069-13.917-1.786.282-1.806,2.033-2.33,3.306-1.815,4.41-4.27,8.748-7.919,12.079.46-5.614,6.464-9.165,7.184-14.866-2.746-1.704-3.626,3.746-5.657,4.604-3.574.06-.349-2.427.386-3.744,1.362-2.439,1.191-3.497,4.228-4.97-3.814-5.132-9.58,3.847-12.302-1.534l12.335-2.478c1.994-1.448,1.236-9.208,6.133-8.805-1.428,2.176-4.141,6.149-4.105,8.751.018,1.29,1.359,2.107,1.828,3.312.371.954-.051,2.31.468,3.119.157.244,1.218.154,1.797.91,4.988,6.506-.983,10.717.009,17.754h5.136c-.805-4.082,1.311-7.939,1.076-11.804-.162-2.668-1.719-4.776-2.053-7.224-.747-5.466-.315-11.476,4.832-14.253l-1.801-8.775c2.782,1.792,4.224,6.173,5.134,9.232,2.6.204,1.708.181,2.028-1.53.543-2.904,1.755-6.157.875-9.082-.617-2.052-4.724-3.689-4.991-7.392,1.373-5.869,5.768-10.905,5.159-17.382l-2.05.518c-.168-1.703,1.103-2.873,1.106-4.603.005-2.632-1.842-6.593-2.107-9.348-.919-9.541,13.963-12.194,15.319-21.354-5.479-6.327-6.969.456-9.85,1.313-6.215,1.85-4.589-7.75-5.669-11.488-.521-1.802-4.139-3.688-5.202-6.082-1.075-2.421-1.089-6.098-2.049-9.234-.531-1.734-4.298-11.015-5.403-11.001-3.764,1.983-3.023,11.028-7.191,11.339-1.154.086-6.719-2.231-6.67-.568,1.269,2.657,1.239,6.541,2.285,8.999.894,2.101,3.254,3.854,4.399,6.884.809,2.141,1.272,4.883,1.55,7.176,4.402-.086,8.332-2.318,12.668-.054,4.906,7.131,4.067,16.826,3.761,25.223-.216,5.929-.488,8.001-.004,14.298.836,10.852-3.835,9.26-6.425,15.175-1.207,2.757-.887,6.591-2.035,9.248-2.678,6.199-14.016,7.832-19.224,11.552-3.081,2.201-6.34,7.493-9.548,8.917-2.508,1.113-4.947.313-6.925,1.283-1.942.952-4.985,5.756-7.165,7.197l11.818-.531c.921-.03,1.449.394,2.051,1.021,1.064,1.109,5.203,10.162,6.134,12.331,4.69,10.93,7.751,22.9,14.036,33.151,4.031,6.575,16.606,20.304,22.44,25.774,4.395,4.122,13.999,6.816,19.135,10.697,2.541.632,3.746-2.002,5.427-3.465l-14.352-7.688c6.392,1.975,19.859,2.844,18.479,11.793-.596,3.865-12.6,10.111-16.43,11.802-1.352,1.048,4.786,6.065,5.599,7.215,1.609,2.274,2.104,4.794,4.124,7.16,4.126,4.833,9.38,4.743,13.841,7.703,2.722,1.806,4.971,5.805,7.863,7.524,6.365,3.784,13.454,1.511,19.357,6.291,1.52,1.231,3.208,3.84,4.641,4.592,6.104,3.203,14.513,1.595,19.434-3.138.514-2.326-6.169-6.881-1.463-13.723.812-1.18,2.571-2.14,3.046-3.109.859-1.754.203-3.989,1.37-5.684-2.091-3.366-5.249.022-8.34-.624-5.238-1.095-5.597-8.32-4.843-12.68.277-1.6,2.032-2.521,1.639-3.613-1.951-5.417-8.286-9.041-11.335-13.352-1.183-1.673-1.681-3.794-2.762-5.445-1.595-2.436-5.175-5.753-5.817-8.546-.904-3.93,1.397-11.679,2.441-15.718-4.092-4.405-8.785-6.84-10.83.529-.543.982-1.96-.73-2.05-1.05-1.337-4.753,5.927-12.416,10.181-13.911.425-4.105-4.538-5.143-3.002-10.176,2.317-.328,6.119,2.505,7.737.045.704-4.928-1.123-9.62-.587-14.949.61-6.071,8.175-15.838,12.342-20.484,7.686-8.568,17.179-4.899,23.595,3.076,5.551,6.9,5.4,13.543,6.159,22.05,4.445-.103,4.059-8.147,3.08-11.28,3.356,1.951,3.134,6.968,3.078,10.257,7.969-6.209,16.418-3.931,15.38,7.178l-3.036-6.7-3.137-1.031c-2.802,1.754-6.235,14.058-6.222,17.48.016,3.937,2.303,18.393,3.372,22.357,1.18,4.371,5.925,7.611,6.778,11.687,1.521,7.263-1.887,16.49-3.7,23.601-3.088,6.615-8.306,6.297-9.98,8.486-.888,1.161-2.72,8.103-2.554,9.713.644,6.235,7.714,7.559,11.276,10.339,1.752,1.367,2.159,3.338,3.575,4.632,1.893,1.73,5.932,2.604,8.69,4.647,2.75,2.037,7.161,6.393,6.106,10.02-2.225,2.987-5.071,5.999-9.112,5.812,5.466,9.162,15.595-3.455,12.546-9.988-1.873-4.014-8.098-7.29-6.386-13.606l3.645,6.092c3.207,2.423,5.785,2.98,7.372,6.985,3.503,8.835-1.291,10.317-5.302,16.743-2.225,3.565-3.555,9.077-7.47,10.995-2.09,1.023-5.073.687-6.365,2.868-1.325,3.665-2.826,8.332-2.146,12.226.883,5.064,11.814,5.862,15.407,10.233,3.106,3.779,2.94,7.906,4.658,11.754,1.481,3.315,4.747,6.18,6.613,9.283-3.602.096-4.155-4.439-6.626-6.192-1.324-.939-3.138-.942-4.165-1.99-2.015-2.056-2.711-11.183-4.808-14.173-7.151-3.523-17.127-4.058-15.184-14.563l-2.851,5.855c-.795,4.541.925,12.78,3.395,16.683,1.394,2.204,4.759,2.909,6.36,4.412,1.738,1.633,3.316,4.954,5.913,6.909,3.444,2.592,8.358,4.078,12.14,6.325,4.442,2.639,9.614,7.433,14.559,9.039.515.167,1.684.273,1.524-.501-3.266-3.781-3.076-9.715-4.558-13.906-.891-2.52-3.095-4.208-3.448-7.907-.352-3.678,3.145-5.61.888-9.898-.464-.881-3.302-.717-4.911-1.395-7.468-3.146-7.889-10.006-9.533-17.111l10.391-20.961,3.985-.117c-.648,4.155,2.274,10.066,2.061,13.781-.164,2.865-3.448,7.378-2.947,10.12.643,3.52,6.104,7.001,6.084,12.513-.022,6.005-7.436,12.96-2.121,16.928.216-2.872,3.017-3.961,4.334-6.445,2.593-4.889,6.485-17.481,5.954-22.73-.402-3.97-4.617-7.291-4.185-13.411.288-4.073,4.435-7.83,4.189-11.21-.52-7.128-11.997-6.521-15.449-10.279-1.355-1.475-3.551-6.487-3.868-8.468-2.171-13.539,19.038-10.067,16.215,5.365-.354,1.938-2.513,2.943-2.098,5.088,4.136,2.316,8.184,5.91,7.05,11.116-.632,2.9-4.198,6.169-3.955,9.378.256,3.376,4.755,8.247,5.995,11.524l.7,11.605c1.978-4.689,10.182-7.968,10.818-12.851.83-6.372-6.068-13.827-3.356-19.698,2.309-4.998,9.975-8.228,12.579-12.034,1.508-2.205,1.841-5.715,3.587-7.697,2.593-2.945,8.537-4.953,8.698-10.282,1.837-.238,1.041,2.309.807,3.372-1.383,6.292-4.805,6.677-6.463,9.947-2.355,4.645,2.563,12.444,7.191,14.068l9.735-5.336c-1.88-1.738-3.843-3.111-2.918-5.962,5.327-6.833,5.299-16.235,13.944-19.95,2.089-.898,4.714-.915,6.41-1.798,4.331-2.256.342-8.017,1.039-11.778-1.465-1.608-7.453,6.478-8.363,7.533-1.367,1.584-1.464,2.092-3.946,1.692-.315-.28,2.425-3.857,2.821-4.867,3.018-7.693,3.496-15.131,2.082-23.109-.797-4.496-1.255-7.939-1.893-12.468-.796-5.654-4.312-9.947-2.541-16.013.9-3.083,4.679-7.985,5.482-10.926.524-1.92.468-6.936.243-9.066-.883-8.354-9.943-11.313-8.216-22.502.413-2.677,2.384-3.721,2.856-5.345.816-2.803-.156-6.873.244-10.013.519-4.07,3.52-8.228,6.101-11.337,4.132-4.977,10.115-6.944,8.155-14.817-3.902-.36-10.612-1.762-10.241-6.667.191-1.364.862-2.495,1.62-3.601,1.271-1.854,7.281-8.756,8.949-9.512,9.103-4.128,16.002,7.12,11.475,14.544-1.316,2.159-3.947,2.701-4.623,3.796-1.609,2.607-.532,7.198-2.557,10.569-1.939,3.229-7.247,7.641-9.701,10.816-5.528,7.154-8.993,14.608,1.565,19.032,1.997.21,2.956-.655,4.044-2.141,5.958-8.131,9.788-18.582,16.887-26.265l-.378-1.405c-2.629-1.829-4.071-4.668-1.082-7.167,1.017.802.245,2.616,1.013,4.112.785,1.529,2.689,1.38,2.657,4.589-.052,5.247-4.139,7.978-5.208,11.301-.389,1.208,6.257-.615,7.2-1.007,5.685-2.367,4.914-7.697,7.708-11.782,1.629-2.382,4.333-3.165,6.165-5.119,4.776-5.094,5.422-13.066,3.544-19.536-5.092.25-6.609,3.201-9.404,6.498-.719.848-1.652,2.972-2.902,1.202,1.56-2.649,2.06-5.8,4.083-8.226,2.953-3.542,8.345-5.27,11.147-9.37,2.287-3.345,9.628-23.947,9.405-27.489-.454-7.205-13.483-7.342-14.215-14.246,1.185-2.997,3.338-5.896,4.491-8.844.628-1.605.378-3.478.951-5.203,1.803-5.421,4.798-5.112,8.242-8.171,1.142-1.014,7.465-7.138,7.491-7.674.087-1.815-3.05-5.425-4.921-6.178-.374-3.936,4.748.966,5.121.519,2.074-6.559-6.061-5.656-3.636-11.335l5.692-.977c-.086,3.244.116,6.521.034,9.774-.037,1.476-.965,2.818-.963,4.074.002,1.226,1.039,2.342.796,3.897-.609,3.894-6.986,5.808-8.074,9.948l13.919-4.029c1.823-1.411,3.401-7.599,3.505-9.904.073-1.632-.859-2.799-.95-4.079-.456-6.413.476-12.849-7.083-14.963-.415-2.527-.439-6.01-1.196-8.384-.316-.99-1.589-.561-2.075-1.333-4.005-6.357.351-7.547,1.034-12.207.401-2.732-.216-5.887.032-8.689l1.952,6.665c-.658,3.554-2.637,7.537-1.994,11.187.145.823,1.714.252,2.38,1.86,1.003,2.421.281,5.088,1.221,6.981,1.068,2.151,6.676,2.175,8.294,7.094.91,2.767.706,9.744.484,12.911-.154,2.192-.8,6.924-1.249,9.008-1.616,7.495-6.815,6.877-12.153,9.39-7.26,3.418-7.603,6.339-11.434,12.16-1.233,1.874-5.669,7.157-5.893,8.507-.411,2.479,3.691,2.57,5.438,3.598,1.928,1.134,3.075,3.539,5.524,4.212,4.473,8.906.611,18.527-1.803,27.46,4.178-3.259,4.792-9.646,6.665-14.359,1.539-3.873,6.222-9.293,4.105-13.34-.117-.223-2.636-3.688-2.81-3.851-1.661-1.568-4.808-.731-5.733-5.065-2-9.367,7.822-11.23,14.76-12.555,2.146-.41,4.251.271,6.666-.516.636-.207,6.416-4.305,6.645-4.639.986-1.433.415-4.35.413-6.129l-5.019-1.139c-1.772-4.057,4.204-8.024,7.049-6.018.676.476,2.668,8.571,2.144,10.175l4.026-.069c2.356-4.715-1.043-6.452-1.788-9.873-.613-2.818.204-5.533-.662-8.571-1.766-6.199-10.55-14.161-8.576-20.794.605-2.034,2.676-2.714,2.936-6.317.315-4.359-1.563-4.59-2.086-7.22-.682-3.431.521-5.249-3.736-7.547-4.951-2.674-8.847-.447-7.561-9.366l-10.26,1.027.002-9.227,2.629,5.178,5.553-.07.717-4.646c-.036-.676-7.671-8.608-8.907-10.206-2.884-3.728-6.963-7.912-6.149-12.822l3.588,6.15,1.423-5.472c-2.473-3.776-8.389-6.784-9.125-11.457-.344-2.182.181-2.596,1.292-.266.718,1.505,2.142,3.757,3.286,4.932,2.872,2.947,6.401,3.224,6.713,8.751.114,2.016-1.579,3.811-.916,5.907.595,1.88,6.944,8.441,8.554,10.997,3.405,5.403,2.415,10.396,4.621,15.894,3.665,1.065,8.801.869,9.29,5.587,1.351.18,1.909-3.855,1.975-4.677.684-8.532-3.176-11.076-5.36-18.097-1.051-3.378-1.054-7.634-2.541-10.793-2.438-5.177-11.985-11.026-15.664-15.111-2.637-2.928-3.128-7.61-8.994-7.924-2.737-3.836-1.147-10.252-3.741-13.193-1.1-1.247-9.107-6.531-10.499-6.94-2.004-.588-4.391-.03-6.476-.195l4.092-2.56c-2.482-2.886-5.129-5.131-9.222-4.62-.236-1.777,3.644-1.155,4.584-.99,6.835,1.201,7.231,9.538,13.879,10.224,2.126-2.048-11.447-15.807-15.019-16.201-2.233-.247-5.962,2.264-8.576,1.839.715-3.442,6.012-.309,5.13-4.089-2.111-.003-3.685-1.866-5.701-2.086-2.906-.318-5.455,2.568-7.635-.489l10.581-.321c7.905,4.044,15.403,7.739,20.673,15.234,4.948,7.037,6.576,10.635,7.759,18.91.781,5.464,6.965,5.422,9.721,9.77,1.46-.587,0-1.993-.262-2.815-.714-2.231-3.263-7.574-3.358-9.025-.142-2.18,1.376-4.887,1.095-8.192-.587-6.906-5.305-5.946-8.801-9.672-2.287-2.437-2.806-6.261-5.052-8.283-2.149-1.935-6.304-2.275-8.472-4.352-5.52-5.29-10.536-14.292-18.704-16.687-3.539-1.038-16.545-3.469-20.071-3.612-2.284-.093-4.038,1.022-6.111,1.127-3.241.165-6.54-.169-9.777-.034.455-2.051,2.01-1.824,3.571-2.067,8.298-1.293,12.513-.615,20.493.067,1.03.088,4.883.657,4.66-1.067-3.274-.724-5.95-2.7-9.19-3.636-8.231-2.378-21.851-2.773-30.283-1.476-1.976.304-3.485,1.987-5.13,1.996-3.22.018-8.096-4.132-10.301-4.095-1.989.033-2.623,2.796-7.979,1.837-5.371-.962-3.183-7.605,1.897-7.99,5.351-.405,8.676,9.016,17.2,7.017l7.877-2.884c-4.604-.759-7.355-5.096-12.02-5.933-7.899-1.417-17.34,2.876-23.495-5.209l-6.545.878c-.914-4.909,1.745-7.876,6.615-8.231,3.714.271,5.412,4.436,7.393,4.997,4.037,1.143,22.233,1.809,26.495,1.163,3.312-.503,4.387-2.707,9.226-2.001,4.833.705,11.713,10.195,16.453,12.275.45.197,1.69.258,1.529-.505-1.955-1.931-4.348-4.258-5.63-6.681-.881-1.666-1.023-2.345,1.009-2.036,1.579,2.79,4.197,4.766,6.094,7.244s3.666,6.584,5.765,8.596c2.413,2.313,7.181,3.421,9.155,5.207,4.106,3.715,6.765,4.852,10.747,8.718,3.346,3.249,7.2,5.714,10.312,9.206,1.015-1.854.706-5.262.052-7.232-.906-2.728-2.899-2.615-4.106-4.101-1.181-1.454-1.987-3.76-3.185-5.022-4.267-4.496-19.625-10.517-21.999-15.96-.197-.451-.257-1.69.506-1.53,5.011,5.164,10.07,8.119,16.254,11.445,1.211.652,2.736,3.092,3.752,1.378l-3.031-7.099,3.03-1.621c.929,5.784,2.244,11.479,5.691,16.367,1.45,2.056,4.332,3.575,5.149,6.135.7,2.196.266,4.303.679,6.501,1.002,5.331,3.827,4.504,6.392,7.969,2.652,3.583,2.412,9.184,8.238,10.233,2.114.381,1.297-.351,1.609-1.484.85-3.089,1.509-5.878.812-9.153-.607-2.066-4.044-2.864-5.466-4.788-1.66-2.245-1.587-5.509-3.566-7.718-1.459-1.629-3.696-2.378-5.612-4.647-2.342-2.773-4.229-7.125-4.674-10.724-.251-2.032.327-1.585,2.03-1.514,1.589,5.293,3.664,11.187,10.266,10.255.296-2.647-2.178-4.89-2.906-6.835-1.426-3.81,2.415-2.758,3.708.397.99,2.416,2.901,8.796.243,10.07l-3.093-.041c4.644,3.351,2.678,9.611,8.721,11.795,2.196-1.885-1.944-9.909-1.542-10.249l3.019.034c.697.777,5.045,17.2,4.936,18.779-.16,2.327-2.517,5.776-2.799,8.432-.338,3.179,1.391,5.656,1.048,8.113-.222,1.585-1.641,2.283-1.949,3.303-.888,2.941,5.457,13.048,4.453,17.761l10.78,9.219c.341-2.811-1.972-6.195-1.952-8.719.01-1.257.928-2.6.965-4.076.076-3.037.015-6.115-.143-9.148l-8.096-3.704,4.107-1.018.052-4.554-3.721-1.527-.395-5.158c2.311-.879,3.768-.911,5.643.938,1.419,2.122-.254,7.761.626,10.652.359,1.178,1.813,1.77,2.36,2.77,2.701,4.945.964,9.72,1.636,14.776.496,3.73,3.187,7.404,1.998,11.85,5.095-.361,11.021.679,14.882,4.098l5.395-12.035c-.12-1.756,1.234-4.387,1.064-5.78-.116-.953-1.163-1.8-1.311-2.626-.185-1.028.406-2.01.049-3.141-.711-2.254-5.166-5.032-7.276-7.163-1.533-1.548-2.196-3.631-4.061-5.171-2.088-1.725-5.634-2.359-7.182-4.102-.599-.675-9.056-14.452-9.298-15.321-.679-2.441-.356-4.749-.923-7.283-.863-3.864-3.802-8.228-5.696-11.742,1.544-1.77,2.621.811,3.277,1.852,5.323,8.437,2.898,18.31,10.572,25.33l1.572-10.81c.064-2.101-2.884-5.213.987-4.578.115,3.516,1.937,8.549,1.978,11.812.037,2.976-3.39,5.286-.999,9.075.698,1.106,4.948,2.234,6.738,3.716,3.37,2.79,5.422,8.441,10.246,10.262,1.546-1.034,1.44-1.909,1.574-3.536.398-4.837-1.2-15.995-3.328-20.344-1.527-3.121-7.246-6.388-10.05-9.441-1.439-1.567-3.6-4.512-4.944-6.34-.682-.927-3.148-3.422-1.725-4.43,3.559,3.1,6.682,7.278,10.248,10.269,3.101,2.601,6.891,2.832,8.792,7.622s3.584,20.561,3.049,25.728c-.252,2.438-1.725,4.637-1.835,6.286-.176,2.634,1.25,6.245.729,10.048-.829,6.045-5.324,11.272-1.005,17.516,2.013,2.91,6.376,4.129,8.107,7.281.411.749,2.183,5.703,2.183,6.023v18.463c0,.437-2.662,1.783.507,1.535.831-1.658,4.066-4.495,4.46-5.8,1.145-3.794-.822-23.276-3.948-25.474-2.45-1.723-5.9-.532-6.974-5.331-1.384-6.183,2.346-6.163,2.737-8.129.187-.939-.934-2.56-.962-3.988-.196-10.031,14.718-4.698,9.374,3.967-.892,1.447-3.321,1.019-3.98,1.878-.276.36-2.361,5.831-2.316,6.456.176,2.444,2.787,2.332,4.077,4.217,2.428,3.548,1.631,7.476,2.219,11.116,1.242,7.68,4.456,16.228-.064,23.138l11.099-5.311c1.308-1.62,1.661-11.273,1.022-13.469-.404-1.389-2.264-2.574-2.699-4.482-.759-3.332.255-6.92-.647-10.636-.877-3.611-4.68-8.041-5.504-11.935-.968-4.579.456-10.298-.357-15.029l-9.959-12.295.935-2.696c7.135-1.191,3.926,3.737,5.584,7.145.866,1.78,3.344,2.338,4.34,3.356,4.977,5.081,1.266,19.358,5.672,24.079.61.654,2.251,1.038,3.386,2.249,2.863,3.052,4.058,7.225,3.547,11.335,6.995-2.163,6.13-11.217,3.877-16.702-1.689-4.112-6.887-9.038-7.039-14.594-.056-2.055,1.029-3.629.679-5.644-.719-4.143-4.909-7.899-5.73-12.29,2.793-.585,1.719.768,2.51,2.054,2.269,3.687,5.06,6.118,5.645,10.815.328,2.63-.331,5.347.246,7.959.267,1.208,4.242,9.715,4.93,8.912l1.869-4.804,1.209-7.501c1.538,4.136-1.226,8.865-1.094,12.805.195,5.825,4.288,7.124.498,14.796-1.607,3.253-6.035,5.269-6.174,7.756-.062,1.102.685,5.547,1.073,6.756,1.102,3.435,5.686,5.309,6.559,10.952.784,5.073-2.664,7.657-4.807,11.19-2.113,3.485-5.516,10.249-9.372,12.17-2.97,1.479-8.271-.39-11.795,3.594-2.448,2.767-1.142,6.47-1.603,9.681-.371,2.587-2.217,4.969-2.009,7.744l-2.041-.51c5.583-11.511-4.127-20.144,13.014-22.772,1.101-.169,2.175.938,3.379.261.352-.198,5.82-4.724,6.211-5.152.862-.945,5.038-8.318,5.629-9.759.678-1.652,1.732-5.819,1.369-7.5-.264-1.221-3.472-7.544-4.983-5.857-.106,6.638-1.809,19.683-9.177,22.109-5.518,1.817-13.919-1.401-18.563,5.027-3.689,5.107,1.978,9.413,1.989,15.431.004,2.027-1.618,4.963-1.882,7.246-.377,3.256.427,6.888-.263,9.995-.807,3.636-6.247,7.063-8.591,9.952l1.529,9.619c9.122,2.108,2.995,8.233,3.658,14.051.226,1.981,1.859,4.608,2.311,6.832,1.116,5.485.821,13.121,5.384,16.665,1.133-4.346,4.062-8.584,4.921-13.035.441-2.285-.056-4.549.406-6.774.686-3.302,4.649-7.485,4.943-11.55.253-3.502-3.206-4.94-3.168-8.114.111-9.197,8.044-19.166,4.967-28.497-.492-1.492-2.239-1.963-1.799-3.83,6.184,3.336,4.145,11.853,2.602,17.478-.969,3.533-5.418,12.498-4.531,15.654.701,2.493,5.283,5.958,3.982,9.947,3.528-1.845,4.745-6.435,5.914-9.993.771-2.344,1.463-2.308,1.227.2-.255,7.861-5.49,10.426-9.207,15.425-3.694,4.968-2.038,18.088-5.184,24.631l2.11,7.685c1.487-3.12.575-6.507,1.223-9.549.751-3.526,10.448-22.271,13.107-24.848,1.81-1.754,12.261-7.437,12.405-8.275l-1.005-5.918-2.661-1.471c-4.056,1.973-3.7,5.276-5.091,8.028-1.433,2.835-3.052-1.501-2.392-4.444.883-3.94,5.108-4.133,5.803-6.501,1.031-3.511.45-8.216-3.949-8.111l-7.173,6.726c-.507-2.924,1.361-4.873,4.101-5.137l-4.103-2.046,5.627-4.118c2.864-.036,6.243,5.224,8.727,1.558-3.615-2.341-3.025-6.166-4.615-9.737l-8.704-4.623c1.82-2.541,1.813-.72,3.342-.278,1.25.361,2.282,1.174,3.828.788l-2.05-8.198,2.989.067c2.716,5.094,3.439,11.558,5.403,16.668,1.081,2.813,4.936,2.649,4.489-1.351-.255-2.284-.952-4.036-.544-6.652.401-2.572,2.886-4.647,1.985-7.665-2.092.612-10.148-4.936-8.163-7.226l7.172,5.129c.278-2.706-1.069-4.96-1.055-7.671.01-2.047.087-1.645,2.082-1.564.118,3.525,1.848,7.325,2.087,10.752.403,5.795-3.653,12.164,1.51,16.943,2.361-2.686,1.026-6.462,1.718-9.559.324-1.45,1.865-2.682,1.868-4.287.003-1.756-1.956-3.266-2.078-5.174-.147-2.311,1.527-4.695,1.031-8.131-.93-6.432-9.253-7.533-4.901-14.694l3.9-1.241c1.145-3.731-4.206-5.315-4.963-7.848-.924-3.09.807-6.905.38-8.636-.547-2.214-3.165-3.109-3.635-5.554-.658-3.422,3.384.145,4.03-.561l2.131-3.037c.612,1.761-1.105,4.274-.831,5.493.18.803,1.375,1.481,1.664,2.393,1.106,3.483-.98,7.409-.682,8.916.307,1.551,4.323,3.223,3.964,5.761l4.095-5.123c.417,6.336-3.337,9.012-8.206,11.803l.02.987c5.81,4.345,5.326,8.762,5.145,15.44-.071,2.626-1.808,4.576-.028,7.664l4.096-4.097c-.518,2.118-.91,5.005-1.811,6.903-.748,1.575-2.972,3.019-3.17,3.986-.09.44.888,8.287,1.073,8.915.339,1.15,2.018,2.15,1.922,3.743l4.637-1.988c1.081-1.489-4.126-13.791,3.507-12.325l-2.051,5.12,3.072-1.022c.529,1.921-1.464,2.369-1.865,3.773-.643,2.256.284,4.431-1.322,6.884-1.589,2.429-9.434,4.203-8.065,9.278.972,3.603,10.472-1.016,10.228,4.68l-9.228-1.021.505,11.286c-6.743-1.257-.203-11.124-7.688-10.26.889,7.095-.418,10.737-6.204,14.825-5.295,3.741-11.497,2.737-14.845,9.776-2.788,5.861-6.09,17.835-5.657,24.15.915,13.336,3.531,21.173,10.852,32.229,2.928,4.422,7.8,7.79,8.676,13.382,1.679.295,1.149-2.568,1.066-3.629-.807-10.239-.801-13.088,2.486-23.069,1.545-4.69,3.21-5.06,4.845-11.568.754-3.002,3.331-5.623,3.777-9.466.279-2.399-2.06-11.057-3.93-12.31l-8.247-.981c2.409-2.78,8.702-1.887,10.76.521,2.322,2.717,4.044,14.175,3.38,17.723-.624,3.334-3.583,5.201.716,7.756l3.61-2.411v-15.386c0-.364,1.727-2.132,1.019-3.579-5.495-.646-7.533-6.818-12.6-8.435l-6.885-1.318c2.957-4.539,8.342-2.048,12.227.08,2.25,1.233,6.767,6.182,9.238,4.451.641-.449,2.218-6.231,2.213-7.617-.011-2.941-2.488-9.339-2.005-11.071.754-2.706,5.483-6.343,6.021-10.508.473-3.663-1.934-7.781-1.016-11.748l2.876,8.938c2.33,4.39-5.89,11.341-5.763,13.916.265,5.359,3.435,9.547,7.447,3.765,3.174-4.575-.461-5.177-.461-6.62v-18.976c2.177-.085,1.952-.472,2.052,1.527.238,4.732-.359,9.156,1.028,13.859,3.277.176,4.307-4.05,4.17-6.661-.159-3.023-1.408-10.204-2.624-12.837-1.248-2.701-3.195-3.789-4.626-6.14,1.499-1.345,6.604,5.457,6.992,6.852.506,1.82-.038,3.848.375,5.779.371,1.735,2.371,3.515,1.872,5.824l2.03-5.548c-1.646-6.64-3.471-14.883-6.957-20.812-3.162-5.375-12.909-12.684-14.108-17.692-.878-3.666-1.53-8.636,2.611-10.308.156,2.358-1.288,4.149-1.041,6.607.452,4.492,5.949,7.316,9.802,8.513l2.556-3.306c-2.029-5.908-7.475-11.87-8.801-17.915-1.322-6.029.555-12.171-2.278-18.237-2.318-4.963-10.202-5.805-12.089-11.501-.879-2.652-1.413-7.389,2.621-7.235-2.948,6.039.065,9.887,5.434,12.513,3.703,1.811,7.555,1.254,9.734,5.654,1.372,2.77,1.587,7.009,1.284,10.079-.283,2.873-2.159,4.568-2.162,7.129-.003,2.898,2.377,5.686,2.129,8.73l2.108-1.458,1.986-7.774c2.447,4.408-1.449,7.331-.844,11.58.433,3.04,2.267,2.535,3.373,3.799,2.775,3.169.878,8.347,2.045,12.36.8,2.75,3.631,9.705,4.904,12.535,3.447,7.664,10.507,14.286,10.095,23.818-.262,6.071-3.007,21.034-5.169,26.716-.976,2.565-2.657,4.149-3.111,6.629,1.729.337,2.577-.915,3.613-2.025,4.576-4.903,3.403-12.599,6.653-18.487l2.054.524-3.084,8.708c1.956-.466,3.051-3.369,4.619-4.098,1.177-.547,2.077.352,1.527,1.527-1.47,3.143-5.719,6.055-7.646,8.77-1.418,1.998-2,4.912-3.596,6.662-3.204,3.514-10.701,5.312-3.643,11.574,2.455-1.518,11.228-4.829,12.833-1.348.932,2.022-2.353,1.438-3.659,2.48-1.49,1.19-2.421,4.545-4.542,5.72,3.335,1.702,6.433,4.57,7.005,8.456.472,3.21-1.599,6.609-1.898,9.977-.39,4.393,1.239,7.846,1.12,11.298-.073,2.124-2.297,8.206-3.68,9.738-1.423,1.574-3.991,1.538-4.673,2.713-.961,1.653-1.929,6.961-2.018,9.07-.066,1.548-.605,3.023,1.57,2.592,2.78-1.996,3.306-4.934,4.411-7.924.462-1.251,1.13-2.708,2.257-1.303,1.222,6.209,5.569,16.62,1.091,22.11-1.589,1.948-7.825,4.283-8.274,5.263-1.65,3.604-1.308,11.314-2.5,15.763-1.105,4.125-4.801,8.627-5.503,11.935-1.326,6.242.411,10.411-3.065,17.45-.96,1.945-3.638,4.494-4.112,6.147-1.017,3.552-1.374,9.222-2.247,13.139-.333,1.494.074,3.152-2.058,3.584v-14.873c0-1.614,4.062-9.017,4.666-11.738.663-2.987.884-5.699-1.073-8.261-11.886,8.103-7.763,19.39-8.694,31.311-.986,12.637-5.641,19.386-13.365,28.692-2.643,3.185-7.821,9.344-10.775,11.793-10.977,9.103-33.608,9.888-28.218,30.772-7.234-5.66-.591-16.481,4.108-22.054,13.066-15.497,37.57-15.081,34.82-41.987-.161-1.571-.606-5.645-3.01-4.686.127,4.049-2.828,8.728-6.2,10.729-1.419.842-4.072.999-4.887,1.79-.87.845-2.114,5.393-2.814,6.972-.711,1.604.103,2.523-2.517,2.049,1.049-3.161.93-7.37,2.61-10.208,1.933-3.267,6.403-4.603,7.225-9.279.235-1.335-.162-4.99-2.135-4.097-6.565,6.231-13.132,14.748-13.366,24.103-.053,2.127,1.568,5.557.024,7.687-2.752-2.432-1.206-6.549-1.512-9.772-.168-1.77-.965-3.321-1.084-5.068-.749-11.039,3.558-17.676,9.827-26.134,2.87-3.872,6.651-6.924,9.512-12.03,4.997-8.918,3.266-9.701,10.903-17.82,3.122-3.319,6.753-12.377,6.785-16.873.023-3.26-2.407-5.856-2.952-8.395-.555-2.586-2.034-9.031-2.237-11.172-.326-3.435,1.973-5.746,1.947-8.98l-5.537-5.812c-1.397.405-4.476,8.109-4.622,9.828-.206,2.414,1.168,4.123,1.051,6.019-.136,2.194-2.464,4.316-2.908,6.4-.687,3.228.302,6.642-.39,9.867-.34,1.586-3.125,7.335-4.05,9.285-.429.905-1.687,3.658-2.424,3.722-1.979.172-.71-2.893-.587-3.648,1.016-6.195,1.748-13.051,1.03-19.352-.303-2.658-2.982-10.794-4.198-13.24-1.28-2.573-3.217-1.268-5.265-1.917-5.02-1.591-6.046-6.27-9.956-9.017-.368,6.601-4.626,12.386-4.137,18.996.455,6.151,5.055,14.344,5.233,19.481.079,2.286-1.03,4.047-1.129,6.112-.498,10.325-2.615,22.847,1.556,32.353,2.664,6.072,6.976,6.261,3.353,14.609-.39.899-3.453,6.308-4.879,4.862,1.142-2.796,3.082-6.268,1.551-9.243l-15.386-12.292c-5.519,7.329-10.42,15.692-17.996,21.001-2.667,2.03-5.563,6.596-8.17,8.244-1.695,1.072-2.005.082-3.08-1.038,6.762-7.685,11.161-17.146,14.103-26.92,1.651-5.485,2.93-10.337,2.333-16.19-.373-3.656-2.633-6.955-3.058-10.279-1.334-10.429,10.285-14.366,11.261-24.533.345-3.592-1.138-15.593-3.019-18.39-.847-1.259-4.526-.205-5.215-4.2-.02-5.67,1.422-10.639,1.056-16.449-.11-1.741-.923-3.293-1.086-5.068-.334-3.635.595-7.164-1.001-10.8-3.102,2.537-6.194,5.189-10.252,6.151-.042-2.875,2.605-4.699,3.617-7.149,4.699-11.388.686-13.272-.47-23.173-1.198-10.261,7.59-17.57,6.057-27.604-.711-4.654-4.431-9.395-8.172-4.127,3.681,2.692,4.47,7.498,2.885,11.612-3.071,1.712-5.801,1.454-8.953.086-1.358-4.374,3.286-17.816,8.46-17.177,6.478.799,8.207,10.322,7.903,15.786-.376,6.747-3.832,13.124-3.119,19.949,1.127,1.327,1.979.173,2.053-1.521.213-4.872-.245-7.581,2.178-12.194.668-1.27,2.402-2.108,2.783-3.367.967-3.19-.611-5.904-.574-8.233.038-2.386,1.8-9.775.588-11.463-.202-.281-1.694-.472-2.412-1.13-3.364-3.087-4.079-5.721-3.59-10.303-6.483-1.653-13.75,5.56-16.256,10.936-1.271,2.726-1.095,6.896-2.713,8.57-1.277,1.32-3.529,1.182-5.039,2.142-3.651,2.32-3.64,14.483-5.812,18.871-.145.867,1.064,2.454,1.618,2.57,1.09.229,11.596-5.087,14.866-3.085-.281,6.137-.28,11.204,2.109,16.91l-4.834,7.178c1.047,4.657,5.172,6.265,3.746,11.813-4.376.798.018-3.354-1.158-5.019l-3.965-3.185c-.453,3.294,1.33,7.746-1.551,10.252l-.503-6.666c.802-4.155-2.222-2.476-4.16-.907.045,3.746,1.054,7.252-2.515,9.627-1.529-3.148,2.941-6.326.005-9.227-4.898,2.611,0,10.082-5.645,10.25l1.542-7.173c-3.901,1.314-2.031,3.126-3.027,6.207-.481,1.487-2.347,4.287-3.643,2.511l2.047-6.667c-1.951-.293-2.772.761-3.093,2.557-.366,2.047,1.249,4.226-2.032,3.593-1.475-8.77,3.461-7.458,8.586-10.387,2.855-1.632,5.868-4.705,9.376-6.026l1.004,2.065,2.39-1.228c-.813-2.926,4.95-8.778,5.003-9.504.206-2.8-3.35-9.782-1.742-13.893-5.854.444-10.372,4.637-16.447,2.49-2.165,2.76-3.84,6.756-6.116,9.309-3.45,3.868-7.335,3.693-8.158,10.307-.922,7.41.578,10.142-4.743,16.798-2.777,3.474-6.485,4.331-8.13,6.232-1.972,2.279-3.087,9.481-5.897,12.05-1.879,1.718-9.623,4.331-12.421,6.338-.979.702-.879,1.826-1.684,2.644l5.121,1.527c1.649,1.586-4.655,17.746-5.084,21.075-.294,2.28-1.135,9.351-1.057,11.144.114,2.601,2.146,6.587,2.029,9.249-.214,4.855-4.626,4.631-1.446,10.762.809,1.559,2.942,3.551,3.309,4.891,2.441,8.915-6.044,18.609-6.047,27.501-.001,4.248,2.998,14.796,5.021,18.657,2.144,4.093,4.208,7.576,9.425,6.476.312,1.642-.366,2.195-1.735,2.872-4.984,2.466-7.734-1.162-11.596-3.9l-.932,9.569c2.027,3.368,7.876,5.456,5.562,9.939-1.123,2.176-6.706,3.906-1.281,6.373,3.641,1.656,8.572.141,12.524,1.847,12.045.921,13.402-10.491,20.536-10.368,1.703.029,3.131,1.201,4.901.941,7.145-1.046,22.607-6.494,29.184-9.877,3.913-2.013,6.598-10.446,10.016-14.603,2.971-3.613,12.202-10.901,16.451-12.275.516-.167,1.684-.273,1.525.501-8.995,7.139-15.949,15.062-21.543,25.128.656.559,9.952-3.518,12.016-3.879,7.894-1.378,13.009,1.408,18.383,6.826l5.504,2.692c-5.852,5.209-11.389-3.761-16.368-5.165-9.632-2.716-18.288,4.183-27.741,3.638-.371,1.022,2.399,2.047,2.563,2.047h18.467c1.238,0,10.397,3.475,12.104,4.311,1.127.551,2.468,1.593,2.773,2.865-4.036.156-8.176-3.533-11.822-4.074-8.709-1.294-18.331,2.233-26.649-3.091l-8.721,4.088c5.867-1.854,10.716,2.982,15.064,3.917,6.142,1.321,11.997,1.552,18.207,2.312,2.889.353,6.419,1.232,9.254,2.054l1.073-2.123c2.544,1.652,1.978,4.958-1.024,5.192-4.075.317-14.092-4.137-18.98-4.163,2.079,2.756,5.728,4.247,7.663,7.207,1.135,1.736,1.235,3.686,2.106,5.075,1.661,2.649,7.59,3.529,6.643,8.226l-8.246-5.599c-2.391-5.545-5.738-11.533-11.512-14.133-1.793-.808-13.731-4.311-15.852-4.666-3.698-.619-7.751-.073-11.579-1.24l7.156,12.843c2.046,1.037,4.396.091,6.504.677,2.78.773,7.603,5.931,11.669,6.796,3.686.784,9.476-.92,12.366,1.538.294.25.163,1.213.93,1.757,1.218.864,3.916,1.683,5.488,2.038l-.507,2.036c-3.915-1.158-6.672-5.092-10.779-5.117,2.745,3.857,8.027,6.325,12.312,8.21l-1.522,2.998c-6.655-.993-11.424-9.166-16.899-10.746-3.116-.899-5.95-.457-9.289-1.996-4.747-2.188-6.462-7.367-13.332-4.624,1.507,3.732.19,8.085,2.592,11.258,2.817,3.721,8.584,4.349,11.616,8.898.946,1.419,1.735,4.598,2.421,5.275,1.244,1.226,6.477,1.558,5.94,5.34-2.253-1.47-5.823-2.312-7.726-4.066-1.708-1.574-2.329-4.198-4.043-6.215-3.511-4.13-10.895-5.441-11.798-11.797-.299-2.106.055-9.489-.567-10.761-.473-.967-2.066-1.819-2.777-3.336-.926-1.973-.774-4.183-1.943-6.26-2.362-4.195-9.049-2.399-13.505-3.583-3.846.939-5.94,5.857-9.203,7.284-4.692,2.052-16.49,2.46-21.567,1.585-4.933-.85-13.221-6.518-17.655-6.554-3.945-.033-6.991,4.95-9.754,7.292,3.592,2.245,8.416,1.739,12.341,3.043,4.971,1.652,7.978,6.47,11.768,9.775,2.335,2.036,5.63,3.09,7.712,5.624,5.337,6.496,2.609,10.363,12.599,15.098,7.948,3.767,11.078.043,17.596.865,6.276.791,6.759,2.146,14.387,1.976,6.12-.137,13.166,1.294,16.471,7.184,3.267,5.822-5.883,1.995-7.208-.99l.513,6.14-2.043.005c-.521-2.823-2.419-4.189-1.036-7.178-3.082-.136-5.558,1.188-8.74,1.095-2.87-.084-5.176-1.347-8.194-1.151-3.936.257-9.498,1.799-13.515,1.814-1.823.007-8.161-2.062-8.536-1.755l6.092,5.765-2.044,8.063c-.165,2.038,3.623,3.386,3.13,5.137-.284,1.01-1.79,1.977-3.098,1.056-2.434-1.713-.492-6.192-6.131-4.639-.436,2.499.402,4.45.976,6.727.428,1.699,1.833,1.907-.468,3.528l-3.553-10.685c3.217-3.223,8.047-2.828,9.14-8.168-.87-2.134-3.549-2.812-4.793-3.99-.767-.727-.89-2.131-2.349-3.29-2.074-1.647-5.114-1.939-7.118-3.143-3.038-1.826-5.566-8.336-6.752-11.731-.462-1.322-.252-3.459-.614-3.981-.162-.234-3.459-1.055-5.016-2.683-4.458-4.661-5.456-11.187-12.752-13.918-1.55-.58-9.183-2.69-10.467-2.783-6.481-.47-11.42,7.542-17.793,4.885.394,5.399,3.11,9.502,8.773,10.2,4.575.564,6.961-1.083,11.239,2.098,6.387,4.749,11.393,14.015,10.692,21.998-.251,2.861-1.14,6.983-1.989,9.791,5.709-.171,7.684,8.035,11.285,9.771,1.704.821,3.856.127,5.177.979.276.178,3.929,4.872,4.063,5.172,1.394,3.129-4.253-.485-5.107-2.081l-4.126.536,1.033,6.664c-3.505,2.133-5.166-2.679-5.164-5.62l-3.473.071-1.509,1.568c-.853,2.172,1.66,7.374-2.168,6.547l.1-9.128c1.585-.453,5.301-1.346,4.941-3.548-1.888-5.727-8.411-6.016-13.653-5.669l-1.165.88c-.502,5.134-3.375,5.621-6.13,8.232-4.29,4.064-8.677,7.999-11.29,13.333-2.18.43-1.626-1.041-1.57-2.591.065-1.802.125-2.985,1.064-4.579-10.757-.907-19.241,9.246-29.753,9.224l.607-3.119c8.691-1.36,14.861-7.305,22.043-11.673,3.374-2.052,7.129-2.685,10.691-5.723,2.327-1.985,3.372-4.641,5.093-6.191,1.503-1.354,3.81-1.572,5.152-3.055,3.828-4.23,6.947-19.982.535-23.573,1.085,2.176.296,7.455-1.239,9.026-1.73,1.771-10.82,3.484-12.911,5.551-2.372,2.344-2.691,10.179-4.852,13.099-1.614,2.182-6.592,4.825-8.698,7.198-.818-.924,3.96-6.492,4.639-8.179,1.202-2.985,1.03-6.146,3.086-9.224,3.33-4.985,10.687-6.468,15.657-9.473,2.51-2.433.365-14.151-2.067-15.975-1.141-.856-5.565-1.084-7.317-2.218-1.211-.784-1.59-3.853-3.737-4.166.024,2.229-1.997,4.608-1.996,6.667.002,2.901,3.562,7.264,1.794,11.093l-8.007,10.959c-1.562-6.417,1.713-7.873,3.961-11.933,2.685-4.849-.074-6.527.134-10.049.158-2.657,2.674-7.141,3.069-10.352.25-2.032-.328-1.586-2.031-1.515-.894,5.769-5.607,5.236-5.176,11.816.507,7.761-1.316,5.105-2.621,10.744-1.033,4.465,1.461,10.182-4.455,12.907.54,4.046,3.44,6.63,1.979,10.688-1.638.141-.961-2.386-1.583-4.052-.236-.633-1.505-3.318-2.511-3.122-.447,1.758-.793,3.612-1.323,5.351-.325,1.066-.297,3.089-1.756,2.849-.351-4.485.097-10.667,3.357-14.075.553-.578,1.733-.69,2.282-1.262,3.227-3.364,6.271-20.76,5.592-26.08,3.795-1.798,4.858-4.472,5.933-8.365-1.81-1.627-2.488-3.386-3.643-5.309-.493-.821.39-1.723-1.721-1.317-2.376,3.139-10.013,8.373-10.639,12.002-.37,2.144,2.557,10.861,2.863,14.217,1.118,12.262-10.115,15.522-12.85,24.016-.728,2.261,2.082,10.689,1.674,14.937-.171,1.786-3.081,9.642-5.165,7.645,2.852-7.304.198-14.548-2.057-21.534l-8.151,7.806c3.788,4.902,2.996,9.244,3.185,15.113l5.992,5.294c.881,1.955-3.659,2.632-4.613,2.64-1.842.016-6.404-2.101-8.405-2.962-6.094-2.621-11.666-7.062-18.78-6.35.442,2.882,2.558,5.933-.515,8.193-1.922-1.952-1.848-4.331-3.58-6.668-2.757-3.721-9.37-6.938-12.354-11.239-1.024-1.477-1.785-5.6-2.629-5.722-2.526-.475-13.528.86-12.63,4.504,2.439,2.361,3.225,7.261.414,9.894l-1.541-5.125c-2.482-.236-1.668-.13-2.119,1.457-1.061,3.731-.522,4.163-5.059,3.675,1.099-7.651,3.632-17.635,12.314-19.495-6.089-8.679,1.082-30.944,10.963-33.646,6.066-1.659,16.419,2.56,16.731-8.398-8.206,4.167-16.046-4.355-23.119.986.075,8.071-3.688,7.661-8.188,11.303-7.174,5.805-1.008,9.152-1.474,13.842-.156,1.567-2.446,3.871-2.903,6.401-.703,3.894.765,7.441-2.751,10.584-1.491,1.333-4.192,1.705-5.163,3.044-1.559,2.149-2.822,9.39-4.703,12.241-1.449.133-3.656.746-2.98-1.456.581-1.894,2.913-4.975,3.854-7.43.643-1.677,1.183-5.974,1.406-6.287.949-1.337,7.542-1.068,8.081-6.878.208-2.237-.917-3.521-1.038-5.152-.14-1.899,1.227-3.598,1.021-5.985-.328-3.805-3.685-9.459-3.082-13.93l-3.924,1.209c-1.021,3.894-3.577,11.932-6.284,14.74-2.613,2.71-10.179,3.424-12.9,8.656-1.184,2.275,1.073,7.009.507,10.759-1.674,11.095-18.1,11.783-14.883.45.991-3.492,6.438-4.579,9.789-4.013-.259-3.851-.216-7.027,2.048-10.255-1.596-.375-3.223.565-4.617.537-4.517-.091-10.297-1.656-14.364-1.657-3.369,0-6.227,1.456-10.294,1.142-2.087-.161-3.975-1.373-6.09-1.095-3.418.449-5.894,5.806-9.776,5.169-.959-4.783,6.972-9.653,10.798-10.225,4.581-.684,8.61,1.314,12.797-.035-.168-1.319-1.368-1.86-2.559-2.052-5.194-.836-12.489-.338-16.893,2.612-.607.407-8.094,7.407-6.193,3.042.242-.555,5.339-5.558,6.185-6.127,3.691-2.483,13.544-4.247,17.895-3.592,3.082.464,6.632,4.076,8.218,4.094.528.006,8.842-2.879,10.019-3.355,2.004-.811,5.335-3.178,6.168-5.194.665-1.608-.577-3.921,1.005-5.601.46-.488,10.169-5.416,7.957-7.41-10.974-.323-19.985-3.451-25.426,8.717,3.331,3.046,1.976,7.362-2.272,7.688l1.945-3.42-1.954-4.782-7.168,4.103c-3.087-3.597,9.985-7.321,11.07-8.415.799-.806.726-2.983,2.282-4.391,1.368-1.238,6.821-3.304,8.751-3.548,5.156.218,10.181.74,15.356.967,3.206.141,1.012,3.535-.063,5.083-3.985,5.741-10.251,4.987-10.67,12.924l-9.288,7.634c5.077.733,10.531-1.456,14.721-4.253,5.312-3.546,4.563-7.299,7.836-11.654,3.209-4.27,8.994-5.977,11.765-9.778,1.299-1.782,7.076-11.956,5.688-13.287-4.804-1.427-9.022,2.483-12.849,3.051-6.213.921-16.09-1.544-21.265.273-3.854,1.353-6.375,5.767-9.926,6.436-1.701.32-4.155-1.225-6.141-.431-.288,1.46-.976,2.718-1.659,4.024-.34.651-.942,3.869-2.535,2.028-.328-.379,2.804-8.713,3.516-9.301,2.057-1.698,5.113-.525,7.83-1.404,2.165-.7,4.925-3.945,7.11-5.191-1.47-1.066-3.169-3.978-4.771-4.453-1.647-.488-11.359-.486-13.009.002-3.56,1.053-3.422,5.265-4.564,7.746-3.499,7.601-2.351,6.048-3.354,14.084-1.032,8.274-7.719,7.925-11.97,12.138-1.671,1.656-2.686,5.85-4.404,7.392-1.608,1.444-4.97,1.894-6.657,3.593-3.438-2.526,1.812-3.357,3.553-4.645,3.451-2.554,3.24-6.163,5.461-8.388,2.453-2.458,8.652-3.634,10.453-6.474,1.928-3.04,1.702-7.681,1.491-11.166-5.673-2.885-8.013,2.599-12.224,4.539-3.883,1.789-8.147,1.066-11.589,2.774-4.349,2.159-8.665,9.085-14.589,10.023l-1.044-3.086,11.824-8.176c-4.22-.09-7.208,3.46-10.777,5.119l-.509-2.038c3.467.486,5.819-4.368,7.858-4.975,2.636-.783,6.669.16,9.875-.385,5.466-.93,9.439-5.855,12.722-6.769,2.11-.587,4.45.357,6.503-.678,2.856-1.44,4.076-10.28,7.159-12.839-3.792,1.104-7.748.691-11.552,1.268-2.711.411-13.318,3.582-15.869,4.649-1.987.831-6.099,4.111-7.471,5.865-3.907,4.998-2.572,7.583-9.278,12.264-1.188.83-2.484,1.782-4.049,1.589-1.842-1.745,6.926-7.282,7.247-7.835.797-1.374.735-3.248,1.952-5.018,2.068-3.007,6.039-4.788,8.24-7.654l-20.004,4.163c-4.038-1.084-2.598-3.129,0-5.192l1.073,2.123c5.169-2.229,11.121-1.499,16.316-2.174,6.932-.9,13.573-4.645,19.79-5.857,2.141-.417,4.27-.263,6.419-.253l-8.722-4.09c-8.637,5.222-18.751,1.786-27.67,3.097-2.096.308-9.783,4.971-10.797,4.073-.47-2.611.436-1.81,2.049-2.517,2.112-.926,10.404-4.661,11.799-4.661h19.493l1.539-2.047c-8.945.209-15.909-5.147-25.174-4.143-5.541.6-8.758,6.935-14.397,7.209-2.69.131-11.526-2.882-13.752-4.635-.85-.669-8.02-8.715-8.714-9.751-4.354-6.509-1.826-16.045,5.607-9.709-.743,1.233-3.412-1.52-4.089,1.046-.597,2.261.907,4.411,1.849,6.322,1.844,3.739,5.941,11.534,10.128,12.441,2.963.642,6.176-.419,9.093.889,3.237-2.075,7.03-6.376,10.679-7.408,3.149-.891,11.662.533,12.351-2.019.766-2.839-4.821-6.363-6.625-8.748-1.638-2.167-2.742-5.254-4.658-7.652-3.65-4.567-9.927-8.032-11.831-13.815-.859-2.609-.525-5.62-2.062-8.195-3.483-5.832-11.7-13.283-16.292-19.612-6.933-9.557-13.311-23.176-20.661-31.654-2.554-2.946-6.503-2.257-8.192.945-1.537,2.915,4.324,10.467,6.281,13.272,3.552,5.09,7.114,7.953,9.437,14.157,1.392,3.717,1.617,8.2,3.855,11.532,4.245,6.322,13.074,11.251,17.768,18.136,8.05,11.808,6.149,17.794,4.3,30.731-.209,1.464,1.388,6.695-1.59,7.579-4.094,1.214-4.516-10.129-6.657-11.798,1.3-1.774,1.696-.651,2.257.8.701,1.811,1.23,3.6,1.775,5.463.491,1.678-.97,2.963,2.116,2.458.245-4.829.015-9.538-1.836-14.058-1.11-2.712-9.274-14.051-11.484-15.183-2.97-1.521-8.487.33-10.142,3.22-2.353,4.109-2.601,11.635-.902,16.022,6.886,17.782,30.639,19.173,39.162,36.751,2.103,4.337,4.419,12.076-.427,15.304.934-9.42-.675-16.359-9.554-20.712-11.915-5.842-22.909-9.447-31.502-20.817-4.148-5.489-5.153-12.999-8.326-18.344-1.699-2.863-5.078-5.141-6.563-8.825-3.2-7.939.435-18.663-5.768-26.027-1.864-2.213-2.886-2.243-5.395-.55-1.939,1.308-.882,3.602-3.687,2.959-.247-6.422,1.72-10.087-.507-16.417-2.851-8.106-7.825-12.748-7.776-23.071.01-2.04,1.603-3.821.985-5.981-.446-1.561-3.811-3.504-4.887-5.432-2.443-4.378-2.519-11.454.39-15.764l2.667,6.553c.972,2.076,2.987,1.72,5.018,1.65,2.843-11.658-12.509-11.054-12.379-21.031.043-3.285,3.039-5.274-.983-8.179-2.548-1.841-4.672-.77-5.075-5.207-.321-3.539,3.156-15.243,5.251-18.26,2.075-2.989,5.464-3.859,8.049-6.304-.872-1.652-3.292-2.062-4.145-3.253-2.113-2.952-6.661-15.663-7.059-19.378-.977-9.126,4.937-16.872,14.291-13.786.203-.178-.896-1.585-.991-2.593-1.595-16.886.556-22.094,6.635-37.404,1.076-2.708,3.9-6.477,4.42-8.915.854-3.999-.631-8.78.65-12.685.754-2.298,3.502-4.072,4.883-6.401,1.167-1.969,4.112-9.46,3.764-11.284-.245-1.286-1.611-2.472-1.898-4.332-.522-3.383-.213-12.232,2.236-14.641,1.167-1.148,7.094-2.061,9.406-3.422,4.399-2.588,7.125-7.283,4.753-12.171,2.876-.792,3.307,3.694,2.931,5.424-.383,1.76-2.537,5.116-3.918,6.408-4.612,4.315-9.073,2.218-10.247,11.296-1.088,8.418.972,12.297-3.727,20.891-2.543,4.653-9.57,9.336-3.012,14.26,8.03-3.124,11.044-6.35,8.743-15.203,9.357,9.41-3.486,17.121-8.75,23.567-6.601,8.082-12.482,24.949-7.665,34.898,6.914-4.824-1.715-15.551,7.059-20.097l4.216-7.594c1.439,4.81-5.355,9.812-5.978,11.961-1.621,5.596.832,7.707.823,11.139-.004,1.636-1.708,3.159-2.001,5.128-1.074,7.212,7.654,15.118,10.451,22.331.948,2.446,1.604,5.29,1.845,7.905,5.365-3.908,8.944-5.191,8.136-12.752-.249-2.33-1.883-5.239-1.971-7.336-.074-1.762,1.003-3.275,1.047-5.014.119-4.743.942-12.083-3.108-14.901-.247,4.907-3.292,7.75-3.147,12.849.213,7.511,4.452,12.043,5.189,18.948-4.809-2.578-4.953-9.245-6.386-13.612-.914-2.785-3.274-4.394-2.86-8.384.279-2.686,2.981-4.282,3.145-6.236.132-1.569-1.013-3.289-1.11-5.073-.165-3.052-.362-8.296.231-11.116,1.293-6.148,12.727-17.898,13.97-23.985.36-1.762,1.206-11.739.736-12.64-1.648-3.163-4.59-1.941-3.588-8.678.833-5.599,9.481-11.034,8.756-13.926-.31-1.235-2.63-4.161-2.63-4.563v-22.053ZM242.12,9.263c-8.724,1.108-15.968-4.284-22.21,3.946l-15.748,8.353c6.116-.365,12.042-1.894,18.021-3.003,5.509-1.022,6.473-.085,12.09-3.298,2.238-1.281,5.919-4.139,7.847-5.998ZM340.423,20.728c-.466-.43-2.001-.254-2.861-.681-4.199-2.086-17.941-11.181-20.242-11.678-2.265-.489-3.849.835-5.917.923-3.244.138-6.535-.168-9.774-.029l10.74,7.205c5.6,4.355,9.785,2.86,15.337,3.055,2.422.085,13.377,4.562,13.933,4.09-.46-.71-.962-2.651-1.216-2.885ZM254.225,15.601c-3.871-3.904-14.951-2.151-18.251,2.375,6.178,4.066,13.881,7.922,19.031.52.346-.588-.412-2.525-.78-2.896ZM112.844,202.09c-.5-2.305,1.504-4.095,1.868-5.828.49-2.336-.131-4.701.254-6.926,1.549-8.95,6.183-13.95,10.032-21.77l-3.735-7.156c3.049-7.575.481-10.948-1.004-17.525-1.825-8.08-.646-12.057,2.649-19.46,1.201-2.699,8.439-12.197,3.694-13.58-3.378.174-8.889,1.648-11.666,3.559-2.688,1.85-3.899,5.501-6.693,7.668-1.622,1.258-3.97,1.768-5.129,3.078-4.747,5.369-4.813,15.099-3.344,21.781,2.025,9.213,8.162,13.942,5.71,24.69-.682,2.99-3.974,5.737-3.988,10.455-.008,2.792,2.449,4.78,2.128,7.679l5.632-11.286c4.049-9.823,7.273-18.725,2.437-29.094-1.613-3.459-5.207-6.978-4.823-11.2.298-3.275,3.617-4.458,6.367-2.66,3.416,2.233.754,4.072.711,6.561-.037,2.179,2.592,7.257,2.939,10.312.996,8.776.772,18.253-1.944,26.639-1.981,6.115-6.588,11.488-4.948,18.207l2.852,5.855ZM441.153,188.756c-.407-2.619,1.988-5.446,1.979-7.676-.016-3.909-3.201-7.529-3.831-10.466-2.5-11.657,4.753-16.547,5.893-26.543.559-4.909.822-15.202-2.513-18.891-1.545-1.709-5.665-2.81-7.623-4.687-1.712-1.641-2.5-4.411-4.216-6.042-3.089-2.936-10.045-4.839-14.306-4.673-.406,8.416,7.398,14.738,8.236,23.049.256,2.54.178,6.518-.251,9.038-.468,2.743-3.43,6.79-3.493,8.397-.069,1.763,1.563,4.322,1.563,6.183,0,3.921-3.267,8.017-2.8,11.047.84,5.44,8.115,11.639,9.004,18.753.327,2.617-.345,5.407.24,7.965.608,2.656,3.033,5.176,1.869,8.907.975,1.187,3.719-6.723,3.908-7.922,1.241-7.906-8.518-20.162-8.089-29.507,1.452-8.585,2.759-17.252,5.218-25.708.07-2.677-4.747-1.331-2.971-7.007,1.145-3.66,6.329-1.777,7.026,2.992,1.454,9.957-3.733,11.955-5.912,19.659-.986,3.485.925,10.337,2.079,13.921l8.991,19.21ZM86.171,189.786c-1.422-1.377-6.27,6.102-9.725,6.11-5.239.013-13.715-10.029-20.905-6.986-2.936,4.63-4.02,7.83-2.998,13.47.867,4.782,5.941,9.099,6.757,13.796.51,2.941-1.118,5.266-.702,6.738.555,1.959,8.262,8.932,3.463,10.973l-6.231-9.176c-1.196-2.321.461-4.379.642-6.708.416-5.367-2.425-6.828-4.352-11.098-1.157-2.562-2.09-5.75-2.818-8.49-.43-1.62.351-1.679-2.112-1.456.397,2.649-1.313,5.022-1.048,7.638.257,2.533,3.059,5.753,3.886,8.496,1.225,4.062.287,5.624.198,8.986-.166,6.299,4.702,10.575,5.174,16.939,3.002-.957,5.9-2,8.968-2.826,3.492-.94,5.723-.015,9.007-3.305,3.909-3.916,2.084-8.29.802-13.159-.414-1.571-.304-3.24-1.855-4.3-2.527,4.952-3.618,10.817-3.593,16.409-3.058-1.224-2.441-8.843-1.852-11.601.444-2.079,2.492-3.912,2.855-6.377,1.189-8.084-3.213-16.68,9.779-8.703,2.73-2.292,1.992-6.302,3.024-9.268.876-2.517,3.695-3.407,3.638-6.102ZM148.501,227.492c.699-.766,1.017-2.298,1.248-3.349-.01-1.178-1.073-3.397-2.027-4.091-1.459-1.062-16.477-4.405-17.431-3.595l5.095,13.889,6.592,2.469c1.352-2.158,5.337-4.021,6.524-5.322ZM413.454,216.455c-3.743-1.129-6.174,1.188-8.911,1.857-5.074,1.239-11.395.187-9.08,8.442l7.223,7.134c.466.307.63-2.118,2.207-2.942,1.382-.722,3.023-.47,4.484-.588l4.077-13.903ZM80.018,291.325c7.216-.434,5.739-3.832,7.685-8.211.859-1.934,3.032-4.56,3.406-5.819.829-2.791-1.387-16.273-2.112-20.072-.581-3.044-4.329-18.778-5.853-19.786-2.673-1.768-10.018,2.101-13.071,3.434-7.269,3.174-15.448,7.202-20.831,13.022l17.662-9.011c10.996-3.583,13.709-2.878,16.956,8.244,2.656,9.099,5.426,22.524,1.078,31.325-1.148,2.325-4.271,3.934-4.919,6.873ZM15.592,265.473c2.285,1.39,7.784,2.606,8.062-1.325.131-1.85-3.203-14.415-4.304-16.274-1.396-2.356-3.557-4.27-6.479-3.767-5.219,8.295-.877,13.78,2.722,21.366ZM52.994,262.703c-1.194.328-4.489,5.08-5.009,6.346-2.012,4.904-.333,16.377,1.517,21.506.631,1.75,1.095,3.783,3.336,3.915,13.67-2.061,9.489-8.233,7.757-18.082-.287-1.634.16-3.405-.119-5.01-.591-3.402-3.045-9.896-7.482-8.675ZM45.135,286.714c-.856-4.881.624-11.774,0-16.924-1.9,1.178-5.036,5.736-5.155,7.742-.098,1.653.993,3.272,1.085,5.05.346,6.672-.768,21.663,9.716,20.046,2.288-.353,5.28-4.204,6.665-6.165-3.982.114-7.449.771-9.701-3.127-.425-.735-2.501-5.999-2.61-6.622ZM18.459,277.99c-.775-2.572-4.151-2.6-6.181-1.554-3.824,4.559-10.294,15.346-2.032,17.972,2.013-6.245-.386-15.408,8.213-16.418ZM439.102,279.017c-3.263-1.018-2.164,4.637-1.981,6.605,1.206,12.962,2.036,14.307-.375,27.481-.278,1.516-1.385,2.849.829,3.865,1.776.815,2.52-3.178,2.859-4.312,3.539-11.844.334-21.838-1.331-33.639ZM527.339,309.793c7.775-4.476,2.393-11.895,1.996-17.948-.131-1.997.668-3.698.634-5.143-.077-3.196-3.823-7.558-4.684-4.079-.479,1.937,2.055,6.009,2.055,7.168v20.001ZM48.218,304.669c-5.073.101-8.601-6.36-9.187-10.826-.508-3.868.629-8.138-1.588-11.742-1.732,1.822-2.409,4.785-3.094,7.164-2.539,8.812-5.075,21.104,1.04,28.725,1.661-2.631,6.805-3.846,8.478-5.367,1.005-.914,2.464-4.385,4.253-5.487l.098-2.466ZM19.486,283.129l-3.118.604c-.62,4.577-3.53,10.684-2.845,15.06.483,3.086,3.086,6.523,2.891,9.972,1.931.188.928-2.193.77-3.335-.85-6.153-.607-10.297.499-16.416.36-1.993,1.018-4.026,1.804-5.884ZM493.48,288.255c-2.545-.622-2.223,1.227-2.561,3.052-.388,2.098-.808,4.015-.512,6.175,3.036.486,1.659-.699,2.125-2.448.609-2.285,1.289-4.341.948-6.779ZM504.255,292.365c-2.002.022-6.367,15.394-7.498,18.137-1.999,4.849-5.604,5.52.317,10.564,7.053-9.478,15.535-16.422,7.182-28.701ZM457.578,303.641c-1.03,5.186,2.646,7.19,4.572,10.295,2.474,3.989,3.24,8.135,8.251,10.205,2.574-1.588-.085-4.473-.647-6.525l-12.177-13.975ZM96.426,332.359c1.33-4.409,1.321-9.26,1.063-13.877-.086-1.536-.845-2.807-.991-4.138-.32-2.915,1.181-7.303-2.112-8.653-.362,3.056-1.323,5.505-1.064,8.743.259,3.245,2.192,5.735,2.17,9.212-.016,2.52-1.158,4.593-1.144,7.154.011,2.042.081,1.649,2.078,1.56ZM128.238,319.02c10.558,3.608,14.387-1.594,19.481-9.743-7.104-4.873-15.156-1.974-22.555.522.328,2.095,4.317,1.352,5.035,3.696.931,3.038-2.327,5.234-1.96,5.525ZM200.056,324.148c-3.041-5.662-5.621-9.206-12.606-7.974-6.006,1.059-10.336,5.941-14.069,10.544-2.763,3.408-6.923,9.806-2.058,12.82,1.649-9.651,8.845-21.044,19.982-19.463,3.398.482,5.557,3.553,8.751,4.073ZM67.702,344.667c-1.061-3.069-1.603-7.132-2.85-9.968-.38-.865-5.416-9.055-5.853-9.531-1.954-2.125-3.366-.182-5.655.016l14.358,19.483ZM350.868,334.408l2.052-9.229c-2.975,1.177-2.901,2.933-3.11,5.608-.083,1.062-.622,3.916,1.058,3.621ZM503.742,333.897c.573,4.786,0,11.353,0,16.411,0,3.083-6.77,18.008-9.206,20.542-3.234,3.364-7.009,3.657-7.215,10.224.333,1.278,2.281-1.144,2.597-1.507,9.452-10.878,18.154-27.881,16.944-42.635-.341-4.156-2.121-5.891-3.128-9.704l-2.043.005c-.267.224,1.932,5.664,2.052,6.662ZM328.293,333.384c-2.983-.856-2.295,2.589-1.985,4.558.77,4.884,5.023,8.642,5.875,13.614.386,2.253-.55,12.724,1.76,12.589l2.606-1.646c.778-10.507-5.127-19.523-8.257-29.116ZM178.513,338.513c-1.805,6.799-.995,13.54,7.661,12.274,7.144-1.044,6.939-10.896,6.695-16.377-3.148,2.41-3.553,5.971-8.148,6.713-2.595.419-3.679-2.899-6.208-2.61ZM347.8,368.259c4.734-2.792.372-8.772-.034-12.792-.572-5.673.374-11.374,1.05-16.951-1.434-.242-1.41,1.739-1.781,2.824-2.936,8.598-1.136,18.297.764,26.919ZM176.464,351.847c-.277,8.305,1.724,17.228,12.033,12.548,2.02-.917,7.287-6.323,8.018-8.397,1.896-5.382.976-10.105-.568-15.431-1.443-.242-1.394,1.731-1.784,2.818-1.05,2.925-1.423,6.361-3.982,8.332-3.958,3.049-9.699,2.973-13.717.129ZM210.297,403.132c.348-4.058,1.821-8.835,2.097-12.787.905-12.951-6.389-31.814-11.815-43.646-.458-.998-.136-2.324-1.544-2.029,1.446,11.667-5.167,25.72-18.475,24.617-2.526,2.349,11.031,28.498,15.908,30.767,1.371-.681.096-2.799-.302-3.801-2.704-6.808-8.887-11.831-7.393-19.786l7.183,8.762c3.886.291,7.789-1.668,11.331,1.957,4.961,5.079-1.202,14.807-.046,15.944h3.057ZM47.182,409.285c.121-5.643,2.399-13.022.578-18.521-1.447-4.37-8.84-10.103-11.859-13.786-3.724-4.543-6.65-9.781-10.074-14.545l-5.31-13.66c.36,16.616,16.572,29.245,22.763,43.395,2.51,5.738,1.254,8.815,2.084,14.331.125.833.543,3.087,1.819,2.787ZM87.189,352.874l-2.049.519c-.303,4.12,7.974,16.339,10.849,19.926,3.234,4.036,6.642,6.929,11.725,8.274l-13.765-16.492-6.76-12.227ZM436.023,378.514c-.111-4.266.159-8.576.037-12.849-.04-1.393-1.073-2.97-.884-3.936.248-1.269,2.472-1.783,1.873-3.727l-4.931,6.824,3.905,13.688ZM141.576,373.395c-3.02-1.186-6.204-.797-9.291-1.489-5.85-1.312-9.35-6.577-16.356-4.668l6.121,3.618,19.521,4.583.005-2.044ZM335.483,367.238c-4.271-1.09-3.489,3.1-4.922,5.846-.984,1.885-4.252,5.31-4.294,6.926-.045,1.747,1.706,5.076,1.965,7.294.38,3.265-.412,6.849.265,9.993.763,3.547,4.851,8.329,3.914,13.014,1.361.162,1.896-3.811,1.98-4.681,1.041-10.792-2.32-13.141-3.815-21.689-1.239-7.081,2.031-10.734,4.908-16.703ZM220.573,386.724c-1.137-1.341-1.977-.172-2.046,1.527-.348,8.611-2.259,16.681-8.211,23.084,3.149.323,4.441-.079,5.93-2.786,3.432-6.242,4.799-14.795,4.328-21.824ZM170.128,393.711l-1.612.913,3.512,6.193,1.612-.913-3.512-6.193ZM215.218,450.546l6.902,9,2.47-1.624-.381-4.575c-1.308-1.43-4.081-1.538-5.168-3.036-1.238-1.707-.817-4.774-2.583-6.649-3.119-3.314-10.851-4.869-13.789-9.806-3.476-5.842.385-19.969-11.704-18.259l-2.179,5.444c.662,2.401,8.665,1.163,10.05,7.414,1.148,5.18-1.3,9.42-.876,14.203.303,3.418,3.041,5.919,2.099,9.706.51.537,6.854-2.906,8.802-3.073,1.301-.111,5.515.609,6.358,1.254ZM350.622,451.114c.437-.456,1.198-2.218.824-2.856-1.696-2.026-5.628-4.575-6.25-7.093-.391-1.582,1.43-4.495.359-6.557l-5.962-7.881c3.024,10.86-7.531,10.84-13.37,16.894l-10.233,14.376,4.615,3.364c4.693-2.033,7.308-5.001,10.802-8.502,1.229-1.231.782-2.984,3.778-3.406,4.695-.66,9.615,7.733,15.438,1.661ZM257.508,504.677c1.833-1.783-5.794-8.363-6.173-10.763-.802-5.081,3.445-6.957,4.094-11.315.554-3.727.051-8.351-1.507-11.766-2.962,2.159-3.367,5.465-4.75,8.585-.705,1.591-2.421,3.274-2.756,4.425-.756,2.593.435,15.774,2.113,17.516,1.151,1.194,7.772,4.493,8.98,3.318Z" fill="#fff"/>
        <path d="M315.99,343.129l3.075-3.588c-1.552,8.141,2.65,16.495,2.106,24.165-.159,2.242-4.733,2.544-4.829,6.077-.059,2.178,3.983,9.693,4.532,13.595,1.063,7.545-.886,15.812-4.689,22.339,3.203,3.846,7.111,5.565,7.069,11.271-.041,5.513-4.444,19.893-10.319,21.635-1.581.468-2.803-.622-4.398-.444-5.794.644-6.397,3.921-9.429,7.057-1.284,1.329-3.16,1.933-4.129,3.053-1.219,1.409-2.892,5.223-3.624,7.157-2.878.837-2.394-2.168-1.85-4.424.409-1.698,5.603-9.833,6.993-11.471,2.123-2.502,6.793-5.709,9.937-6.477,1.941-.474,5.65.609,6.356-1.849,1.835-6.392-1.368-12.759-8.597-11.699-3.888.571-6.352,9.976-9.286,13.306-4.517,5.126-14.892,7.986-21.536,7.266-2.054-.223-22.127-7.232-24.419-8.407-6.289-3.226-8.82-8.589-12.476-14.187-5.526,3.816-9.813,7.125-7.533,14.702.537,1.784,4.539,3.954,3.937,6.829-1.204-.972-4.156-1.508-4.913-2.264-.425-.425-3.671-7.574-4.058-8.764-2.972-9.13-.856-16.552,7.82-20.889.755-1.061-3.584-13.733-3.901-16.877-.511-5.074.722-11.417-.271-16.141-.693-3.296-4.407-6.117-4.905-9.456-.785-5.265-.828-14.61,4.072-17.923.493,3.645-3.239,6.172-3.064,9.653.214,4.246,3.512,10.588,7.168,12.913,1.18-9.651,3.26-20.465,2.003-30.205-.659-5.106-4.854-11.713-5.857-17.736-.437-2.621.222-5.661-.407-7.799-.197-.67-7.115-8.864-8.599-10.892-1.91-2.611-4.287-2.886-4.628-6.655-.107-1.181-.344-3.886.562-4.665,1.974,1.538,1.592,4.362,3.095,6.137.848,1.002,7.038,5.347,8.11,5.109,4.91-4.981,3.96-8.68,1.147-14.363-3.275-6.616-10.148-12.763-14.909-18.425,2.744,11.286-8.034,13.426-11.276,22.053,2.081,8.408,13.01,12.448,11.269,22.05-4.157.582-5.726-4.185-8.851-6.019-2.02-1.186-4.415-1.323-6.498-2.735-5.521-3.741-3.648-9.885-4.112-15.373-.725-8.563-3.79-4.575-6.714-7.653-1.697-1.787-1.409-5.854-2.741-8.029l-7.368-3.215-.643-4.155,1.145,2.938,7.055,2.186c.665-.664-3.548-7.085,1.024-6.156l3.011,13.742c15.421,3.03-1.471,23.963,16.487,25.235-8.418-7.549-5.453-15.519.995-23.128,1.435-1.693,3.289-.824,3.907-4.242,1.158-6.402-1.53-12.377-.803-18.783-9.738,4.015-8.732-1.535-12.439-6.534-5.174-6.977-6.745,7.195-8.515,8.658-5.305,4.384-22.178-5.537-19.883-15.775,1.955-8.723,8.16-8.434,15.207-6.365,3.033.89,11.427,3.496,13.703,4.763,3.165,1.761,5.711,6.561,5.777,10.129,13.949-4.783,12.565,7.739,17.996,15.338,5.408,7.567,17.073,12.099,14.836,23.632,2.477.624,1.665-.557,2.27-1.33,4.26-5.443,9.695-7.82,7.992-16.105,2.915.955,2.435,5.705,1.592,8.265-1.339,4.064-6.079,5.435-8.239,8.173-3.892,4.932-6.472,17.845.999,20.548,6.629-2.231,2.704-9.6,1.545-14.42,3.743,1.653,5.593,9.078,5.121,12.777-.684,5.364-11.829,13.978-.49,18.846l8.697-9.058-8.203,19.484,5.955-1.223c1.126-1.848,1.328-5.542,2.744-6.999,2.034-2.094,5.809-.918,6.66-6.675.995-6.728-.18-10.26-6.175-13.429-.305-3.844.59-8.45.027-12.163-.326-2.148-1.838-3.465-2.075-6.14-.435-4.924,2.136-10.657,1.073-15.932,3.158-.492,1.63.808,2.024,2.558,1.106,4.911.897,8.986,1.522,13.892,2.027,2.016,5.535,2.281,7.693,3.592,2.27,1.379,3.653,4.063,5.345,5.939.916,1.016.934,2.183,2.906,1.706-2.851-3.14.745-6.047.738-7.688-.004-.889-1.337-2.074-1.574-3.27-.805-4.045.456-7.068-4.358-9.188l-3.011-8.567c2.098-.365,2.505.904,3.144,2.493,1.223,3.039,1.393,6.845,5.569,7.767,1.569.04-1.236-9.662,2.565-10.262-.361,3.721.539,8.183-.017,11.774-.288,1.861-1.661,3.055-1.899,4.333-.317,1.708,1.072,3.727.976,5.936-.157,3.599-2.718,5.391.932,9.254,3.624,3.836,3.104-.631,4.77-1.616,1.186-.701,2.981-.632,4.293-1.142,1.855-3.058.922-6.341,1.171-9.596.228-2.989,2.103-4.759.059-8.033-.459-.735-1.541-.535-2.093-1.324-1.583-2.259-2.342-5.809-2.029-8.558,2.607-.467,1.813.431,2.517,2.048,1.009,2.315,1.27,6.386,4.66,6.153l.005-10.259,3.073.006c-.621,3.965-1.27,8.006-1.722,11.999-.55,4.869-1.925,5.307-2.377,8.002-.494,2.945.932,9.47-1.237,11.589-.749.732-2.924.77-3.921,1.715-2.345,2.223.679,11.065,1.029,14.48.494,4.82-7.024,17.86-12.361,11.259-3.888-4.809,1.254-12.268,7.197-11.922,2.059-8.96-5.998-10.464-10.217-15.826-1.633-2.075-2.966-5.185-4.231-7.561l-7.48-1.128c-2.606.518-1.498,8.372-1.483,10.597.584,1.926,4.072,2.081,5.506,3.727,4.589,5.264,3.324,22.595-6.566,20.598-.803,2.245-1.245,5.144-2.675,7.073-3.073,4.148-7.327,2.376-8.718,9.753-.353,1.874-.544,1.392,1.021,1.029,13.789-3.195,3.644,8.573,3.097,14.874,4.762-1.626,10.713.047,11.298,5.701.523,5.048-5.349,12.694-6.121,18.456-2.136,15.959,8.14,25.809,23.99,23.984,9.158-1.054,15.16-9.159,15.952-17.978.948-10.565-14.369-19.583-17.644-29.426-5.157-15.502,6.061-34.084,23.82-28.434l-7.177-17.432c3.394,1.12,5.554,9.719,9.28,8.782,9.694-5.258-.242-12.852-1.053-18.558-.606-4.262.81-10.897,5.101-12.79l-3.129,9.729c2.537,6.656,7.74,5.246,9.093-1.203.64-3.053-.154-7.705-1.317-10.602-3.099-7.718-14.342-9.5-10.793-19.461l2.185,6.527,11.143,12.957c.115-14.571,20.46-22.047,22.413-34.601.232-1.49.342-2.727-.853-3.872l2.04-.499c2.789,17.159-18.712,24.305-20.487,40.579-.192,1.761-.164,6.771,2.534,6.658,5.127-.215,7.759-6.879,12.824-7.233.411,1.901-1.037,2.435-2.05,3.587-3.139,3.569-7.557,7.414-10.106,11.437-4.22,6.664-8.02,29.886-7.362,37.824.254,3.068,1.309,11.827,5.156,11.77v-17.95ZM303.674,375.436c-.254-4.54.357-9.376.035-13.875-.171-2.392-.717-6.806-1.123-9.134-1.525-8.747-5.818-11.949-14.752-10.78-8.212,1.074-13.767,12.205-12.833,19.888.893,7.351,7.915,13.056,12.779,18.004,1.215-1.752-1.198-3.524-1.514-5.662-1.312-8.872,7.393-12.205,13.348-6.169l4.062,7.728ZM248.274,353.901c-2.394-2.425-6.265,5.573-6.713,7.131-.972,3.377-.286,6.883-.462,10.301l3.64-5.072c-.71-2.328,3.988-11.901,3.535-12.36ZM247.245,395.951c.559-3.543,1.093-7.126,2.291-10.534,1.488-4.232,6.531-10.114,6.948-13.608.668-5.594-6.079-7.842-9.097-2.901-4.005,6.558-4.056,17.018-1.898,24.193.32,1.065.301,3.091,1.755,2.849ZM296.282,367.453c-1.041-1.047-4.534-1.755-5.961-.758-5.658,5.269,1.053,10.972,3.528,16.007,2.31,4.699,2.504,6.556,2.644,11.72.034,1.24-.761,3.822,1.023,3.58,1.506-5.447,3.551-11.216,3.105-16.949-.19-2.445-2.883-12.135-4.339-13.6Z" fill="#fff"/>
        <path d="M420.354,320.792c-4.154,4.377-4.079,4.685-7.454,9.472-7.23,10.254-23.936,8.746-30.426,18.816-1.129,1.752-3.584,5.978-2.365,7.893,4.117-3.491,8.958-2.789,13.846-4.62,5.187-1.942,11.038-5.793,14.383-10.238,2.488-3.306,2.406-6.687,6.436-8.951,1.04-.584,4.736-2.282,5.861-1.32-4.046,2.592-7.451,5.738-8.201,10.772,4.271-3.488,8.209-7.18,13.899-8.154,1.021-.175,3.816-.771,3.534.969-4.577.722-8.5,2.963-11.294,6.661-6.423,8.5-5.038,18.604-17.173,22.834-5.339,1.861-19.091,3.758-22.286,7.466-3.085,3.579-.636,6.85-.495,10.693.221,5.978.345,12.233-1.069,17.998.34.397,8.481-4.96,8.942-5.416,3.954-3.909,3.247-11.518,10.522-17.687,7.818-6.629,15.927-6.753,23.134-15.849,3.465-4.373,4.654-10.064,8.189-14.381,2.577-.435,1.011,1.261.5,2.553-.923,2.332-1.803,5.244-2.873,7.385-1.881,3.763-4.738,6.282-6.358,10.055l7.184-.506-1.084,6.649,3.021,5.976c-2.99,4.115-3.592,8.868-6.624,12.944-5.314,7.145-15.007,12.371-12.755,22.635-6.574-.297.088-14.033-5.767-15.294-2.487,1.106-5.65,1.857-7.95,3.119-3.766,2.066-13.14,8.641-16.064,11.635-1.321,1.352-5.18,6.981-5.657,8.704-.74,2.675-.19,4.984-.684,7.522-.713,3.667-3.114,7.755-3.894,11.534.453,3.179,3.476,3.456,5.931,4.34,1.659.597,2.774-.594,2.28,2.289-6.455.323-12.892-1.06-12.349-8.735.239-3.372,2.394-6.409,2.901-9.43.747-4.453-.192-9.305,2.269-13.625-.69-.605-14.779,6.149-16.413,1.527-.932-2.637,4.419-2.288,5.669-3.554,1.517-1.536,4.381-9.396,4.617-11.796.532-5.422.154-17.049-1.505-22.145-.567-1.742-2.651-2.82-2.646-4.552l1.759-.757,2.309-5.279c-5.142-3.825-3.349-7.5-4.069-12.409-.307-2.094-1.771-3.448-2.072-6.131-.731-6.514,1.07-15.377,5.171-20.554,1.96-2.474,5.487-4.682,7.045-7.317,1.371-2.318,1.479-5.411,2.738-7.52.832-1.392,2.465-2.067,3.342-3.839,1.166-2.356.964-5.733,2.366-7.891.55-.847,7.664-6.458,8.629-6.761.521-.164,1.683-.274,1.525.501-1.781,2.423-6.707,5.377-7.187,8.2-.76,4.475,1.178,9.908-1.03,14.357l2.053.523c.575-2.663,2.559-4.582,3.609-7.171,2.666-6.574,1.703-8.213,8.202-13.34,6.602-5.208,10.09-4.047,17.37-5.2,3.946-.625,10.309-3.278,13.929-1.475,1.426.71,4.031,4.297,3.891,5.975-.139,1.665-3.716,9.552-4.728,11.666-1.029,2.146-3.132,6.705-4.586,8.237ZM411.402,326.207c-4.357,2.241-10.668.217-12.834-4.092-.922-1.834.057-3.835-1.011-5.139-2.633,3.097-5.663,9.668-4.455,13.682,1.354,2.224,4.554,5.154,7.315,4.641,1.781-.331,13.011-7.235,10.986-9.092ZM396.016,337.481c-.11-3.478-4.131-2.956-4.955-6.867-.698-3.313,1.657-5.642.34-8.509-8.311,7.701-15.777,16.531-13.848,28.715l10.309-9.688,8.154-3.65ZM365.232,368.259c-.113-1.863.209-3.815.035-5.672-.697-7.436-3.47-12.296-.226-19.654,1.32-2.994,3.947-5.259,4.295-8.523-4.03,2.019-7.734,9.659-8.174,13.918-.303,2.933.861,4.608,1.026,7.079.29,4.339-1.529,10.272,3.044,12.851ZM424.742,369.289c-1.094-.939-8.359,3.054-9.941,3.904-6.253,3.362-14.671,8.116-17.76,14.549l12.634-8.392,13.068-5.398,1.999-4.664ZM364.215,411.339c1.273-.304,2.314-1.646,2.862-2.775,3.702-7.633,1.343-19.152.202-27.474-.243-1.775.593-3.288-1.53-4.615-2.017,1.428-1.683,3.524-1.588,5.675.291,6.585,2.819,13.803,2.129,20.502-.324,3.143-2.144,5.559-2.074,8.689Z" fill="#fff"/>
        <path d="M162.1,442.11l2.621-7.232c-5.163-7.181-8.416-15.918-15.604-21.362-5.476-1.014-5.278,3.575-6.256,7.622,5.332,3.583,10.153,10.189,6.719,16.656-1.368.701-2.38,1.283-3.902.813-8.005-2.473-12.732-5.974-8.458-14.7,1.031-2.104,2.792-1.974,3.393-2.972,1.433-2.379.765-7.339,4.044-9.075,5.858-3.101,11.024,1.523,14.208,6.298,1.352,2.028,8.269,14.761,8.388,16.31.229,2.986-2.609,6.308-5.153,7.641Z" fill="#fff"/>
        <path d="M400.991,422.476c.568-2.764.254-5.72-1.369-8.073-1.629-1.79-3.356-1.242-5.195-.033-6.511,4.28-9.592,14.407-14.702,20.248l2.948,5.961c.396,1.969-.793,2.044-2.068,1.04-3.891-3.065-3.31-7.801-1.528-11.827,2.247-5.078,7.815-14.308,12.281-17.461,2.619-1.848,6.771-2.046,9.347-.037,1.96,1.528,1.141,4.012,2.006,6.198,1.189,3.003,4.994,4.93,5.582,8.772.364,2.377.53,6.143-1.446,7.725-3.535,1.073-9.622,6.213-12.413,2.035-2.535-3.795,1.69-13.563,6.557-14.547Z" fill="#fff"/>
        <path d="M379.274,473.07c1.584-.366,3.172-.367,4.757,0,5.858,1.355,13.937,11.81,5.106,13.963-4.766,1.162-14.377,1.371-18.308-1.789-4.99-4.012,4.626-11.291,8.445-12.173Z" fill="#fff"/>
        <path d="M368.025,240.264c4.79-.801,5.79.809,6.384,5.478.713,5.61-.478,10.77-5.72,13.653-13.962,7.681-13.979-16.905-.664-19.131Z" fill="#fff"/>
        <path d="M192.615,507.514c-2.81,3.025-7.105,1.596-7.011,8.969.045,3.551,3.152,6.97-2.959,6.642-3.701-8.408-3.936-14.371,4.121-19.933,5.268-3.637,8.911,1.026,5.849,4.322Z" fill="#fff"/>
        <path d="M453.058,418.616c8.263-2.506,3.508,11.512-3.371,13.044-2.406.536-11.298.806-8.064-3.958,1.984-1.998,5.805-1.872,7.735-3.549,1.578-1.371,1.894-4.989,3.7-5.537Z" fill="#fff"/>
        <path d="M280.817,381.883c1.552,1.514,4.673,6.715,4.912,8.851.372,3.314-1.736,8.777-5.138,5.223-1.505-1.741-1.147-4.333-2.069-6.135-1.687-3.296-9.492-4.101-2.967-10.237,1.302-.376,4.365,1.423,5.262,2.298Z" fill="#fff"/>
        <path d="M356.689,465.817c3.544-.982,14.62,3.034,11.159,8.141-3.123,4.609-17.544,1.981-13.397-6.223.618-.692,1.346-1.671,2.238-1.918Z" fill="#fff"/>
        <circle cx="466.236" cy="381.101" r="5.545" fill="#fff"/>
        <path d="M67.275,161.096c2.4-.531,6.659,9.522,9.618,10.838-1.782,7.346-10.859-.261-12.083-4.391-.648-2.186.194-5.944,2.465-6.447Z" fill="#fff"/>
        <path d="M94.186,76.769c1.192-.891.808-6.915,3.786-8.01,3.928,2.447,2.693,7.533.741,10.989-2.976,5.266-11.61,4.198-8.98-.77.836-1.958,3.614-1.582,4.452-2.209Z" fill="#fff"/>
        <path d="M211.337,35.927c.496,3.157-.798,1.635-2.556,2.026-4.934,1.098-9.933,2.13-14.885,3.104-.774,3.761,5.331,1.834,6.16,5.122l-10.206-3.128c-1.838-5.07,5.876-7.206,9.697-7.187,3.512.017,7.843,2.792,11.79.064Z" fill="#fff"/>
        <path d="M354.981,43.103l-10.264,3.076,6.156-5.119c-5.044-.296-9.834-2.007-14.883-3.105-1.773-.385-3.046,1.118-2.554-2.029,3.945,2.731,8.283-.05,11.79-.064,3.997-.016,10.449,2.409,9.754,7.24Z" fill="#fff"/>
        <path d="M402.945,486.526c.217,2.302,4.84,2.889,4.331,5.266-.487,2.274-6.882,4.369-9.226,3.168-5.12-2.623-.34-12.042,4.896-8.435Z" fill="#fff"/>
        <circle cx="350.53" cy="507.831" r="4.995" fill="#fff"/>
        <path d="M351.529,260.687c7.466-2.191,6.913,11.793-2.106,10.063-3.601-1.047-.957-9.078,2.106-10.063Z" fill="#fff"/>
        <path d="M272.085,452.154c-1.661-3.501-2.892-9.157,2.364-9.097,7.752.088,5.546,14.133-2.364,9.097Z" fill="#fff"/>
        <path d="M361.652,265.689c3.084-.939,2.863,5.92,2.39,7.526-.582,1.976-5.335,5.328-7.464,4.753-4.471-3.866.675-4.37,1.979-6.138,1.143-1.55.866-4.799,3.096-6.141Z" fill="#fff"/>
        <path d="M121.875,91.521c2.558,2.534.121,9.019-4.389,8.059-7.703-1.701.349-12.062,4.389-8.059Z" fill="#fff"/>
        <circle cx="421.282" cy="85.138" r="4.327" fill="#fff"/>
        <path d="M468.947,271.759c-1.078-2.041-1.188-5.223.891-6.629,6.557-4.435,11.22,9.206-.891,6.629Z" fill="#fff"/>
        <path d="M467.488,363.243c1.672-.258,4.015,2.571,3.333,4.356-1.552,2.192-3.531,4.546-6.51,3.677l-1.673-2.508.197-1.908,4.652-3.617Z" fill="#fff"/>
        <path d="M190.319,260.562c4.128-1.067,8.009,7.185,4.084,8.2-4.128,1.067-8.009-7.185-4.084-8.2Z" fill="#fff"/>
        <circle cx="409.952" cy="156.024" r="3.764" fill="#fff"/>
        <path d="M469.885,351.845c-.168,1.882.706,5.57-.973,6.719-5.614,3.843-10.29-8.51.973-6.719Z" fill="#fff"/>
        <path d="M279.684,400.151c3.597-.611,3.831,7.753-2.106,5.999l-1.536-3.462,3.642-2.537Z" fill="#fff"/>
        <path d="M181.089,289.275l4.534,2.639-1.477,3.517c-3.127.87-6.67-4.063-3.057-6.156Z" fill="#fff"/>
        <path d="M361.77,289.398c1.711-.531,3.647.511,3.371,2.332-3.731,8.886-9.375-.469-3.371-2.332Z" fill="#fff"/>
        <path d="M271.864,339.547c.518,7.305-6.321,8.76-5.077.036,1.969-.763,3.098-.643,5.077-.036Z" fill="#fff"/>
        <path d="M282.085,457.545c1.641,3.291-.305,5.342-4.055,5.078-1.203-4.149-.521-5.995,4.055-5.078Z" fill="#fff"/>
        <path d="M249.305,5.153V1.055c2.132-.116,3.854-.369,5.125,1.543v1.011c-1.271,1.912-2.993,1.66-5.125,1.543Z" fill="#fff"/>
        <path d="M269.819,350.824v4.098l-2.558-.002c-2.071-1.589-2.071-2.505,0-4.093l2.558-.002Z" fill="#fff"/>
        <circle cx="270.608" cy="373.148" r="2.152" fill="#fff"/>
        <path d="M463.727,346.716h-3.073c-.102-2.177-.41-3.831,1.537-5.117,1.947,1.286,1.638,2.94,1.537,5.117Z" fill="#fff"/>
        <rect x="422.69" y="97.47" width="4.104" height="3.077" fill="#fff"/>
        <path d="M263.663.029v4.099s-3.073-.001-3.073-.001c-.234-1.901-.054-2.99,1.544-4.096l1.529-.002Z" fill="#fff"/>
        <path d="M269.819,363.128l-2.563,1.019-1.529-1.529,2.555-2.555c1.091.943,1.864,1.542,1.536,3.065Z" fill="#fff"/>
        <path d="M202.11,374.411l-.969,6.727c-5.426,2.113-8.109-1.683-5.243-6.266l6.212-.461Z" fill="#fff"/>
      </g>
      <g>
        <path d="M194.055,231.793c-5.58,0-10.068-7.165-13.461-21.495-3.395-14.33-5.092-34.898-5.092-61.706,0-10.273.373-20.396,1.119-30.36.746-9.966,1.892-18.964,3.438-27.001,1.546-8.033,3.52-14.464,5.918-19.294,2.4-4.826,5.235-7.242,8.504-7.242,2.418,0,4.486,1.643,6.212,4.926,1.723,3.284,3.065,7.357,4.025,12.223.96,4.868,1.441,9.696,1.441,14.485,0,4.328-.384,7.863-1.147,10.603-.764,2.744-1.946,4.113-3.546,4.113-1.741,0-2.977-1.196-3.705-3.591-.729-2.393-1.092-5.602-1.092-9.619,0-2.857.257-5.311.772-7.357s1.031-3.998,1.546-5.852c.515-1.854.772-3.978.772-6.373,0-2.473-.328-4.442-.986-5.911-.658-1.465-1.395-2.201-2.213-2.201-1.316,0-2.444,1.796-3.386,5.388-.941,3.593-1.732,8.304-2.373,14.138-.639,5.834-1.137,12.244-1.493,19.236-.356,6.992-.604,13.945-.746,20.858-.142,6.914-.213,13.114-.213,18.598,0,7.263.08,14.6.241,22.018.16,7.416.425,14.466.798,21.146.373,6.684.863,12.67,1.467,17.963.604,5.292,1.288,9.464,2.053,12.514.764,3.054,1.68,4.577,2.746,4.577,1.279,0,2.47-.928,3.572-2.782s2.053-4.325,2.853-7.416c.798-3.087,1.376-6.411,1.732-9.966l2.079,2.667c-.712,4.327-1.618,8.189-2.72,11.588-1.102,3.399-2.407,6.103-3.917,8.11-1.512,2.009-3.246,3.014-5.2,3.014Z"/>
        <path d="M242.682,231.444c-2.879,0-5.066-1.43-6.559-4.287-1.493-2.857-2.478-6.758-2.959-11.703-.479-4.943-.72-10.622-.72-17.035,0-4.711.071-9.387.213-14.021.142-4.636.213-8.766.213-12.399,0-5.794-.205-10.39-.613-13.791-.41-3.399-1.139-5.888-2.187-7.473s-2.515-2.376-4.398-2.376h-2.452v76.249h4.959v4.866h-22.021v-4.866h5.226V72.11h-5.226v-4.866h22.821c3.056,0,5.819,1.294,8.291,3.881,2.47,2.59,4.441,6.645,5.917,12.167,1.475,5.524,2.213,12.729,2.213,21.612,0,6.952-.479,12.921-1.439,17.902-.96,4.983-2.213,9.079-3.759,12.284-1.546,3.206-3.207,5.679-4.985,7.416-1.779,1.739-3.52,2.84-5.226,3.302,4.124.389,7.234,2.048,9.33,4.983,2.097,2.937,3.52,7.263,4.266,12.98.746,5.717,1.119,13.093,1.119,22.133,0,3.476-.045,6.973-.134,10.486-.089,3.516-.134,6.818-.134,9.907,0,2.782.054,5.583.161,8.4.106,2.822.319,5.156.639,7.012.319,1.854.781,2.78,1.387,2.78.391,0,.71-.328.96-.985.248-.656.373-1.448.373-2.376h2.079c-.106,2.474-.524,4.444-1.253,5.911-.729,1.467-1.635,2.567-2.72,3.302-1.085.734-2.213,1.1-3.384,1.1ZM223.221,143.609h2.931c1.671,0,3.004-1.622,3.999-4.868.996-3.244,1.734-7.742,2.213-13.498.481-5.754.72-12.38.72-19.873,0-7.029-.213-13.018-.64-17.961-.425-4.943-1.128-8.731-2.105-11.358-.979-2.625-2.284-3.94-3.919-3.94h-3.199v71.498Z"/>
        <path d="M268.327,232.025c-3.591,0-6.764-3.342-9.518-10.024-2.754-6.68-4.905-16.241-6.451-28.679-1.546-12.439-2.319-27.348-2.319-44.73s.772-32.446,2.319-44.962c1.546-12.514,3.697-22.133,6.451-28.853,2.754-6.722,5.927-10.083,9.518-10.083,3.626,0,6.824,3.361,9.596,10.083,2.773,6.72,4.95,16.339,6.533,28.853,1.581,12.516,2.373,27.504,2.373,44.962s-.791,32.291-2.373,44.73c-1.583,12.439-3.759,21.999-6.533,28.679-2.772,6.682-5.97,10.024-9.596,10.024ZM268.327,227.157c1.137,0,2.079-1.796,2.826-5.388.746-3.591,1.342-8.806,1.786-15.643.444-6.837.746-15.103.906-24.798.16-9.694.24-20.607.24-32.736s-.08-23.061-.24-32.795c-.16-9.734-.462-18.036-.906-24.913-.444-6.875-1.04-12.148-1.786-15.818-.746-3.668-1.689-5.503-2.826-5.503-1.067,0-1.965,1.835-2.694,5.503-.729,3.67-1.296,8.944-1.706,15.818-.408,6.877-.712,15.179-.906,24.913-.196,9.734-.293,20.667-.293,32.795s.097,23.042.293,32.736c.194,9.694.498,17.961.906,24.798.41,6.837.977,12.052,1.706,15.643.729,3.593,1.626,5.388,2.694,5.388Z"/>
        <path d="M300.387,229.59l-12.21-157.48h-5.118v-4.866h23.033v4.866h-3.785l6.132,91.892-1.76,11.241,6.771-87.952.64,13.21-2.666-28.391h-3.839v-4.866h21.808v4.866h-4.585l6.557,90.038-1.439,11.241,6.878-101.279h-4.32v-4.866h11.677v4.866h-4.959l-11.356,157.48h-3.52l-10.236-129.436,1.173-4.055-11.356,133.491h-3.52Z"/>
        <path d="M353.33,64.695c1.752,0,3.157,1.232,4.216,3.695,1.057,2.463,1.586,5.764,1.586,9.903,0,4.402-.453,8.097-1.361,11.085-.906,2.989-1.949,5.387-3.129,7.193-1.178,1.807-2.221,3.137-3.127,3.99l-1.133-3.94c.846-.789,1.654-1.758,2.425-2.907.772-1.148,1.406-2.38,1.905-3.695.497-1.313.747-2.527.747-3.645,0-.524-.053-.869-.158-1.034-.106-.164-.249-.247-.431-.247-.211,0-.521.247-.93.739-.407.492-1.02.739-1.836.739-1.148,0-2.191-.821-3.129-2.463-.937-1.642-1.405-4.336-1.405-8.079,0-3.284.528-5.995,1.586-8.129s2.448-3.203,4.172-3.203Z"/>
        <path d="M353.192,232.025c-1.812,0-3.315-.581-4.506-1.739-1.191-1.158-2.176-2.259-2.959-3.302-.781-1.043-1.493-1.564-2.131-1.564-.463,0-.791.347-.988,1.043-.194.694-.311,1.699-.345,3.012h-1.92v-37.197h2.293c.177,4.095.568,8.208,1.173,12.34.604,4.134,1.368,7.901,2.291,11.299.925,3.399,1.991,6.122,3.2,8.168,1.208,2.048,2.506,3.07,3.891,3.07s2.48-.617,3.28-1.854c.798-1.235,1.394-2.914,1.786-5.04.391-2.126.587-4.423.587-6.895,0-3.476-.384-7.048-1.147-10.718-.765-3.668-1.786-7.359-3.065-11.067-1.281-3.708-2.702-7.376-4.266-11.009-2.985-6.952-5.386-13.923-7.197-20.916-1.814-6.99-2.72-15.043-2.72-24.16,0-6.797.64-12.263,1.92-16.397,1.279-4.13,2.905-7.163,4.879-9.096,1.973-1.929,4.007-2.897,6.104-2.897,1.564,0,2.827.426,3.787,1.275.958.851,1.758,1.701,2.399,2.55.64.851,1.173,1.275,1.6,1.275.391,0,.666-.328.826-.986.16-.654.257-1.679.293-3.07h2.025v36.156h-2.293c-.213-3.94-.524-7.823-.934-11.646-.408-3.825-.951-7.28-1.626-10.371-.675-3.089-1.519-5.562-2.532-7.416-1.012-1.854-2.176-2.782-3.492-2.782-1.564,0-2.897,1.237-3.999,3.708-1.102,2.474-1.652,5.911-1.652,10.315,0,4.943.772,9.849,2.319,14.715,1.546,4.868,3.509,9.966,5.892,15.296,1.92,4.481,3.669,9.002,5.252,13.559,1.581,4.559,2.834,9.426,3.758,14.6.925,5.177,1.387,10.971,1.387,17.382,0,6.722-.569,12.342-1.706,16.861-1.139,4.519-2.711,7.899-4.719,10.139-2.008,2.239-4.256,3.361-6.744,3.361Z"/>
      </g>
    </g>
  </g>
</svg>