<?xml version="1.0" encoding="UTF-8"?>
<svg id="b" data-name="Layer 2" xmlns="http://www.w3.org/2000/svg" width="203.69" height="317.2" viewBox="0 0 203.69 317.2">
  <g id="c" data-name="Layer 1">
    <g>
      <path d="M0,0v317.2h203.69V0H0ZM201.657,315.166H2.033V2.033h199.623v313.133Z" fill="#8bef00"/>
      <path d="M101.845,161.554c15.799,0,30.651-6.153,41.823-17.324l6.47-6.471-12.94-12.94-6.471,6.47c-7.715,7.716-17.972,11.964-28.882,11.964s-21.167-4.249-28.882-11.964c-7.715-7.714-11.963-17.971-11.963-28.881s4.249-21.168,11.963-28.882c7.715-7.716,17.972-11.964,28.882-11.964s21.167,4.249,28.882,11.964l6.471,6.47,12.94-12.94-6.47-6.471c-11.172-11.171-26.024-17.324-41.823-17.324s-30.651,6.153-41.823,17.324c-11.171,11.171-17.323,26.024-17.323,41.823s6.152,30.651,17.323,41.822c11.172,11.171,26.024,17.324,41.823,17.324Z" fill="#8bef00"/>
      <path d="M142.776,102.126c0,5.007,4.059,9.065,9.066,9.065s9.065-4.059,9.065-9.065-4.059-9.066-9.065-9.066-9.066,4.059-9.066,9.066Z" fill="#8bef00"/>
      <polygon points="61 186.774 151.841 277.615 164.781 264.675 58.32 158.213 42.699 164.684 42.699 273.826 61 273.826 61 186.774" fill="#8bef00"/>
    </g>
  </g>
</svg>