<?xml version="1.0" encoding="UTF-8"?>
<svg id="b" data-name="Layer 2" xmlns="http://www.w3.org/2000/svg" width="541.863" height="1007.998" viewBox="0 0 541.863 1007.998">
  <g id="c" data-name="Layer 1">
    <g>
      <path d="M56.412.243L.246,56.412l214.519,214.52L0,485.695l56.166,56.168,175.049-175.048v133.746c0,.925-.67,1.701-1.583,1.851-147.076,24.105-252.145,174.712-199.335,336.059,3.275,10.005,7.401,19.759,12.316,29.068,63.192,119.69,197.452,170.932,326.456,122.1,61.583-23.311,111.511-71.644,135.962-132.783,41.427-103.589,17.893-211.232-54.155-283.284l-26.8-26.798c-.71-.71-1.861-.71-2.571,0l-54.881,54.885,28.437,28.438c18.925,18.926,34.059,41.65,42.095,67.18,33.36,105.987-32.019,204.672-126.508,226.687,0,0,0-345.495,0-345.495v-211.655l174.803,174.804,56.166-56.168-214.519-214.52,214.764-214.763L485.697,0l-214.765,214.764L56.412.243ZM95.883,753.519c0-82.859,57.889-152.405,135.332-170.448v340.946c-31.578-7.293-60.575-23.236-84.057-46.721-33.067-33.061-51.275-77.02-51.275-123.776Z"/>
      <circle cx="270.809" cy="56.168" r="39.348" transform="translate(-5.735 52.225) rotate(-10.901)"/>
    </g>
  </g>
</svg>