<?xml version="1.0" encoding="UTF-8"?>
<svg id="b" data-name="Layer 2" xmlns="http://www.w3.org/2000/svg" width="1169.352" height="178.707" viewBox="0 0 1169.352 178.707">
  <g id="c" data-name="Layer 1">
    <g>
      <path d="M491.821,37.939c-28.363,0-51.439,23.075-51.439,51.439v51.439h16.056v-51.439c0-19.51,15.873-35.383,35.383-35.383s35.383,15.873,35.383,35.383v51.439h16.056v-51.439c0-28.364-23.075-51.439-51.438-51.439Z" fill="#fff"/>
      <path d="M656.757,89.37v51.448h16.056v-51.448c0-19.506,15.869-35.374,35.374-35.374h8.028v-16.056h-8.028c-28.359,0-51.431,23.072-51.431,51.431Z" fill="#fff"/>
      <path d="M375.605,97.406h42.492c-3.646,15.656-17.714,27.355-34.464,27.355-9.451,0-18.337-3.68-25.02-10.364-6.683-6.682-10.363-15.568-10.363-25.019,0-19.51,15.873-35.383,35.383-35.383,9.451,0,18.337,3.68,25.019,10.364l5.677,5.676,11.354-11.353-5.677-5.677c-9.716-9.715-22.633-15.067-36.373-15.067-28.363,0-51.439,23.075-51.439,51.439,0,13.74,5.35,26.657,15.066,36.373,9.716,9.715,22.633,15.067,36.373,15.067,28.363,0,51.439-23.075,51.439-51.439v-8.028h-59.467v16.056Z" fill="#fff"/>
      <path d="M241.121,46.017l-11.353-11.353-43.362,43.361-43.411-43.411-11.353,11.353,35.383,35.383h-27.357c-3.867-24.564-25.176-43.411-50.809-43.411-13.74,0-26.657,5.351-36.373,15.067-9.715,9.715-15.066,22.633-15.066,36.373,0,28.364,23.075,51.439,51.439,51.439,13.74,0,26.657-5.351,36.373-15.067l5.677-5.677-11.354-11.353-5.677,5.676c-6.683,6.684-15.568,10.364-25.019,10.364-16.748,0-30.806-11.701-34.453-27.355h112.619l-35.334,35.334,11.353,11.353,43.362-43.361,43.411,43.411,11.353-11.353-43.411-43.411,43.362-43.362ZM88.859,53.995c16.749,0,30.806,11.701,34.453,27.355H54.395c1.474-6.383,4.697-12.244,9.444-16.991,6.683-6.684,15.568-10.364,25.019-10.364Z" fill="#fff"/>
      <rect x="310.828" y="37.939" width="16.056" height="102.879" fill="#fff"/>
      <path d="M600.009,37.939c-28.364,0-51.439,23.075-51.439,51.439s23.075,51.439,51.439,51.439,51.439-23.075,51.439-51.439-23.075-51.439-51.439-51.439ZM600.009,124.761c-19.51,0-35.383-15.873-35.383-35.383s15.873-35.383,35.383-35.383,35.383,15.873,35.383,35.383-15.873,35.383-35.383,35.383Z" fill="#fff"/>
      <path d="M799.15,52.094c-9.228-8.762-21.683-14.155-35.382-14.155-28.364,0-51.439,23.075-51.439,51.439s23.075,51.439,51.439,51.439c13.699,0,26.154-5.394,35.382-14.155v14.155h16.056V37.939h-16.056v14.155ZM763.768,124.761c-19.51,0-35.383-15.873-35.383-35.383s15.873-35.383,35.383-35.383,35.382,15.873,35.382,35.383-15.872,35.383-35.382,35.383Z" fill="#fff"/>
      <polygon points="911.666 113.477 838.094 40.276 824.404 45.967 824.404 140.818 840.46 140.818 840.46 65.279 914.032 138.48 927.722 132.789 927.722 37.939 911.666 37.939 911.666 113.477" fill="#fff"/>
      <polygon points="976.444 37.939 936.92 37.939 936.92 53.995 976.444 53.995 976.444 140.818 992.5 140.818 992.5 53.995 1032.023 53.995 1032.023 37.939 992.5 37.939 976.444 37.939" fill="#fff"/>
      <rect x="1041.22" y="37.939" width="16.056" height="102.879" fill="#fff"/>
      <path d="M1117.913,37.939c-28.363,0-51.438,23.075-51.438,51.439v51.439h16.056v-43.411h70.765v43.411h16.056v-51.439c0-28.364-23.075-51.439-51.439-51.439ZM1117.913,53.995c16.748,0,30.806,11.701,34.453,27.355h-68.906c3.647-15.654,17.704-27.355,34.453-27.355Z" fill="#fff"/>
      <path d="M0,178.707h278.59V0H0v178.707ZM1.784,1.784h275.022v175.139H1.784V1.784Z" fill="#fff"/>
      <circle cx="229.817" cy="89.353" r="7.953" transform="translate(-12.751 45.072) rotate(-10.901)" fill="#fff"/>
    </g>
  </g>
</svg>