<?xml version="1.0" encoding="UTF-8"?>
<svg id="b" data-name="Layer 2" xmlns="http://www.w3.org/2000/svg" width="621.356" height="259.245" viewBox="0 0 621.356 259.245">
  <g id="c" data-name="Layer 1">
    <g>
      <polygon points="425.019 32.136 416.242 39.09 416.242 15.061 413.844 15.061 402.764 22.159 402.764 71.61 404.683 77.797 417.537 73.72 416.242 68.924 416.242 46.573 425.979 50.17 425.979 71.61 427.897 77.797 440.751 73.72 439.456 68.924 439.456 43.024 427.513 38.755 438.497 30.121 438.497 6.427 406.458 0 398.735 8.778 398.735 10.696 425.019 15.972 425.019 32.136" fill="#fff"/>
      <path d="M484.451,66.861V7.53l-22.735-7.53-14.389,10.84v59.475l22.735,7.482,14.389-10.936ZM460.662,11.415l10.312,3.55v51.465l-10.312-3.597V11.415Z" fill="#fff"/>
      <polygon points="492.707 71.466 508.775 77.797 516.593 70.027 519.039 77.797 531.893 73.72 528.92 62.209 528.92 6.187 527.001 0 514.147 4.077 515.442 8.874 515.442 63.216 506.185 63.216 506.185 6.187 504.266 0 491.412 4.077 492.707 8.874 492.707 71.466" fill="#fff"/>
      <polygon points="537.703 71.61 539.621 77.797 552.476 73.72 551.181 68.924 551.181 13.67 560.437 13.67 560.437 71.61 562.356 77.797 575.21 73.72 573.915 68.924 573.915 6.427 557.847 0 550.029 7.771 547.583 0 534.729 4.029 537.703 15.444 537.703 71.61" fill="#fff"/>
      <polygon points="588.358 0 580.636 8.778 580.636 10.696 607.879 16.164 607.879 65.134 598.046 65.134 598.046 15.253 595.665 15.253 584.712 22.351 584.712 67.293 580.636 71.418 580.636 73.336 602.938 77.797 621.356 63.936 621.356 6.619 588.358 0" fill="#fff"/>
      <path d="M315.139,166.267c.372,0,.632-.185.782-.558.149-.372.26-.671.335-.894l.111-3.128c.074-.147.112-.278.112-.39s.074-.241.224-.391c0-.224-.112-.335-.335-.335-.15,0-.262.019-.335.056-.075.038-.187.243-.335.615-.15.597-.391,1.136-.726,1.62-.335.484-.577,1.024-.725,1.618l-.335,1.006c.223.521.632.781,1.228.781Z" fill="#fff"/>
      <path d="M318.769,159.342c.335-.447.576-.855.726-1.228,0-.224-.075-.464-.224-.725-.15-.26-.262-.391-.335-.391-.075,0-.15.019-.224.056-.075.038-.187.056-.335.056-.151.075-.299.112-.447.112-.223,0-.41-.037-.558-.112l-.446-.224c-.15,0-.335-.037-.559-.112-.223-.074-.373-.112-.447-.112,0,.075-.019.15-.056.223-.038.075-.056.187-.056.335,0,.596.185,1.211.558,1.842.372.634.819.95,1.341.95.371,0,.726-.224,1.061-.671Z" fill="#fff"/>
      <path d="M335.915,162.157l.67,2.769h.67c.371,0,.575-.249.614-.75.037-.499.056-.942.056-1.327s-.019-.712-.056-.98c-.039-.27-.243-.405-.614-.405h-.67l-.67.693Z" fill="#fff"/>
      <path d="M366.127,145.548c.707-1.228,1.246-2.289,1.62-3.184.224-.743.352-1.879.391-3.406.037-1.526.056-2.698.056-3.519v-2.904c-.446-1.117-.949-2.065-1.508-2.848-.558-.781-1.471-1.173-2.736-1.173-2.161,0-4.264.783-6.311,2.347-2.049,1.562-3.947,3.444-5.696,5.639-1.751,2.198-3.24,4.487-4.468,6.871-1.228,2.383-2.066,4.394-2.513,6.03,0,.15-.056.541-.168,1.173-.112.634-.168.988-.168,1.062-.373.893-.726,1.674-1.061,2.345-.335.669-.634,1.284-.894,1.843-.262.558-.466,1.173-.614,1.842-.15.671-.224,1.452-.224,2.347v1.564c.149.521.446,1.228.894,2.121.446.893.743,1.34.894,1.34h1.787c.073,0,.352-.093.838-.28.483-.184,1.005-.427,1.564-.725.558-.297,1.117-.596,1.675-.895.558-.296.986-.558,1.284-.781.074-.074.279-.26.614-.559.335-.296.67-.614,1.006-.949.335-.335.651-.65.95-.949.296-.297.483-.484.558-.559.743-.743,1.6-1.34,2.569-1.788.967-.446,1.749-1.079,2.346-1.898.743-.819,1.564-1.788,2.457-2.904.894-1.117,1.749-2.291,2.569-3.519.818-1.228,1.581-2.457,2.289-3.685Z" fill="#fff"/>
      <path d="M325.08,143.314c-.522-.185-1.006-.28-1.452-.28-.224,0-.446.131-.67.391-.224.262-.373.54-.446.837-.15.374-.224.765-.224,1.173,0,.411-.075.837-.224,1.284,0,.15.149.224.447.224l.67-.447c.223,0,.335.112.335.335v1.117c0,.15.093.355.28.615.185.262.316.391.391.391.224,0,.408-.224.558-.671l.112-.559c.074-.222.112-.446.112-.669s-.038-.391-.112-.503c-.075-.112-.112-.315-.112-.614l1.117-1.676c0-.447-.262-.762-.782-.949Z" fill="#fff"/>
      <path d="M339.6,168.835h2.122c.297,0,.447-.147.447-.446,0-.372-.41-.615-1.229-.727-.82-.112-1.34-.168-1.563-.168-.374,0-.559.112-.559.335,0,.15.093.354.28.615.185.262.352.39.502.39Z" fill="#fff"/>
      <path d="M300.954,149.401l-.112.335c0,.299.223.447.67.447.223,0,.464-.056.726-.168.26-.112.464-.316.614-.615,0-.669-.15-1.005-.447-1.005-.745,0-1.229.335-1.452,1.005Z" fill="#fff"/>
      <path d="M299.055,146.385l3.24.447h.782l.335-.559c0-.147-.131-.24-.391-.278-.262-.037-.466-.056-.615-.056h-.447l-.782.112c-.223-.074-.335-.28-.335-.615s-.224-.503-.67-.503c-.522,0-.894.485-1.117,1.452Z" fill="#fff"/>
      <path d="M302.071,141.303c-.075-.185-.224-.28-.446-.28-.374,0-.726.15-1.061.447-.335.299-.541.634-.614,1.005-.075.15-.112.299-.112.447,0,.447.24.67.726.67s.911.112,1.284.335c.296.15.427.335.391.559-.039.224.129.335.502.335.819,0,1.414-.297,1.787-.895.372-.594.632-1.19.782-1.787.149-.743.224-1.191.224-1.34,0-.446-.262-.669-.782-.669-.15,0-.335.038-.558.112-.224.075-.373.299-.446.669-.076.075-.112.299-.112.671v.893c0,.299-.224.447-.67.447-.224,0-.391-.093-.503-.28-.111-.185-.187-.408-.223-.669-.039-.26-.095-.484-.168-.671Z" fill="#fff"/>
      <path d="M327.761,135.551c.297,0,.502-.129.614-.391.112-.259.241-.502.391-.725l.558-1.452c0-.149-.15-.224-.447-.224-.373,0-.69.206-.95.615-.262.41-.466.764-.614,1.061l-.112.447c.149.446.335.669.558.669Z" fill="#fff"/>
      <path d="M325.415,136.11c-.671,0-1.117.335-1.341,1.005,0,.224.074.429.224.615.149.187.224.465.224.837l-1.228,1.228c0,.15.185.224.558.224l1.005-.112c.372,0,.559.112.559.335l-.224,1.788c0,.15.129.262.391.334.261.075.503.112.726.112h.558l.335-.335.446-1.898c0-.224.112-.447.335-.671l-.335-.334h-.558c-.299,0-.522-.074-.67-.224-.224,0-.335-.112-.335-.335.148-.149.391-.261.726-.335.335-.074.575-.371.725-.893l.112-.335c0-.447-.279-.725-.837-.837-.559-.112-1.025-.168-1.396-.168Z" fill="#fff"/>
      <path d="M340.55,144.525c.483-.521,1.005-1.078,1.564-1.674.558-.593,1.078-1.151,1.563-1.672.484-.519.8-.855.95-1.005l4.468-5.8c0-.072.112-.296.335-.668.224-.371.372-.594.447-.669l3.127-3.122c1.042-.671,2.29-1.171,3.742-1.506,1.452-.335,2.736-.874,3.853-1.617.074-.074.335-.26.782-.558.446-.296.911-.612,1.396-.948.484-.335.95-.651,1.396-.949.446-.297.744-.484.894-.556.894-.372,1.693-.615,2.401-.727.707-.112,1.396-.221,2.066-.333.67-.112,1.34-.353,2.011-.727.67-.372,1.34-1.004,2.011-1.895,0-.297.073-.855.223-1.673.149-.818.316-1.673.503-2.566.185-.892.372-1.728.558-2.51.185-.78.316-1.355.391-1.729.595-1.709,1.284-3.326,2.066-4.85.782-1.526,1.173-3.253,1.173-5.187,0-1.414-.335-2.437-1.006-3.069-.67-.631-1.396-1.113-2.178-1.448-.782-.335-1.508-.615-2.178-.839-.67-.222-1.005-.668-1.005-1.338,0-.593.279-1.058.838-1.393.558-.334,1.265-.576,2.121-.725.856-.149,1.732-.241,2.625-.28.893-.037,1.675-.056,2.345-.056h-139.812v77.797h18.631c-.31-.217-.62-.434-.956-.672-.894-.633-1.732-1.284-2.513-1.955-.782-.67-1.248-1.154-1.396-1.452l-.335-7.706.335-5.249c.223-.297.52-.895.893-1.788.372-.894.726-1.843,1.061-2.848.335-1.005.631-1.973.893-2.904.26-.93.391-1.581.391-1.955.372-.743.93-1.692,1.676-2.848.743-1.154,1.488-2.326,2.233-3.518.744-1.19,1.433-2.307,2.066-3.351.632-1.042,1.061-1.823,1.285-2.345.519-.372,1.005-.799,1.451-1.284.447-.484.856-1.023,1.229-1.62.595-.297,1.097-.594,1.508-.893.408-.297.781-.577,1.117-.839.335-.259.707-.502,1.117-.725.408-.224.95-.447,1.62-.671l1.228-1.117,2.234-.669c.224,0,.502.075.838.222.335.15.576.299.726.447-.82.597-1.583,1.248-2.29,1.955-.708.708-1.546,1.136-2.513,1.284-.67.893-1.546,2.029-2.625,3.406-1.08,1.38-2.161,2.831-3.239,4.356-1.081,1.527-1.993,3.072-2.736,4.636-.745,1.564-1.117,2.979-1.117,4.244,0,.819.408,1.639,1.228,2.457-.67,0-1.136.038-1.396.112-.262.075-.429.206-.502.391-.076.187-.131.41-.168.669-.039.262-.168.578-.391.95v.781l-.335.893-.558,5.027c0,.597.129,1.155.391,1.676.26.521.391,1.08.391,1.674,0,.522-.076,1.156-.224,1.899l1.117,3.128,1.228,1.228h2.681c1.34,0,2.475-.353,3.407-1.061.93-.708,1.787-1.526,2.569-2.458.782-.93,1.545-1.823,2.29-2.68.743-.855,1.564-1.433,2.457-1.73l.447.558c-1.044,2.532-1.938,4.356-2.681,5.473-.745,1.117-1.507,2.011-2.289,2.681-.782.671-1.658,1.303-2.625,1.899-.757.466-1.7,1.236-2.819,2.291h21.314c-.316-.226-.635-.511-.958-.895-.782-.93-1.173-1.732-1.173-2.401,0-.744.204-1.526.614-2.346.409-.818.894-1.636,1.452-2.457.559-.818,1.098-1.638,1.62-2.457.52-.818.931-1.601,1.228-2.345.074-.149.204-.428.391-.839.185-.408.372-.855.558-1.34.185-.483.352-.949.502-1.396.149-.447.26-.743.335-.893l.893-.335c.149-1.265.372-2.68.671-4.244.297-1.564.818-2.866,1.563-3.909l.447-.671c1.042-1.413,1.861-2.586,2.457-3.518.595-.93,1.061-1.843,1.396-2.736.335-.894.539-1.899.614-3.016.074-1.117.112-2.642.112-4.58l-2.234-.224c-.67.075-1.303.429-1.899,1.062-.597.633-1.228,1.304-1.899,2.01-.67.709-1.379,1.359-2.122,1.955-.745.597-1.564.893-2.458.893-.745,0-1.117-.371-1.117-1.117,0-.967.241-1.88.726-2.736.483-.855,1.078-1.676,1.787-2.457.707-.783,1.452-1.508,2.234-2.179.782-.669,1.508-1.302,2.178-1.898.372,0,.894-.186,1.564-.559.67-.372,1.357-.799,2.066-1.284.707-.484,1.413-.949,2.122-1.396.707-.447,1.246-.706,1.619-.782.074,0,.447-.016,1.117-.055.67-.037,1.19-.056,1.564-.056l2.68.111c.595.298.967.782,1.117,1.452.149.671.224,1.268.224,1.788,0,.821-.262,1.788-.782,2.904-.522,1.117-1.1,2.254-1.732,3.407-.633,1.155-1.211,2.308-1.731,3.462-.522,1.156-.782,2.217-.782,3.184,0,.374.149.688.446.949.297.262.632.391,1.006.391.67,0,1.265-.224,1.787-.671.52-.446.986-.986,1.396-1.618.409-.633.782-1.265,1.117-1.899.335-.631.687-1.173,1.061-1.62,1.489-1.86,3.256-3.462,5.306-4.802,2.047-1.342,3.853-2.904,5.417-4.692l5.361-1.676h.447c.223,0,.799.056,1.731.168.931.112,1.545.206,1.843.28.224.15.391.373.503.669.112.299.223.615.335.95.112.334.224.633.335.893.112.262.316.391.614.391v5.585c-1.863,1.936-3.166,4.059-3.91,6.366-.745,2.31-1.527,4.655-2.345,7.037-.82,2.161-1.918,4.412-3.295,6.757-1.379,2.346-2.514,4.524-3.407,6.535-.075.075-.167.353-.279.837-.112.486-.168.8-.168.949-.075.075-.112.15-.112.224v.224c0,.447.149.725.447.837.297.112.706.168,1.229.168.966,0,1.843-.315,2.625-.949.782-.631,1.508-1.284,2.178-1.955l.335-.334c.149-.149.428-.409.838-.783.408-.372.819-.762,1.229-1.173.408-.409.799-.818,1.173-1.229.371-.409.632-.687.782-.838h.223c.074,0,.112-.016.112-.056,0-.036.037-.054.112-.054.595,0,.894.334.894,1.005,0,1.49-.558,3.035-1.676,4.635-1.117,1.603-2.476,3.11-4.077,4.524-1.602,1.415-3.278,2.681-5.026,3.799-1.75,1.117-3.222,2.01-4.412,2.68-.288.156-.59.281-.9.392h19.089c-.513-.481-.891-.999-1.1-1.562-.374-1.004-.558-2.286-.558-3.848,0-1.264.129-2.807.391-4.629.26-1.822.632-3.661,1.117-5.521.483-1.858,1.061-3.624,1.731-5.298.67-1.671,1.377-2.993,2.122-3.959.149-.074.464-.372.95-.892ZM287.662,131.251c-.187.559-.41,1.025-.67,1.396-.262.373-.502.709-.726,1.006-.223.297-.373.708-.446,1.228-.67.819-1.137,1.434-1.396,1.842-.262.411-.95.765-2.066,1.062-1.192,1.043-2.365,1.936-3.518,2.68-1.156.744-2.346,1.415-3.574,2.01-1.228.597-2.496,1.173-3.797,1.732-1.304.559-2.663,1.173-4.077,1.843h-.893c-.151,0-.224-.037-.224-.112l.446-1.006c1.265-.893,2.643-1.692,4.133-2.401,1.489-.706,2.978-1.358,4.468-1.954.297-.149.67-.465,1.117-.95.447-.482.894-1.022,1.34-1.62.447-.594.911-1.173,1.396-1.73.484-.559.95-1.022,1.396-1.396.149-.224.297-.559.447-1.006.148-.446.316-.949.502-1.508.185-.558.335-1.079.446-1.563.112-.484.204-.875.28-1.174,0-.222-.094-.631-.28-1.229-.186-.594-.41-1.228-.67-1.898-.262-.671-.558-1.246-.893-1.732-.335-.484-.653-.727-.95-.727l-1.676.224.335-.893,1.228-1.005h.558l3.463.446c1.489.671,2.625,1.359,3.407,2.067.781.708,1.173,1.993,1.173,3.853,0,1.117-.094,1.955-.28,2.513Z" fill="#fff"/>
      <path d="M374.114,125.61c-.373,0-.653.075-.838.224-.187.15-.28.299-.28.447,0,.446.372.669,1.117.669.595,0,.894-.224.894-.669,0-.149-.056-.297-.168-.447-.112-.149-.354-.224-.726-.224Z" fill="#fff"/>
      <polygon points="372.885 129.854 371.545 131.195 372.885 131.195 372.885 129.854" fill="#fff"/>
      <path d="M371.042,126.449c-.038-.409-.056-.689-.056-.839l-.67-.67v1.34c0,.669.018,1.228.056,1.676.037.446.241,1.043.614,1.786l.67-.669c-.15-.521-.262-1.005-.335-1.452-.15-.372-.243-.764-.279-1.173Z" fill="#fff"/>
      <path d="M340.606,148.396l-1.34,1.34v1.34l2.68,1.34v-1.34c0-.67-.056-1.284-.168-1.843-.112-.558-.502-.837-1.173-.837Z" fill="#fff"/>
      <polygon points="378.023 117.68 379.363 116.34 378.135 116.675 378.023 117.68" fill="#fff"/>
      <path d="M361.716,163.53c.446-.631.837-1.246,1.173-1.843.335-.594.502-1.153.502-1.674,0-.596-.223-1.023-.67-1.284-.447-.26-.932-.391-1.452-.391h-.67l-4.021,3.24c-.597.372-1.044.949-1.34,1.73-.299.783-.745,1.359-1.34,1.732l-8.293,5.196h15.698c-.066-.039-.138-.071-.201-.114-.708-.484-1.061-1.246-1.061-2.289,0-.818.168-1.582.502-2.289.335-.708.726-1.377,1.173-2.011Z" fill="#fff"/>
      <polygon points="379.14 113.883 378.47 113.883 378.135 115.335 379.363 115 379.14 113.883" fill="#fff"/>
      <path d="M298.273,154.093c.149,0,.26-.037.335-.112,0-.149.018-.28.056-.391.037-.112.056-.24.056-.39,0-.297-.112-.447-.335-.447-.15,0-.262.112-.335.335-.075.222-.15.409-.224.558,0,.298.149.447.446.447Z" fill="#fff"/>
      <path d="M381.374,102.266c.149,0,.224-.074.224-.224l.224-2.01c.073-.224.185-.391.335-.503.149-.112.224-.316.224-.615,0-.296-.038-.483-.112-.558-.299.374-.597.597-.894.669-.298.075-.597.262-.893.559v2.345c0,.224.185.335.558.335h.335Z" fill="#fff"/>
      <path d="M379.475,99.362c0-.149.037-.297.112-.447,0-.52.074-.93.224-1.228.148-.296.223-.743.223-1.34,0-.743-.298-1.117-.893-1.117-.745,0-1.117.373-1.117,1.117.074.299.28.895.614,1.788.335.893.614,1.34.838,1.34v-.112Z" fill="#fff"/>
      <path d="M318.155,154.54c0,.372.185.744.558,1.117.371.373.67.558.894.558.372,0,.614-.112.726-.334.112-.224.168-.409.168-.559.148-.447.223-.818.223-1.117,0-.596-.223-.894-.67-.894-.969,0-1.602.41-1.899,1.23Z" fill="#fff"/>
      <path d="M258.678,161.018l.446.559.447.11.558-.669c-.224-.224-.466-.465-.726-.727-.262-.259-.541-.464-.838-.614-.15-.297-.262-.577-.335-.838-.075-.259-.186-.502-.335-.725l-.894-.671-1.117.783.335.559c.372.222.763.446,1.173.669.408.224.799.411,1.173.559.074.222.112.558.112,1.005Z" fill="#fff"/>
      <polygon points="261.358 141.918 260.912 141.471 260.353 142.141 260.8 142.699 261.358 141.918" fill="#fff"/>
      <path d="M260.074,147.223c-.187-.783-.466-1.173-.838-1.173-.224,0-.411.075-.558.222l-.558,1.452v.447c.148.15.352.354.614.615.26.262.391.577.391.949l-.894,1.228.335.224c.446,0,.911-.224,1.396-.671.484-.446.726-.967.726-1.563-.224-.372-.43-.95-.614-1.732Z" fill="#fff"/>
      <path d="M381.374,92.437c.52,0,1.117.019,1.787.056.67.038,1.321.15,1.954.335.632.184,1.173.482,1.62.891.447.407.67.981.67,1.723,0,1.04-.094,2.285-.28,3.732-.187,1.446-.577,2.652-1.172,3.617-.075.075-.15.298-.224.669-.075.371-.168.78-.279,1.225-.112.444-.206.871-.28,1.279-.075.409-.15.652-.224.725l-1.005,3.338-1.005.78.335.778v.448c-.597,1.186-1.061,2.282-1.396,3.285-.336,1.002-.614,1.966-.838,2.894-.224.928-.466,1.892-.726,2.894-.262,1.001-.652,2.098-1.172,3.285-.374.743-.726,1.634-1.061,2.671-.335,1.04-.614,1.967-.838,2.784-.373.891-.782,2.059-1.228,3.506-.447,1.449-.857,2.655-1.229,3.619,0,.075-.038.224-.112.446-.075.223-.15.372-.224.446-.075.075-.111.224-.111.445,0,.297.036.614.111.946.074.335.112.612.112.836l-1.116,3.563c-.745,1.484-1.415,2.821-2.01,4.009-.597,1.186-1.192,2.744-1.787,4.675-.15.519-.391,1.149-.726,1.891-.335.744-.67,1.486-1.005,2.228-.336.743-.634,1.411-.894,2.004-.262.594-.391,1.002-.391,1.225,0,.594.223,1.04.67,1.336.446.297.967.446,1.563.446.149-.073.28-.168.391-.28.112-.112.204-.205.279-.28.224-.149.559-.463,1.006-.949.446-.484.93-.987,1.452-1.508.52-.521,1.005-1.006,1.452-1.452.447-.447.782-.783,1.005-1.005.744-.819,1.173-1.396,1.285-1.732.111-.336.687-.503,1.731-.503h.782c.447,0,.819.075,1.117.224.297.15.447.522.447,1.117,0,.374-.019.69-.056.949-.039.262-.206.578-.503.95-.82,1.117-1.769,2.462-2.848,4.033-1.081,1.571-2.253,3.091-3.519,4.561-1.267,1.469-2.663,2.713-4.188,3.731-.579.384-1.182.673-1.798.913h163.464v-.086h-.037v-3.886h-3.886v-3.885h-3.885v-27.199h3.885v-3.885h3.886v-3.885h3.885v-3.885h3.886v-3.885h7.771v-3.885h11.656v3.885h7.771v3.885h3.886v27.198h-3.886v7.771h-3.885v3.886h-3.886v3.885h-3.885v3.886h-.087v.086h9.522v-7.857h3.886v-7.771h3.885v-11.657h3.886v-7.771h3.885v-11.656h-3.885v-3.885h7.771v-7.771h3.885v-7.771h3.886v-3.886h3.885v-3.885h3.886v-3.885h-216.67Z" fill="#fff"/>
      <polygon points="257.561 167.161 258.231 166.155 257.561 165.15 256.668 165.931 257.561 167.161" fill="#fff"/>
      <path d="M302.965,127.062c.073-.149.112-.408.112-.781,0-.297-.076-.447-.224-.447-.299.075-.485.262-.558.559,0,.446.223.669.67.669Z" fill="#fff"/>
      <polygon points="609.699 104.094 609.699 96.323 601.929 96.323 601.929 100.208 598.043 100.208 598.043 107.98 594.158 107.98 594.158 119.636 605.815 119.636 605.815 123.522 590.272 123.522 590.272 127.407 586.386 127.407 586.386 139.064 582.502 139.064 582.502 150.72 578.616 150.72 578.616 158.491 574.73 158.491 574.73 168.163 574.753 168.163 574.753 170.234 621.356 170.234 621.356 104.094 609.699 104.094" fill="#fff"/>
      <rect x="617.471" y="92.437" width="3.886" height="3.886" fill="#fff"/>
      <path d="M337.702,158.839c0-.408-.15-.614-.446-.614-.374,0-.559.206-.559.614,0,.41.185.615.559.615.296,0,.446-.204.446-.615Z" fill="#fff"/>
      <path d="M304.528,131.418c.447,0,.819-.168,1.117-.503.297-.334.52-.687.67-1.061.073-.149.112-.335.112-.558,0-.447-.224-.671-.67-.671-.597,0-1.006.187-1.229.559-.223.373-.41.781-.558,1.228v.558c0,.299.185.447.558.447Z" fill="#fff"/>
      <polygon points="367.412 150.853 365.401 152.864 367.412 152.864 367.412 150.853" fill="#fff"/>
      <polygon points="557.524 123.522 553.639 123.522 553.639 119.636 549.753 119.636 549.753 123.522 541.982 123.522 541.982 127.407 538.096 127.407 538.096 135.178 534.211 135.178 534.211 146.835 530.325 146.835 530.325 162.377 534.211 162.377 534.211 166.262 545.868 166.262 545.868 162.377 549.753 162.377 549.753 158.491 553.639 158.491 553.639 154.606 557.524 154.606 557.524 142.949 561.41 142.949 561.41 127.407 557.524 127.407 557.524 123.522" fill="#fff"/>
      <path d="M292.242,165.038l.112-.335c0-.149-.112-.224-.335-.224s-.41.187-.558.559c0,.15.112.224.335.224.148,0,.297-.074.446-.224Z" fill="#fff"/>
      <path d="M310.56,166.714v-2.235c.148-1.042.707-2.27,1.675-3.685.967-1.414,1.749-2.569,2.346-3.462,1.117-1.788,1.899-3.668,2.346-5.641.446-1.973,1.005-3.927,1.675-5.864.296-.895.763-1.768,1.396-2.625.632-.856,1.209-1.657,1.732-2.402l.223-.446c.074-.149.149-.26.224-.335.074-.149.149-.596.224-1.34.073-.743.148-1.191.223-1.34.372-.893.837-1.564,1.396-2.011.558-.446.837-1.228.837-2.345v-1.005c0-.596-.075-1.19-.223-1.787-.151-.595-.522-.893-1.117-.893h-.446c-2.309,1.34-4.468,2.942-6.478,4.802-2.01,1.862-3.872,3.837-5.585,5.92-.075.15-.15.262-.224.335l-.223.446c-.894,2.161-2.01,4.153-3.351,5.976-1.34,1.826-2.607,3.741-3.798,5.752-.224.299-.67.765-1.34,1.396-.67.634-1.379,1.284-2.122,1.955-.745.669-1.434,1.322-2.066,1.954-.633.634-.988,1.061-1.061,1.284,0,.075-.038.262-.111.559-.075.299-.131.614-.168.949-.038.335-.094.671-.168,1.005-.075.335-.112.541-.112.615-.075.447-.354,1.155-.838,2.123-.485.968-1.061,1.917-1.731,2.847-.67.932-1.359,1.751-2.066,2.458-.228.228-.438.405-.639.56h19.572c-.039-.021-.073-.036-.113-.058-.67-.374-1.006-.818-1.006-1.34,0-.296.112-.558.335-.781l.782-1.34Z" fill="#fff"/>
      <path d="M367.635,164.926c0-.447-.15-.669-.446-.669-.374,0-.558.222-.558.669s.185.671.558.671c.297,0,.446-.224.446-.671Z" fill="#fff"/>
      <polygon points="22.236 153.165 31.192 153.165 31.192 127.402 22.236 124.304 22.236 153.165" fill="#fff"/>
      <path d="M93.064,92.437H0v77.797h93.064v-77.797ZM34.375,165.262l-2.631-8.574-8.786,8.574-12.648-5.815v-36.12l12.733-9.592,20.076,6.664v31.196l2.632,10.186-11.375,3.48ZM86.246,118.828l-6.367,6.494-8.998-2.632v30.687l15.365,3.056v1.698l-6.069,7.131-21.222-4.287v-35.059l-11.799-3.438v-1.698l6.367-6.494,5.433,1.613v-9.72l9.38-8.828h2.546v15.322l15.365,4.457v1.698Z" fill="#fff"/>
      <rect x="52.505" y="214.712" width="3.687" height="3.687" fill="#fff"/>
      <polygon points="8.258 214.712 .882 214.712 .882 258.959 11.945 258.959 11.945 255.273 8.258 255.273 8.258 214.712" fill="#fff"/>
      <polygon points="56.192 218.399 56.192 255.273 63.566 255.273 63.566 258.959 67.254 258.959 67.254 255.273 74.628 255.273 74.628 214.712 59.879 214.712 59.879 218.399 56.192 218.399" fill="#fff"/>
      <polygon points="56.192 214.712 59.879 214.712 59.879 211.025 67.254 211.025 67.254 207.338 78.315 207.338 78.315 211.025 82.003 211.025 82.003 214.712 85.69 214.712 85.69 255.273 93.064 255.273 93.064 258.959 111.5 258.959 111.5 255.273 107.813 255.273 107.813 251.585 104.125 251.585 104.125 244.21 100.438 244.21 100.438 225.774 104.125 225.774 104.125 218.399 107.813 218.399 107.813 214.712 111.5 214.712 111.5 211.025 118.874 211.025 118.874 207.338 129.936 207.338 129.936 211.025 137.311 211.025 137.311 214.712 140.998 214.712 140.998 222.087 144.685 222.087 144.685 229.461 107.813 229.461 107.813 233.148 111.5 233.148 111.5 244.21 115.187 244.21 115.187 247.897 118.874 247.897 118.874 251.585 137.311 251.585 137.311 247.897 140.998 247.897 140.998 251.585 137.311 251.585 137.311 255.273 133.623 255.273 133.623 258.959 180.26 258.959 180.26 181.705 56.192 181.705 56.192 214.712" fill="#fff"/>
      <polygon points="122.562 211.025 122.562 214.712 115.187 214.712 115.187 218.399 111.5 218.399 111.5 225.774 133.623 225.774 133.623 218.399 129.936 218.399 129.936 214.712 126.249 214.712 126.249 211.025 122.562 211.025" fill="#fff"/>
      <polygon points="37.756 185.214 52.505 185.214 52.505 181.705 .882 181.705 .882 211.025 4.57 211.025 4.57 207.338 8.258 207.338 8.258 203.65 11.945 203.65 11.945 199.963 15.631 199.963 15.631 196.276 19.32 196.276 19.32 211.025 34.069 211.025 34.069 214.712 19.32 214.712 19.32 251.585 30.38 251.585 30.38 247.897 34.069 247.897 34.069 251.585 30.38 251.585 30.38 255.273 26.693 255.273 26.693 258.959 37.756 258.959 37.756 255.273 45.13 255.273 45.13 188.901 37.756 188.901 37.756 185.214" fill="#fff"/>
      <path d="M78.396,30.1l-1.174-.469v.821h-.469l-.469-.587-1.291,1.291h1.408l.352.703-.704.352-1.056,2.229v2.464l1.408.703.352,1.878-1.408,1.408-.352-1.761-.704-.352-.352.352v1.408l-1.29,3.402.938.939-.352.704,1.056.352.469.586-.821.821.586.703,2.229.47v-1.173h1.525v-2.229l1.76.47,1.056-1.173v1.525h.704v-2.581l-.469-.352-1.291.352h-.704l1.173-.587.586-1.524h-.586l.704-1.291-1.877-1.994v-.704h.704v.352l.469.352v-1.055l-1.76-1.642-.939-3.168.587-1.994ZM76.049,46.641l-.352-.351h.704l-.352.351ZM76.401,45.234l-.352.351v-.704l.352-.469v.821ZM78.278,44.295l-1.877-.587-.352.235v.118h-.352l.352-.118v-1.173h1.525l.352.938h.352v.587ZM77.574,40.541l.352-.703.352.352-.704.351ZM78.747,36.435l-1.173.47h-.821v-1.291l.821-.821v.353l1.173,1.29Z" fill="#fff"/>
      <polygon points="81.563 51.334 80.742 51.334 80.742 53.797 81.798 55.323 82.15 54.619 82.15 53.68 83.205 53.094 83.205 52.389 82.032 52.976 83.323 51.099 82.853 49.926 82.267 49.34 81.563 51.334" fill="#fff"/>
      <polygon points="81.798 46.641 81.446 46.641 81.093 47.345 80.155 46.876 79.686 47.697 79.334 46.641 78.982 46.993 78.982 48.87 80.273 50.043 80.742 49.575 81.446 49.926 82.267 48.753 81.093 48.167 81.798 46.641" fill="#fff"/>
      <path d="M84.378,57.434v-1.173l-1.877-1.173v1.29h1.173v.587l-.938.47-1.643,2.112-.352,1.173-1.408,1.408h-6.453l-.352-.351h-1.056l-1.174,1.056h-2.111v1.407l-1.056.353-1.174,2.815,1.408.821v.351l-1.291.705v1.408l-1.877,2.111v2.933l-2.659,2.553h26.938l-.933-4.665v-1.173l-.235-.705-.352-3.167-.469-1.055v-.705l-.704-2.581v-1.407l-2.112-.705v-.703l1.408-.353v-1.876h-1.408v-1.408l.704-.352ZM67.837,67.523l-.469-.587.821-.939.469.588-.821.938Z" fill="#fff"/>
      <polygon points="141.069 3.119 141.89 3.47 142.242 4.995 141.538 5.347 141.538 5.7 142.242 5.7 143.298 4.644 143.649 3.822 144.354 3.119 145.169 1.034 140.005 1.034 140.717 1.593 141.069 3.119" fill="#fff"/>
      <polygon points="136.142 19.308 134.968 18.603 134.968 19.19 136.142 19.659 136.142 19.308" fill="#fff"/>
      <polygon points="186.345 74.796 186.345 65.764 186.697 64.591 186.345 64.238 186.345 63.535 185.993 62.596 186.462 61.305 185.993 60.015 185.993 40.307 185.641 37.373 185.641 33.503 184.937 31.625 185.289 30.921 184.937 30.218 185.289 28.81 184.116 25.525 184.116 22.357 183.764 21.654 183.764 18.017 184.468 15.202 184.468 14.498 184.937 13.794 184.233 13.09 183.764 14.146 183.06 13.325 181.769 13.325 180.596 13.794 179.54 13.325 177.663 13.325 176.256 12.621 172.033 12.621 169.217 11.916 166.988 9.687 166.988 1.946 167.414 1.034 159.115 1.034 159.839 1.593 159.839 3.353 160.895 8.28 161.247 8.984 161.247 11.8 161.598 12.973 161.129 15.789 161.833 17.665 160.895 18.603 160.191 19.894 157.727 20.833 154.208 20.833 153.269 18.603 152.448 18.135 151.861 14.616 148.342 11.095 147.521 11.095 145.879 10.275 144.94 10.862 144.001 9.922 144.001 8.984 143.649 7.576 142.711 8.046 142.242 10.275 140.717 10.862 140.717 12.503 140.013 11.8 139.661 11.8 138.487 10.509 137.549 11.448 137.901 12.503 139.426 12.503 139.426 13.676 140.013 13.676 140.013 14.732 141.069 15.436 141.89 15.436 141.89 16.14 140.717 16.14 139.661 16.843 138.722 16.843 138.722 18.252 137.784 19.19 136.845 18.252 136.845 20.129 137.197 20.833 136.845 21.184 137.315 22.006 138.605 21.419 139.074 20.481 139.896 20.949 138.487 24 139.074 24 139.426 23.297 140.013 24 140.013 27.637 140.717 28.34 141.89 28.34 143.767 30.218 144.823 29.749 145.292 30.687 147.521 31.86 148.694 33.033 150.102 34.089 150.923 34.089 152.683 35.965 154.208 36.435 156.202 38.313 157.727 39.133 161.364 43.591 163.006 48.167 163.006 50.513 163.475 56.378 162.889 56.848 163.945 57.903 163.241 58.608 164.179 59.546 164.179 61.423 162.889 61.423 163.475 62.831 163.475 64.238 164.531 64.708 164.531 65.294 163.827 65.294 163.475 64.942 162.302 66.35 161.598 69.635 161.598 71.042 159.839 71.042 159.487 73.037 157.493 74.093 156.789 75.5 154.442 76.791 153.856 77.847 151.979 77.847 151.022 78.288 187.138 78.288 186.931 78.081 186.345 74.796" fill="#fff"/>
      <polygon points="191.741 14.146 191.741 13.794 190.568 13.794 190.92 14.146 191.741 14.146" fill="#fff"/>
      <polygon points="138.722 13.676 137.549 13.207 137.549 13.676 138.136 14.146 138.722 13.676" fill="#fff"/>
      <polygon points="201.83 15.202 203.12 16.492 203.472 19.073 202.651 21.654 203.12 24.117 202.768 24.822 202.768 27.051 203.12 28.458 203.12 34.559 203.59 37.608 203.12 38.43 203.12 40.659 202.768 41.362 203.472 42.418 203.472 48.87 203.941 49.691 203.472 49.926 203.472 52.507 204.293 52.507 204.293 53.563 204.645 54.267 203.59 54.853 204.293 56.143 204.645 55.792 204.997 55.792 204.997 57.083 203.472 58.608 203.941 61.423 204.997 63.886 204.645 65.411 203.941 66.467 204.293 67.875 204.645 68.345 203.941 69.751 203.941 76.556 202.979 78.288 389.836 78.288 389.836 1.034 220.366 1.034 220.834 3.001 220.834 4.409 221.304 8.163 220.248 10.157 218.958 10.862 217.902 11.213 215.79 11.213 212.153 11.916 209.925 11.916 207.578 12.268 206.405 11.565 206.053 11.916 204.293 12.621 203.59 12.034 201.126 12.621 200.774 13.325 201.478 14.146 201.83 15.202" fill="#fff"/>
      <path d="M23.389,78.288h5.083l-.255-.441v-3.285l-1.056-.586h-.703l1.407-1.408v-2.228l1.76-1.643,2.229-.938,3.519.469h7.508l1.877.47h2.464l1.056,1.055v7.391l-.573,1.145h11.133l-.268-.089h-4.458l-2.815-.705-.939-.821.939-3.401v-1.526l.704-1.406v-1.761l.469-.703.352-2.229.704-.351v-1.877l.586-1.994v-1.173l1.877-6.453.704-.703v-1.408l1.408-4.341v-2.111l1.525-2.816.703-3.285.587-1.173v-1.29l1.525-1.878-.352-1.055.352-1.526.704-.703v-1.056l.704-.938.352-2.23,2.229-6.451v-.703l.821-2.934h.587v-1.055l.821-3.519,1.759-1.173,1.056,1.055.352,2.229,1.056,1.408v1.76l.704.703v1.878l.704.352.704,1.056v.351h-.351v1.056l.351.703,1.056-.703.586-1.056h1.291l.352-1.173-1.877-1.291.352-.821h1.291l.586-1.056-.704-.705-.352-1.407.938-2.347-.821-1.642.586-2.346-.704-2.346v-2.816l.704-1.76-.352-.704v-.794H24.936l.113.207v1.408l.351,1.408v2.111l1.173.705.586,1.29-1.29.704.938,2.346,1.056,1.055v1.173h-.704l-1.29-.469-.47.469v1.761h.704l.352.703,1.173.587-1.291.703.586,1.878-.469.47h-.352v1.76l-.704.703v1.408l-.351.703.704.705v1.524l.469,1.408h-1.056l-.586,1.291.469.586v.938h-.704v.704l.704.351.351.704-.704,1.525v.705l-.352.351v1.525l-.469,1.291v1.055l-.352.821,1.173,1.056v.351l.352.352-.704,1.525v6.804l-.821.587.352.351v3.637l1.173,1.056,1.056.587v.82h-1.76l-.469,1.76.469,2.229.352.705-.821,1.173.469,2.346-.586,1.173.586,1.29.704-1.29.704.352v1.408h-1.877v1.525l.821.94v.703h.704l.704.703-1.291,1.291.704.703-1.642,2.112-.487,2.435ZM27.513,63.535l.469.586-.821.821-.469-1.408h.821Z" fill="#fff"/>
      <polygon points="89.892 7.341 91.886 9.336 92.59 11.095 93.177 12.034 92.59 12.503 94.115 14.029 94.35 16.843 95.758 17.195 94.35 18.603 94.35 20.481 95.054 21.889 96.931 21.889 97.635 22.592 95.64 23.53 96.227 25.76 96.227 27.284 96.931 28.692 97.635 31.508 97.635 33.033 98.691 35.145 98.339 36.083 99.864 38.781 99.864 39.486 100.567 39.133 100.567 39.837 100.216 40.189 100.216 42.418 100.92 43.122 101.858 43.357 100.92 44.413 101.858 46.641 101.858 47.697 102.679 48.518 103.031 48.518 103.031 49.926 103.383 50.513 103.383 52.389 103.735 53.094 103.735 56.613 104.791 57.786 104.791 61.188 106.785 60.484 107.606 61.305 105.612 61.775 107.137 66.585 108.779 67.523 108.779 69.635 108.31 70.339 107.958 69.986 107.958 69.635 107.606 69.986 107.606 71.746 107.958 72.45 107.958 73.975 108.779 74.68 108.779 78.288 114.6 78.288 114.204 77.494 113.617 76.908 112.796 73.623 112.796 69.283 111.389 67.875 111.389 66.35 112.21 64.824 111.389 62.478 111.389 57.786 112.796 55.088 115.612 54.619 116.785 54.619 117.841 54.149 121.477 53.797 123.589 56.613 126.053 62.596 129.572 65.411 131.449 65.998 132.27 65.998 133.913 70.339 133.913 72.099 134.382 73.505 133.56 74.327 133.56 77.143 132.622 78.199 132.622 78.288 137.572 78.288 137.197 76.791 136.845 73.623 137.315 72.802 136.728 70.104 138.253 67.171 140.365 65.998 141.538 65.998 144.823 64.591 145.879 63.417 147.521 62.244 148.811 57.316 147.521 53.797 146.23 51.334 144.823 49.926 143.649 49.575 143.18 48.636 141.538 47.697 139.661 45.938 138.253 45.586 137.197 44.413 134.617 43.122 130.393 40.541 128.164 39.486 124.879 37.139 123.355 35.262 121.712 34.441 121.36 33.737 120.422 33.267 119.952 31.86 119.014 31.391 116.316 26.229 115.612 19.659 115.612 14.381 116.902 8.514 119.952 3.822 121.36 3.47 121.947 2.532 124.194 1.034 88.179 1.034 89.188 3.119 89.892 7.341" fill="#fff"/>
      <polygon points="78.278 23.648 77.574 23.648 77.574 24.352 77.926 24.703 78.278 24.352 78.278 23.648" fill="#fff"/>
      <polygon points="25.401 19.073 25.754 18.721 25.401 18.721 25.401 19.073" fill="#fff"/>
      <polygon points="75.697 28.224 77.574 27.284 75.697 27.284 75.697 28.224" fill="#fff"/>
      <polygon points="76.049 25.994 76.049 24.703 74.759 25.408 76.049 25.994" fill="#fff"/>
      <rect x="24.346" y="25.994" width=".704" height=".351" fill="#fff"/>
      <polygon points="6.045 77.494 6.045 73.975 6.397 71.394 6.397 67.523 6.749 66.467 6.397 64.004 6.749 62.948 7.453 54.853 8.157 50.981 7.57 50.395 8.157 48.167 8.157 43.473 8.508 39.251 8.508 33.151 8.861 29.631 8.157 20.716 8.978 19.308 8.508 18.37 8.508 10.862 9.549 1.034 .882 1.034 .882 78.288 6.789 78.288 6.045 77.494" fill="#fff"/>
      <path d="M119.45,113.831h12.578c.891,0,1.387-.495,1.387-1.387v-3.764c0-.891-.496-1.386-1.387-1.386h-12.578c-4.061,0-6.339-2.279-6.339-6.339v-7.131c0-.892-.495-1.387-1.386-1.387h-7.825c-.891,0-1.386.495-1.386,1.387v55.464c0,.693.099,1.09.297,1.684l7.132,17.63c.297.793.792,1.09,1.585,1.09h20.502c.891,0,1.387-.495,1.387-1.387v-3.763c0-.892-.496-1.387-1.387-1.387h-9.409c-2.971,0-5.547-1.189-6.636-4.26l-1.782-4.952c-.99-2.773-1.09-4.853-1.09-7.824v-25.949c0-4.061,2.278-6.339,6.339-6.339Z" fill="#fff"/>
      <path d="M170.851,108.284c-.297-.693-.891-.99-1.585-.99h-18.323v-13.47c0-.892-.496-1.387-1.387-1.387h-7.824c-.891,0-1.387.495-1.387,1.387v74.48c0,.892.495,1.387,1.387,1.387h7.824c.891,0,1.387-.495,1.387-1.387v-48.135c0-4.061,2.278-6.339,6.339-6.339h3.169c3.665,0,5.546,1.981,6.834,5.546l1.485,4.16c.99,2.674.891,4.853.891,7.627v37.141c0,.892.495,1.387,1.387,1.387h7.824c.891,0,1.386-.495,1.386-1.387v-41.4c0-.594-.099-1.089-.396-1.684l-9.013-16.936Z" fill="#fff"/>
      <path d="M197.986,168.701c.297.693.891.99,1.684.99h20.898c.693,0,1.288-.297,1.684-.892l8.617-11.886c.396-.495.594-1.089.594-1.782v-1.287c0-.892-.495-1.387-1.386-1.387h-8.518c-.792,0-1.287.495-1.386,1.387-.198,1.089-.396,1.684-.891,2.971l-.396.99c-1.387,3.466-3.269,5.348-7.032,5.348h-2.377c-3.368,0-5.447-1.882-6.537-5.348l-2.377-9.013c-1.386-4.358,1.09-7.032,5.546-7.032h23.969c.891,0,1.386-.495,1.386-1.387v-16.936c0-.594-.198-1.189-.495-1.684l-8.319-13.569c-.396-.594-.99-.891-1.684-.891h-21.393c-.693,0-1.288.395-1.684.99l-8.914,15.649c-.297.594-.495,1.09-.495,1.684v21.789c0,.694.099,1.09.396,1.684l9.112,19.611ZM200.858,122.646l1.288-3.566c1.288-3.665,4.358-5.249,8.518-5.249,3.269,0,5.943,1.188,7.725,4.258,1.585,2.674,2.377,4.853,2.377,8.023v2.773c0,4.061-2.179,6.339-6.24,6.339h-8.617c-3.863,0-6.042-1.981-6.24-5.844.099-1.981.396-4.655,1.188-6.734Z" fill="#fff"/>
      <path d="M301.773,183.969c0-.07.035-.123.106-.159.07-.035.106-.123.106-.266v-.636l-.213-.638c-.283-.494-.708-.743-1.274-.743s-1.08.105-1.539.318c-.461.212-.939.319-1.433.319h-3.822c-.213,0-.496-.07-.85-.212-.355-.141-.602-.281-.743-.424h-.424c-.85.283-2.054.46-3.61.53-1.558.071-3.097.124-4.619.16-1.523.036-2.903.053-4.141.053s-1.964.106-2.176.319l-.213.424v.956l.425.636c1.062.284,1.946.425,2.654.425s1.38.053,2.017.16c.637.106,1.291.302,1.964.583.672.284,1.503.85,2.496,1.699.212.425.318.849.318,1.274,0,1.345-.212,2.814-.637,4.407-.425,1.593-.815,2.991-1.168,4.194-.071.355-.372,1.274-.903,2.761-.531,1.485-1.186,3.274-1.964,5.362-.78,2.088-1.611,4.299-2.495,6.636-.886,2.336-1.699,4.512-2.442,6.53-.743,2.017-1.399,3.699-1.965,5.043-.567,1.345-.92,2.053-1.061,2.123-.143.78-.408,1.629-.796,2.548-.389.922-.796,1.859-1.221,2.814-.424.955-.868,1.895-1.327,2.814-.461.92-.838,1.77-1.13,2.548l-.881.849-.551.213h-.662l-.439-.424v-1.063c0-.565-.037-.955-.106-1.168-.071-.14-.16-.264-.266-.371s-.231-.229-.371-.372c-.143-.425-.284-.884-.425-1.38-.143-.495-.318-.919-.531-1.274-.496-.354-.992-.531-1.487-.531l-.424.106c-.143.284-.213.531-.213.744,0,.142.07.424.213.849l.319.319.106.424c-.142.144-.336.302-.584.478-.249.178-.443.302-.584.372l-.531.743c-.284.143-.62.284-1.008.425-.39.142-.834.355-1.327.636h-.638c-.143,0-.283-.069-.424-.211-.143-.141-.249-.283-.318-.425-.072-.141-.106-.319-.106-.531s.035-.387.106-.53c.282-.283.459-.531.531-.744v-.636l-.85-.957c.148-.636.445-1.168.891-1.592.445-.425.816-.885,1.113-1.38h.332c0,.355-.053.636-.16.849-.106.213-.159.425-.159.638.141.424.388.708.743.849h1.274c.07,0,.213-.106.425-.319.141-.213.212-.459.212-.743s.035-.531.106-.744l.743-.318c.282-.283.459-.495.531-.638v-1.168c-.997-2.052-1.727-4.123-2.19-6.211-.463-2.088-1.122-4.194-1.976-6.318-.143-.494-.231-1.008-.267-1.538-.037-.531-.196-1.01-.479-1.434-.214-.282-.482-.797-.802-1.54-.321-.744-.66-1.557-1.015-2.442-.355-.885-.675-1.716-.961-2.496-.285-.778-.463-1.379-.534-1.804l-.32-2.124c-.285-.636-.587-1.274-.907-1.91-.322-.638-.553-1.309-.695-2.018-.355-1.698-.658-3.414-.907-5.149-.249-1.733-.659-3.414-1.228-5.043,0-.07-.071-.106-.214-.106-.356,0-.785.106-1.282.319s-.818.319-.96.319c-.357.071-.82.106-1.389.106h-1.387l-.642.106-.425.424.853,1.381c.355.212.746.355,1.174.425.213.425.391.779.534,1.061.143.284.283.603.427.955-.143.284-.427.425-.855.425-.571,0-1.034-.07-1.389-.213-.285-.565-.426-1.096-.426-1.593l-.507-.53c-.543-.141-1.05-.46-1.523-.957-.136-.353-.222-.6-.255-.743-.033-.141-.05-.387-.05-.743s.035-.638.106-.85c.069-.213.176-.494.318-.849.213-.141.46-.425.743-.849.141-.07.354-.106.637-.106l.531.211c.354.638.813.956,1.38.956s1.009-.106,1.327-.319c.319-.213.69-.389,1.115-.531l.425.106c.141.213.372.408.69.585.319.178.584.372.796.583h.425l.319-.211.212-.425c.637-.425,1.309-.706,2.017-.849.707-.141,1.415-.213,2.124-.213l2.761.106c1.203,0,1.946-.354,2.23-1.063v-1.168c-.284-.141-.496-.246-.637-.317-.143-.07-.284-.176-.425-.319h-.955l-.743.319h-19.324c-.071,0-.212-.017-.424-.053-.213-.035-.921-.123-2.124-.266h-.531c-.78.355-1.682.495-2.707.424-1.027-.069-1.717.038-2.071.319-.071.143-.249.355-.531.638v.53c.353.425.76.709,1.221.85.459.143.972.213,1.539.213l2.336-.106,2.654,1.168.955.849c.354.425.707,1.186,1.062,2.282.353,1.099.653,2.267.902,3.505.247,1.239.46,2.425.638,3.556.176,1.133.265,1.912.265,2.336v1.168c0,.496-.036.85-.106,1.063-.283.424-.514.92-.69,1.485-.178.568-.336,1.169-.478,1.805-.143.638-.266,1.257-.371,1.858-.106.601-.266,1.115-.478,1.54l-1.911,3.291c-.284.568-.443,1.115-.477,1.646-.036.53-.16,1.045-.372,1.54-.143.355-.301.673-.478.955-.178.284-.371.568-.584.849-.143.213-.266.797-.371,1.752-.106.955-.196,1.576-.266,1.859-.355.355-.78,1.026-1.274,2.017-.496.993-.992,2.054-1.487,3.186-.496,1.133-.974,2.229-1.433,3.291-.461,1.061-.796,1.842-1.008,2.336-.213.568-.319,1.134-.319,1.699s-.178,1.133-.531,1.699c-.425.708-.78,1.363-1.061,1.964-.284.602-.425,1.293-.425,2.071-.355.425-.567.849-.637,1.274-.071.425-.178.885-.318,1.38l-.319.319c-.355-.07-.708-.283-1.061-.638l-.425-1.061-.637-.531h-.743c-.143.143-.213.249-.213.319v1.593l-.743.53c-.496-.14-.814-.424-.955-.849v-.636c0-.07.016-.247.052-.531.035-.282.07-.585.106-.902.035-.319.088-.761.16-1.327l.424-.213c.213,0,.388.125.531.372.141.249.282.442.425.583h.425l.319-.319v-.424c-.355-.779-.602-1.503-.743-2.177-.143-.671-.39-1.291-.743-1.857l-.637-.531c-.213-.636-.318-1.274-.318-1.91-.568-.779-1.062-1.54-1.487-2.284-.425-.743-.743-1.608-.956-2.601-.708-.778-1.061-1.593-1.061-2.442s-.213-1.628-.637-2.335l-.425-.425c-.355-.778-.673-1.608-.955-2.495-.284-.884-.568-1.752-.85-2.601-.142-.494-.389-.919-.743-1.274-.355-.354-.602-.744-.743-1.168l-.212-2.442c-.284-.213-.637-.601-1.062-1.168,0-1.344-.212-2.53-.637-3.558-.425-1.025-.921-2.033-1.487-3.026,0-.706-.143-1.396-.424-2.07-.284-.671-.531-1.327-.743-1.963-.143-.567-.249-1.151-.318-1.752-.071-.602-.249-1.185-.531-1.752-.355-.849-.85-1.892-1.486-3.131-.637-1.238-.956-2.354-.956-3.345l.637-1.38.956-.849c.778-.283,1.468-.46,2.07-.531.6-.07,1.221-.106,1.858-.106l2.973.106c.637,0,1.168-.213,1.593-.636l.106-1.274-.956-.744h-1.168l-3.61.319-3.716-.319h-2.548c-1.061,0-2.16.036-3.291.106-1.133.071-2.16.143-3.079.212-.921.071-1.558.213-1.912.425l-.212.317c.637.355,1.168.762,1.592,1.221.425.461.637,1.046.637,1.752,0,.284-.036.496-.106.638l-.317.318h-.425l-.741-.318-1.588-1.593c-.353-.141-.688-.212-1.007-.212s-.655-.07-1.008-.213l-.106-.319,1.274-1.38.106-.53c0-.213-.037-.354-.106-.425l-.319-.213-3.084.106-3.084-.53-.85.743c-.071.212-.124.39-.159.531-.037.143-.053.355-.053.636v.425c0,.142.035.284.106.425l.531.53h.637c.282.213.637.319,1.061.319.354,0,.76.071,1.221.213.46.143.866.284,1.221.424.282.284.547.55.796.797.247.249.548.477.903.689.141.071.282.124.425.16.141.036.247.124.319.266l1.274,2.973,1.061,1.487c.637,1.204,1.168,2.566,1.593,4.088.425,1.523.85,2.884,1.274,4.086l1.168,1.805.531,2.123.318.319c.424.993.76,2.018,1.009,3.079.247,1.061.584,2.054,1.008,2.973.566,1.204,1.097,2.389,1.593,3.556.494,1.168.99,2.425,1.486,3.769.141.355.229.727.266,1.115.035.39.122.762.265,1.115.141.355.3.656.478.903.176.249.335.515.478.796.778,1.629,1.38,3.098,1.805,4.407.425,1.31,1.131,2.779,2.123,4.407.07,1.061.388,2.247.956,3.556.566,1.31,1.185,2.654,1.858,4.035.672,1.38,1.327,2.744,1.964,4.088.637,1.345,1.131,2.513,1.486,3.503l.425,2.229c.07.213.176.425.319.638.141.213.282.39.425.531.425.708.725,1.505.903,2.389.176.885.441,1.682.796,2.389.07.213.319.461.743.743h.531c.424,0,.706-.034.849-.106l.425-.53c.141-.354.229-.724.265-1.115.035-.389.053-.761.053-1.115.704-.495,1.126-1.238,1.268-2.23.141-.99.492-1.768,1.057-2.336.069-.778.298-1.503.687-2.176.388-.672.652-1.503.792-2.495.282-.141.687-.85,1.214-2.124.527-1.274,1.073-2.689,1.637-4.247.564-1.555,1.091-3.06,1.586-4.512.493-1.45.844-2.495,1.057-3.133v-.106c0-.07.017-.106.053-.106.035,0,.053-.035.053-.106,0-.069.176-.441.527-1.115.352-.671.599-1.256.74-1.752.421-.353.685-.724.791-1.115.106-.388.194-.831.265-1.327.211-.281.369-.636.474-1.061.106-.425.301-.813.583-1.168,0-.141.088-.478.264-1.008.176-.531.387-1.115.634-1.752.246-.636.474-1.238.687-1.805.211-.565.352-.955.423-1.168l.423-.53c.422-1.344.844-2.707,1.268-4.088.422-1.381.951-2.707,1.587-3.982.139-.354.227-.673.264-.955.034-.282.122-.601.264-.956.069-.141.299-.406.687-.796.386-.389.721-.585,1.003-.585l.529.106c.139.143.352.515.634,1.115.282.603.493,1.01.634,1.221,0,.993.222,2.124.67,3.398.446,1.274.931,2.336,1.454,3.184l.106,1.593c.566.993.938,1.93,1.115,2.814.176.887.478,1.824.902,2.814l1.168,2.018c.069.211.176.548.318,1.008.141.461.266.955.372,1.486.106.53.212,1.045.318,1.538.106.496.195.85.266,1.063,0,.071.087.302.265.689.176.39.372.834.584,1.327.213.496.46,1.133.743,1.912l.319.317c.282.568.477,1.205.584,1.912.106.709.335,1.345.69,1.911l.318.211c.283.497.407.993.372,1.487-.036.496.017.993.159,1.486.425,1.061.866,2.107,1.327,3.133.459,1.026.866,2.07,1.221,3.131.141.355.265.656.371.903.106.249.194.548.266.902.141.143.229.39.265.744.035.354.088.636.16.849.282,1.345.707,2.672,1.274,3.981.566,1.31,1.025,2.637,1.381,3.982l.323.213h.647l.323-.213,1.619-5.096c.286-.283.573-.759.862-1.433.287-.673.555-1.38.808-2.124.252-.743.467-1.485.648-2.229.18-.743.306-1.291.379-1.646.142-.565.358-1.008.647-1.327.287-.317.431-.902.431-1.751,0-.495-.036-.885-.106-1.168l.106-.319c.425-.213.85-.726,1.274-1.54.425-.812.831-1.699,1.221-2.654.388-.955.707-1.894.956-2.814.247-.919.441-1.593.584-2.017.353-.354.796-1.116,1.327-2.284.531-1.168,1.078-2.442,1.646-3.822.566-1.38,1.096-2.724,1.592-4.034.494-1.309.85-2.246,1.062-2.814.069-.069.176-.281.318-.636.141-.354.3-.726.477-1.115.176-.389.319-.779.425-1.168s.194-.654.265-.797c.213-.141.372-.425.478-.849.106-.425.229-.779.371-1.061.353-.92.637-1.858.85-2.814.212-.957.495-1.893.85-2.814l3.397-7.538c.425-1.131.831-2.319,1.221-3.558.388-1.238.724-2.459,1.008-3.663l.425-.638c.778-1.203,1.646-2.442,2.601-3.716.956-1.274,2.071-2.087,3.345-2.442l1.699-.212c.282-.141.566-.281.85-.424.282-.141.6-.247.955-.319l1.805.213c.283,0,.495-.035.637-.106ZM202.077,191.719h-.637c-.213,0-.55-.194-1.009-.585-.461-.387-.69-.724-.69-1.008v-.531l.531-.105.85.211.637.425c.282.425.425.815.425,1.168l-.106.425ZM209.19,200.744c0,.568.07,1.045.212,1.433.141.39.282.762.425,1.115-.071.568-.355.955-.85,1.168h-1.061l-.425-.317-.106-1.275c0-.353.069-.671.212-.955.141-.141.407-.353.796-.636.388-.283.654-.46.796-.531ZM205.049,201.488l-.318.105h-.743c-.071,0-.178-.069-.319-.211l-.106-.425v-.744l.106-.317.531-.213c.425.143.743.39.955.743l.106.319-.213.744ZM205.049,188.64h-.531c-.143,0-.355-.175-.637-.53-.284-.354-.461-.638-.531-.85l.318-.636.956-.319c.282,0,.459.036.531.106.07.071.141.143.213.213l.106.317v1.063l-.425.636ZM206.868,198.674c-.358-.176-.68-.372-.966-.585l-.428-.636v-.85l.428-.424.322-.106c.57.211,1,.513,1.286.902.285.39.536.867.751,1.433v.636l-.321.106c-.358-.141-.715-.299-1.072-.477ZM211.208,221.659h-.424l-.319-.213-.106-.317v-.85l1.168,1.274-.318.106ZM212.588,219.111h-1.168l-.319-.213-.318-2.654-.425-.106-.743.531-.637-.636,1.699-.213.106-.425-.106-.425-.637-.318h-1.38l-.425.211c-.354-.281-.584-.636-.69-1.061-.106-.424-.159-.813-.159-1.168,0-.565.069-.99.212-1.274l.319-.319.318-.106c.354.143.707.266,1.062.372.353.106.706.231,1.061.372h.531c.141-.136.213-.308.213-.515v-1.646c0-.411-.106-.788-.318-1.131h-.531c-.143.139-.283.242-.425.312-.143.071-.284.178-.425.319l-.637-.425v-.452c.069-.378.141-.625.212-.737.07-.113.176-.244.319-.397h.637l.743.744c.425,0,.724.036.902.106.176.071.407.284.69.636l.425.956c0,.495-.178.973-.531,1.432-.355.461-.674.834-.956,1.116l-.106.318v1.805l.106.319c.425.142.919.284,1.487.424-.213.355-.337.603-.372.744-.036.143-.053.355-.053.636,0,.496.088.922.266,1.274.176.355.266.744.266,1.169l-.213.424ZM217.26,229.41c-.355.144-.531.249-.531.319v2.018l-.425.955v.849c.566.993.85,1.805.85,2.443-.496-.567-.886-.885-1.168-.957-.284-.07-.497-.175-.637-.319-.142-.14-.231-.406-.266-.796-.036-.387-.053-1.185-.053-2.389v-.531c0-.212.035-.387.106-.53l.743-.85c-.143-.353-.319-.653-.531-.902-.213-.247-.39-.478-.531-.689l.212-2.55c-.143-.424-.284-.849-.424-1.274-.143-.424-.213-.849-.213-1.274,0-.353.088-.69.266-1.008.176-.319.371-.653.584-1.008l.318-.213c.566.072.92.319,1.062.743.141.425.212.922.212,1.487,0,.355-.018.691-.052,1.009-.037.318-.053.548-.053.69,0,.709.106,1.398.318,2.071.213.673.319,1.398.319,2.176,0,.213-.037.39-.106.53ZM219.171,229.835l.318-.106.106.531-.531-.106.106-.319ZM221.719,245.442c-.143,0-.231-.016-.265-.053-.037-.034-.09-.053-.16-.053l-1.168-1.168c-.143-.281-.213-.547-.213-.796,0-.247-.036-.513-.106-.796-.143-.495-.371-.973-.69-1.433-.318-.46-.478-1.291-.478-2.495l.212-.744.637-.319c.494.142.92.39,1.275.744.353.355.531.742.531,1.168-.071.355-.159.621-.266.796-.106.178-.231.337-.371.478v.955c.069.143.159.284.265.425.106.142.229.284.372.425.141.283.3.69.478,1.221.176.53.266.902.266,1.115l-.319.53ZM221.931,235.144c-.284.284-.461.496-.531.638l-.956.106-.424-.106c-.143-.141-.408-.389-.796-.744-.39-.353-.584-.743-.584-1.168,0-.141.053-.281.16-.425.106-.14.194-.246.265-.318.282-.141.566-.212.85-.212.353,0,.69.071,1.008.212.319.143.654.284,1.009.424l.106,1.063-.106.53ZM224.055,243.744l-.531.317c-.354,0-.531-.175-.531-.53.07-.282.247-.531.531-.744l.531.531v.425ZM250.067,194.161c.354.071.672.249.956.531.069.355.247.708.531,1.061.282.355.425.674.425.955l-.425.531-.318.106c-.497-.07-.886-.319-1.169-.744v-2.442ZM246.044,195.01c.07,0,.213.038.425.106.212.071.353.143.425.213l-.425.319-.85-.638h.424ZM245.927,198.408l-.213-.744c.282-.281.459-.494.531-.636.282-.141.531-.213.743-.213.353.072.584.249.69.531.106.284.194.53.265.743.212.143.566.213,1.061.213h.85c.353,0,.69.036,1.008.106.319.071.619.284.903.636v.744c-.355.284-.743.424-1.168.424s-.85-.016-1.274-.052c-.425-.035-.815-.194-1.169-.478l-.531-1.061c-.284-.141-.567-.213-.85-.213h-.849ZM249.956,208.494l-.106-.319.531-.317.637.424-.318.319-.319.106-.425-.212ZM252.616,215.821l-.637.318-.743-.211-.106-1.486-.443-.85c0-.211.148-.387.443-.53.353.355.531.601.531.743,0,.143.319.39.956.744l.318.424-.318.85ZM252.062,209.931l.638-.106.106.621-.745-.515ZM253.571,204.778l-.213.531c-.142.143-.265.231-.371.264-.106.038-.231.091-.371.16-.992-.281-1.77-.706-2.336-1.274-.567-.565-1.239-1.025-2.017-1.38-.212.143-.389.249-.531.319-.143.071-.284.178-.425.319l-.213-.319c.069-.283.282-.494.637-.636.353-.141.601-.319.743-.531,0-.282.106-.531.318-.742l.531-.106.742.211c.141.071.266.284.372.638.106.355.335.603.69.743l.955.106c.282.143.584.302.903.478.319.178.513.408.584.69v.531ZM254.845,211.467c-.284-.212-.496-.389-.637-.531.07-.352.247-.6.531-.742h.743l.425.106c.353.213.547.53.584.955.034.425.229.78.584,1.061.069.143.106.319.106.531v.531c.141.142.335.371.584.689.247.319.371.621.371.902,0,.425-.196,1.081-.584,1.965-.389.885-.69,1.54-.903,1.964-.142-.14-.318-.477-.531-1.008-.212-.53-.39-1.078-.531-1.646-.142-.565-.265-1.096-.371-1.592-.106-.495-.159-.814-.159-.956l.531-1.168v-.53c-.212-.141-.461-.319-.743-.531ZM257.818,226.968l-1.487-1.487c-.071-.14-.106-.317-.106-.53,0-.283.017-.566.053-.85.035-.281.122-.53.266-.743v-.636l-1.274-.638c-.072-.07-.106-.213-.106-.425.141-.565.6-.919,1.38-1.061.566.284.99.531,1.274.744.141,0,.424-.07.849-.213l.319.213c-.143.211-.302.407-.478.583-.178.178-.266.337-.266.478,0,.495.106.955.319,1.38h.742c.141-.141.283-.301.425-.478.141-.176.282-.266.424-.266l.425.319.212.849v.956c0,.284-.125.601-.371.955-.249.355-.478.636-.69.849l-.531.106h-1.062l-.318-.106ZM263.445,235.463l.425-.319.849.212c.566.568.956,1.168,1.169,1.805l-.213.53h-.425l-1.275-.319c-.142-.281-.283-.459-.424-.53l-.213-1.061.106-.319ZM264.613,245.336c-.143.284-.283.461-.425.531l-.637-.213-1.38-1.91h.425c.141,0,.425.09.849.264.425.178.707.302.85.372l.318.319v.636ZM267.586,240.984c0,.424-.284.849-.85,1.274l-.424.106h-1.911c-.143-.07-.302-.159-.478-.266-.178-.106-.337-.229-.478-.372-.072-.141-.16-.299-.265-.477-.106-.176-.231-.336-.372-.478v-1.593l.743.638c.707,0,1.274.249,1.699.743h.425c.141-.141.3-.425.478-.849.176-.425.335-.638.477-.638l.637.425c.07.071.141.212.212.425.07.211.106.354.106.424v.638ZM289.139,185.667h-.531l-.424-.636.424-.106.425.106.212.319-.106.318Z" fill="#fff"/>
      <path d="M373.547,212.848c-.143-.354-.213-.691-.213-1.008v-1.01l.106-3.078c-.142-.354-.318-.654-.531-.903-.213-.246-.39-.547-.531-.902-.212-.352-.355-.742-.425-1.168-.637-1.556-1.221-2.955-1.752-4.194-.531-1.238-1.133-2.405-1.805-3.503-.674-1.097-1.47-2.211-2.389-3.345-.92-1.131-2.054-2.336-3.398-3.609-.142-.141-.318-.247-.531-.319-.212-.069-.425-.175-.637-.317-1.204-.495-1.947-1.045-2.229-1.646-.284-.602-.78-1.043-1.487-1.327-.212-.07-.461-.141-.743-.212-.284-.07-.496-.176-.637-.319-.568-.565-1.133-1.061-1.699-1.487-.567-.424-1.133-.636-1.698-.636l-.424.106c-1.629-.99-3.504-1.716-5.628-2.177-2.124-.459-4.141-.689-6.052-.689h-8.069c-1.274,0-2.478.196-3.61.583-1.133.39-2.301.585-3.504.585-.212,0-.531.106-.955.319-.425.213-.886.443-1.38.69-.496.249-.974.496-1.433.744-.461.249-.833.408-1.115.477-.78.213-1.399.497-1.858.85-.461.355-.973.743-1.539,1.168l-4.672,2.654c-.425.284-1.08.974-1.964,2.07-.886,1.099-1.823,2.302-2.814,3.611-.992,1.31-1.911,2.584-2.761,3.822-.85,1.239-1.416,2.106-1.698,2.601-.143.213-.302.832-.478,1.857-.178,1.028-.371,2.142-.584,3.345-.212,1.204-.389,2.354-.531,3.45-.143,1.099-.249,1.823-.319,2.177-.143.566-.371,1.08-.69,1.538-.319.462-.478,1.01-.478,1.646l.319,9.556c0,.568.141,1.204.424,1.91.282.709.601,1.275.956,1.699.282,1.558.724,3.292,1.327,5.202.6,1.912,1.309,3.822,2.123,5.734.813,1.912,1.752,3.681,2.814,5.309,1.062,1.629,2.194,2.973,3.398,4.035,1.131.992,2.548,1.895,4.247,2.707,1.698.814,3.254,1.505,4.672,2.07.637.355,1.362.744,2.176,1.168.813.425,1.61.638,2.389.638.778.355,1.45.674,2.017.955.566.284,1.115.514,1.646.691.531.175,1.096.317,1.699.424.6.106,1.327.159,2.176.159.212,0,.494-.018.85-.053.353-.036.743-.053,1.168-.053.566.141,1.115.301,1.646.478.531.176,1.078.265,1.645.265l5.84-.425c.706,0,1.29-.124,1.752-.372.459-.249,1.008-.477,1.646-.69h2.76c.778,0,1.503-.283,2.177-.849.672-.567,1.327-.992,1.964-1.274.919-.354,2.246-1.131,3.982-2.337,1.733-1.203,3.468-2.548,5.202-4.035,1.734-1.487,3.238-2.989,4.512-4.512,1.275-1.522,1.912-2.777,1.912-3.769,0-.495-.196-.814-.585-.956-.389-.141-.584-.353-.584-.636,0-.495.301-.744.903-.744s1.043-.106,1.327-.317c.566-.425.956-.992,1.168-1.699.212-.706.425-1.38.637-2.018.637-1.839,1.025-3.769,1.168-5.786.141-2.018.212-3.981.212-5.893l.531-6.901c0-.565-.143-.972-.425-1.221-.284-.246-.496-.547-.637-.902ZM360.594,198.249c.141-.389.318-.796.531-1.221,0-.495-.143-1.025-.425-1.593l.637-.636c.566,0,.938.143,1.115.424.176.284.265.709.265,1.274.494.78.743,1.558.743,2.337-.332.354-.627.761-.886,1.221-.258.46-.672.69-1.238.69l-.849-.531-.106-.636c0-.494.069-.937.213-1.327ZM355.922,189.277l.531-.106c.141.071.459.178.955.319.494.142.743.317.743.53,0,.993-.389,1.486-1.168,1.486h-.425c-.637-.636-.956-1.274-.956-1.912l.319-.317ZM358.577,194.161l-.637.955-.638-.636c0-.213.106-.407.319-.585.213-.175.388-.334.531-.477l.425.743ZM316.532,190.339c.494-.495.866-.813,1.115-.955.247-.141.69-.213,1.327-.213h.637c.07.143.16.355.266.636.106.284.16.496.16.638,0,.071-.106.249-.319.53-.213.284-.461.568-.743.85-.284.284-.549.53-.796.743-.249.213-.408.319-.478.319-.424,0-.796-.141-1.115-.425-.319-.281-.478-.636-.478-1.061l.425-1.061ZM313.558,196.284c.354.144.531.39.531.744l-.319.425-.85-.744.637-.425ZM308.25,203.451c.283-.319.743-.478,1.381-.478h.531l.212.319c-.284.355-.478.868-.584,1.54-.106.674-.478,1.008-1.115,1.008-.425-.141-.78-.353-1.062-.636l-.106-.425c.212-.565.459-1.008.742-1.327ZM312.338,242.523c-.106.46-.371.69-.796.69-.212,0-.443-.16-.69-.478-.249-.318-.496-.671-.743-1.061-.249-.387-.496-.778-.743-1.168-.249-.388-.478-.69-.69-.902-.143-.141-.39-.283-.743-.425-.355-.141-.531-.354-.531-.636v-1.699c-.213-.354-.443-.6-.69-.744-.249-.14-.478-.264-.69-.371-.212-.106-.408-.247-.584-.425-.178-.176-.266-.512-.266-1.008,0-.141.176-.336.531-.585.354-.246.601-.441.743-.583.425.213.884.318,1.38.318.353,0,.619-.087.796-.265.176-.176.318-.372.424-.585.106-.212.213-.407.319-.583.106-.176.3-.266.584-.266.494,0,.796.477.902,1.433.106.955.159,1.822.159,2.601v.636c0,.993.248,1.859.743,2.601.495.744.743,1.505.743,2.284,0,.354-.053.761-.159,1.221ZM306.127,232.064l.425-.424.318.319-.425.53-.318-.425ZM362.292,232.915c-.212.849-.408,1.664-.584,2.442-.178.78-.337,1.487-.478,2.123-.143.638-.284,1.063-.425,1.274-.355.425-.796.797-1.327,1.116-.531.317-.974.69-1.327,1.115-.212.284-.408.583-.584.902-.178.319-.337.656-.478,1.008-.142.213-.372.515-.69.904-.319.389-.69.796-1.115,1.221-.425.424-.815.814-1.169,1.168-.355.355-.602.601-.743.743-.354.355-1.186.815-2.495,1.38-1.311.568-2.726,1.152-4.247,1.752-1.524.603-3.01,1.151-4.46,1.646-1.452.495-2.46.885-3.026,1.168-.568.284-1.168.443-1.805.477-.637.038-1.275.053-1.911.053h-1.168c-.78,0-1.345-.034-1.698-.106-.355-.068-.655-.175-.903-.317-.249-.141-.514-.319-.796-.531-.283-.213-.708-.425-1.274-.636-1.204-.495-2.107-.92-2.707-1.274-.602-.354-1.115-.726-1.539-1.116-.425-.387-.868-.813-1.327-1.274-.462-.459-1.152-1.008-2.071-1.645-.355-.283-.708-.495-1.062-.638-.355-.141-.673-.387-.955-.743-.284-.354-.568-.867-.85-1.54-.284-.673-.567-1.115-.85-1.327-.355-.354-.849-.726-1.486-1.115-.637-.389-.992-.867-1.062-1.434-.212-1.415-.584-2.654-1.115-3.716-.531-1.063-1.08-2.231-1.646-3.505v-.425c0-1.768-.531-3.432-1.592-4.99-1.062-1.555-2.23-2.829-3.504-3.822-.992-.141-1.858-.459-2.601-.955-.743-.495-1.115-1.238-1.115-2.229,0-.213.016-.407.053-.585.034-.176.088-.372.159-.585-.355-.424-.796-.866-1.327-1.327-.531-.459-.796-.972-.796-1.538,0-.495.159-.85.478-1.063.318-.212.653-.388,1.008-.53.566-.567.92-.957,1.062-1.168.14-.213.212-.425.212-.638s-.053-.459-.159-.743c-.106-.283-.16-.708-.16-1.274,0-.213.122-.442.371-.691.247-.248.547-.494.903-.743.353-.247.706-.46,1.061-.638.354-.175.601-.266.743-.266.282,0,.637.249,1.062.744.425.496.706.814.849.955l.106.638c0,.567-.318,1.08-.955,1.538-.637.461-1.133.94-1.486,1.433.069.143.213.337.425.585.212.249.388.443.531.585.07.212.106.495.106.849,0,.071-.124.196-.371.372-.249.178-.496.389-.743.636-.249.249-.497.514-.743.797-.249.283-.371.567-.371.849l.425.53c.069,0,.229.091.478.265.247.178.531.372.85.585.318.213.619.39.903.53.282.144.459.213.531.213.353,0,.637-.213.85-.636.212-.425.318-.779.318-1.061l-.743-2.23c0-.07.123-.353.372-.849.247-.495.531-1.078.849-1.752.319-.671.601-1.397.85-2.176.247-.778.406-1.486.478-2.124.07-1.274.319-2.654.743-4.14.425-1.486.972-2.937,1.646-4.353.672-1.415,1.415-2.777,2.229-4.088.813-1.309,1.681-2.424,2.601-3.345.354-.353.884-.796,1.593-1.327.707-.53,1.061-1.078,1.061-1.645,0-.708-.143-1.168-.425-1.38-.284-.213-.673-.319-1.168-.319h-.637c0-.567.16-.99.478-1.274.319-.283.725-.495,1.221-.638.566,0,1.115.231,1.646.691.531.461,1.008.69,1.433.69.494,0,.902-.14,1.221-.424.318-.283.584-.601.796-.957.212-.352.424-.671.637-.955.212-.281.459-.425.743-.425l1.275.212c.353,0,.778-.141,1.274-.424.495-.283,1.008-.601,1.539-.957.531-.353,1.025-.671,1.487-.955.459-.283.832-.425,1.115-.425.778,0,1.344.249,1.699.744.353.496,1.061.743,2.124.743.282,0,.495-.07.637-.213.141-.14.265-.281.371-.424.106-.141.213-.282.319-.425.106-.141.3-.213.584-.213.495,0,.866.178,1.115.531.247.355.513.743.796,1.168.282.425.601.814.955,1.168.354.355.884.531,1.593.531l.319-.425c0-.567.052-1.043.159-1.434.106-.387.441-.585,1.009-.585.919,0,1.38.425,1.38,1.275,0,.354-.159.636-.478.849-.318.213-.584.39-.796.53l-.106.319c0,.638.282,1.115.85,1.433.565.319,1.131.478,1.699.478.353,0,.547-.141.584-.425.035-.281.07-.618.106-1.008.035-.389.16-.724.371-1.008.212-.283.637-.425,1.274-.425.566,0,1.185.231,1.859.689.671.461,1.008,1.01,1.008,1.646,0,.355-.16.568-.478.638-.319.071-.655.106-1.009.106h-.743l-1.061.743.319.849c.212.213.584.656,1.115,1.327.531.674,1.095,1.38,1.694,2.124.599.742,1.143,1.452,1.632,2.123.489.674.77,1.081.839,1.221.279.709.524,1.274.734,1.699.209.425.454.815.735,1.168.279.355.593.709.944,1.061.348.355.803.815,1.364,1.381.209.212.453.85.733,1.912.279,1.061.541,2.247.787,3.556.245,1.31.472,2.548.682,3.716.209,1.169.315,1.93.315,2.284,0,.849.194,1.645.584,2.388.388.743.584,1.611.584,2.601,0,.708.176,1.417.531,2.123l.212,3.717c0,.143-.072.477-.212,1.008-.143.53-.302,1.098-.478,1.698-.178.602-.355,1.169-.531,1.699-.178.531-.302.868-.371,1.008-.355.568-.637,1.274-.85,2.124ZM364.628,235.037l-.637.638-.425-.319.743-.638.318.319ZM364.31,239.71c-.143,0-.337-.053-.584-.159-.249-.106-.372-.266-.372-.478l.637-.636c.212,0,.388.089.531.264.14.178.282.337.424.478,0,.355-.212.531-.637.531ZM365.69,206.265l-3.398-3.398c.141-.14.495-.317,1.061-.53.566-.213.92-.319,1.062-.319.282,0,.531.159.743.478.212.319.371.689.478,1.115.106.425.194.849.266,1.274.069.425.106.743.106.955l-.318.425ZM367.654,218.422c-.106.249-.266.371-.477.371-.284-.14-.425-.353-.425-.636,0-.638.282-.955.85-.955l.318.636c-.071.143-.159.337-.265.585ZM367.23,214.917c-.461-.459-.69-.866-.69-1.221,0-.353.088-.69.265-1.008.176-.319.478-.478.903-.478l2.229.213.213.319v1.168c0,.425-.089.868-.265,1.327-.178.461-.549.691-1.115.691l-.531-.106c-.213-.141-.549-.442-1.008-.903ZM369.936,230.579l-.424-.425.424-.425.425.531-.425.319ZM369.512,222.616c-.708,0-1.061-.319-1.061-.957,0-.706.318-1.061.955-1.061s.956.355.956,1.061c0,.638-.284.957-.85.957ZM370.149,212.105c-.142-.354-.302-.673-.478-.957-.178-.281-.408-.565-.69-.849-.143-.283-.213-.566-.213-.849,0-.141.035-.354.106-.638.07-.283.213-.425.424-.425.495,0,.903.337,1.222,1.01.318.673.478,1.221.478,1.645,0,.143-.106.355-.319.638-.212.284-.389.425-.531.425ZM372.22,226.172c-.178.39-.443.583-.796.583s-.584-.175-.69-.53c-.106-.354-.159-.673-.159-.955,0-.708.319-1.063.956-1.063s.956.319.956.956c0,.284-.09.619-.266,1.008Z" fill="#fff"/>
      <path d="M461.352,256.485c-.637-.283-1.327-.512-2.07-.689-.743-.176-1.486-.354-2.229-.531-.743-.176-1.292-.441-1.646-.796-.567-.567-.992-1.063-1.274-1.487-.284-.425-.637-.919-1.061-1.486-.213-.283-.515-.531-.903-.744-.389-.211-.655-.387-.796-.53-.637-1.203-1.274-2.071-1.911-2.601-.637-.531-1.168-1.185-1.592-1.965l-.637-1.698c-.213-.425-.585-.779-1.115-1.063-.531-.281-.939-.636-1.221-1.061-.424-.636-.779-1.238-1.061-1.805-.284-.565-.674-1.13-1.168-1.698-.637-.283-1.204-.708-1.698-1.274-.213-.283-.496-.691-.85-1.221-.355-.531-.69-1.078-1.008-1.646-.319-.566-.621-1.115-.903-1.646-.284-.53-.496-.972-.637-1.327-.212-.494-.708-1.238-1.486-2.229-.78-.99-1.61-2.018-2.495-3.079-.886-1.061-1.77-1.999-2.654-2.814-.886-.812-1.54-1.327-1.964-1.54h-.425c-.568,0-.992.071-1.274.212-.284.638-.603,1.292-.956,1.965-.355.673-.921,1.115-1.698,1.327-.284-.07-.637-.141-1.062-.212-.424-.07-.78-.176-1.061-.319,0-.352-.036-.724-.106-1.115-.071-.389-.178-.724-.318-1.008l-.638-.85c.995-.069,1.938-.158,2.827-.265.889-.106,1.795-.229,2.72-.372.355-.282.694-.585,1.014-.902.32-.319.659-.654,1.013-1.01.427-.352.995-.671,1.708-.955.71-.283,1.35-.531,1.921-.743.498-.213.924-.531,1.279-.957.355-.424.747-.778,1.174-1.061h1.922c.64-.354,1.262-.902,1.866-1.646.604-.742,1.191-1.396,1.76-1.963.143-.141.267-.442.373-.902.106-.46.196-.797.267-1.01.784-.778,1.299-1.486,1.548-2.123.249-.638.373-1.309.373-2.018,0-.565-.037-1.131-.106-1.698-.071-.567-.106-1.203-.106-1.912l.531-3.928c0-1.274-.231-2.424-.692-3.45-.461-1.025-1.119-2.035-1.967-3.026-.214-.849-.8-1.841-1.757-2.973-.957-1.131-1.79-1.98-2.499-2.548-.426-.213-.888-.334-1.384-.372-.496-.034-.992-.158-1.488-.371-.567-.283-1.153-.548-1.757-.797-.604-.246-1.224-.477-1.861-.69-.285-.141-.569-.213-.853-.213h-.85c-.922-.141-2.059-.389-3.405-.743-1.347-.354-2.376-.531-3.084-.531h-6.916c-.214-.141-.569-.213-1.063-.213-1.916,0-3.849.106-5.8.319-1.951.212-3.849.461-5.692.742l-.745.106-2.873-.319c-1.135,0-2.322.231-3.563.691-1.241.461-2.57.69-3.987.69l-3.928-.424c-.637,0-1.258.071-1.858.213-.603.143-1.115.495-1.54,1.063v1.169c.495.498,1.043.835,1.645,1.011.601.178,1.222.319,1.859.425.637.106,1.29.196,1.964.264.672.071,1.29.215,1.858.427.706.568,1.238,1.313,1.593,2.233.355.923.532,1.808.532,2.658l-.426,5.21c0,1.207.106,2.198.319,2.978.213.78.318,1.666.318,2.657v2.819c0,.958-.071,1.896-.212,2.818-.071.355-.16.675-.266.958-.106.284-.159.603-.159.957v.639c.282.566.459,1.08.531,1.541.069.462.106.94.106,1.435,0,.568-.036,1.152-.106,1.755-.072.604-.106,1.26-.106,1.967l.425,3.827-.425,3.722v1.064l.637,1.488v.852c-.284.568-.496,1.401-.637,2.5-.143,1.098-.266,2.251-.372,3.455-.106,1.204-.178,2.411-.212,3.615-.037,1.204-.053,2.197-.053,2.976v.426c.282.638.6,1.134.955,1.489.354.354.531.922.531,1.702v.636c-.143.498-.355.852-.637,1.064-.283.212-.425.673-.425,1.382.213.923.637,1.562,1.274,1.914-.425.426-.833.994-1.221,1.702-.39.71-.69,1.135-.903,1.277-.283.143-.496.213-.637.213-1.204.142-2.266.282-3.185.424-.921.143-1.947.319-3.079.531-.497.284-.921.636-1.274,1.061v1.487c.425.425.919.636,1.486.636.778,0,1.574-.09,2.389-.264.813-.178,1.609-.302,2.389-.372,2.761-.143,5.521-.284,8.282-.425,2.761-.143,5.521-.212,8.281-.212h2.973c.282,0,.566.07.849.212.85.283,1.734.389,2.654.319.92-.071,1.768.035,2.549.319.566.141,1.061.281,1.486.424.425.141.92.213,1.486.213.495,0,.885-.071,1.168-.213l.85-.849v-1.699c-.142-.14-.337-.317-.584-.53-.249-.213-.478-.354-.69-.425h-4.99c-1.487,0-2.867-.213-4.141-.636-1.274-.425-2.195-1.344-2.761-2.761-.284-.779-.461-1.575-.531-2.39-.071-.813-.249-1.608-.531-2.389,0-.424.034-.813.106-1.168,0-.353.017-.636.053-.849.035-.213.053-.389.053-.531,0-1.627-.053-3.201-.159-4.724-.106-1.522-.337-3.096-.69-4.725l.212-2.761c0-.353-.036-.743-.106-1.168-.071-.424-.178-.706-.318-.849v-.849l.425-1.063-.212-2.972c0-.07.052-.319.159-.744.106-.425.213-.866.319-1.327.106-.459.3-1.078.584-1.857.494-.283,1.061-.425,1.698-.425,1.556,0,3.008.213,4.353.636,1.343.425,2.618,1.134,3.822,2.124.213.212.425.461.637.742.212.284.424.497.637.638.141.143.282.249.425.319.141.071.282.176.425.317v1.061l.318.85c1.415,1.486,2.724,3.098,3.928,4.83,1.203,1.735,2.442,3.416,3.716,5.043,0,.497.16.957.478,1.381.319.425.69.833,1.115,1.221.425.39.831.78,1.221,1.169.388.389.69.796.902,1.221-.143.567-.212.992-.212,1.274,0,.495.141.955.425,1.38.282.424.637.832,1.061,1.221.425.39.85.761,1.274,1.115.425.355.778.708,1.062,1.061.212.355.459.94.743,1.752.282.814.495,1.292.637,1.434l2.761,2.548c.353.355.6.689.742,1.008.141.319.283.638.425.955.141.319.335.638.584.957.247.317.654.653,1.221,1.008h7.113l.956.213c.919,0,1.822-.053,2.707-.159.884-.106,1.752-.337,2.601-.691,1.131.354,2.158.726,3.079,1.115.92.389,1.981.585,3.185.585h1.062l.213-.849v-.638c-.143-.568-.531-.99-1.169-1.274ZM437.782,208.175c0,.355-.159.691-.478,1.01-.319.317-.585.583-.796.796-.284-.141-.497-.301-.637-.478-.142-.175-.284-.334-.425-.477v-1.274c0-.706.354-1.203,1.062-1.487h1.061l.213.425v1.485ZM435.393,192.993c.106-.212.336-.389.69-.531l1.912,1.805c0,.709.141,1.364.425,1.963.282.603.424,1.222.424,1.859-.071.213-.159.461-.265.744-.106.283-.231.46-.372.53-.284-.141-.461-.372-.531-.69-.071-.319-.178-.708-.319-1.168-.143-.46-.371-.956-.69-1.486-.319-.531-.796-1.043-1.433-1.54l-.213-.638c.141-.353.266-.636.371-.849ZM396.48,189.065c.141-.567.495-.919,1.061-1.061h.85c.353.213.707.442,1.062.69.353.249.706.443,1.061.585l-.424.849v1.274c.282.143.884.425,1.805.849.919.425,1.45.709,1.593.85l.106.425-.106,2.229-.425.425h-.425c-.568-.354-1.027-.761-1.38-1.222-.355-.459-.886-.831-1.593-1.115-.708,0-1.345.284-1.911.85-.567-.213-.992-.673-1.274-1.38v-4.247ZM399.666,215.077c.354.143.69.302,1.009.478.318.178.619.372.902.583v.638c-.292.355-.602.638-.929.849-.329.213-.674.461-1.039.744-.292.636-.655,1.133-1.093,1.486l-.655-.213.213-2.761v-1.38l-.425-1.699v-2.973l.219-.849.877-.849.878-.319h1.317c.141.78.354,1.31.637,1.593.283.284.566.708.85,1.274v.425c-.355.424-.903.726-1.645.902-.743.178-1.187.443-1.327.796,0,.638.069,1.061.212,1.274ZM399.241,251.495l-.637.636-.637.213h-1.062l-.637-.636v-.638c.354-.352.637-.565.85-.636h1.062l.637.211.425.425v.425ZM399.454,246.929c-.143.143-.284.266-.425.372-.143.106-.284.196-.425.266l-1.274.106-.637-.106c-.071-.07-.213-.283-.425-.638v-1.486l.425-.424.637-.213c.566.143,1.008.319,1.327.53.318.213.584.603.796,1.169v.424ZM403.063,247.141l-.425.213-.637-.213-.213-.425.637-.636.637.425v.636ZM402.851,235.675c-.425.355-.743.53-.955.53h-2.973l-.849-.849v-.849c.069-.213.229-.442.478-.691.247-.248.441-.441.584-.583h2.761c.353.283.654.548.903.796.247.249.547.549.902.902-.143.143-.425.39-.85.744ZM417.928,219.005c-.496,0-1.274-.053-2.336-.159-1.061-.105-2.142-.246-3.238-.424-1.098-.176-2.124-.389-3.079-.638-.956-.246-1.576-.547-1.858-.902-.284-.495-.603-1.238-.956-2.229-.355-.992-.531-1.769-.531-2.337l.425-14.227c0-.778-.106-1.54-.318-2.282-.212-.744-.319-1.504-.319-2.282v-4.885l.213-.424c1.203-.708,2.424-1.203,3.663-1.486,1.238-.283,2.53-.425,3.875-.425h3.186c.069,0,.335.036.796.106.46.071.973.16,1.54.266.566.106,1.097.213,1.593.317.495.106.778.16.849.16l1.275,1.274c.282.143.584.231.902.266.319.036.654.089,1.009.159.778.78,1.415,1.558,1.911,2.336.494.78,1.238,1.486,2.229,2.124.141.143.388.302.743.477.354.178.601.337.743.478v2.123c.141.284.301.585.478.903.176.318.301.654.372,1.008-.143.496-.213.955-.213,1.38v1.38c0,.779.07,1.434.213,1.964.141.531.353,1.116.637,1.752v.638c0,.849-.319,1.698-.956,2.548-.637.849-1.098,1.663-1.381,2.442-.354.992-.62,1.875-.796,2.654-.178.779-.425,1.434-.743,1.964-.319.531-.815.975-1.487,1.327-.673.355-1.682.603-3.026.744-1.062.92-1.895,1.47-2.496,1.646-.602.176-1.576.264-2.919.264ZM427.558,228.455l-.319.85c-.143.143-.284.264-.425.371-.142.106-.284.196-.425.265h-.425l-.637-.849c0-.425.282-.885.85-1.38.566-.495,1.025-.813,1.38-.956l1.061.213.213.425-1.274,1.061ZM430.243,234.931l-.424.213c-.425-.213-.708-.494-.85-.849v-1.911l.213-.53h.424c.425.566.637,1.168.637,1.804v1.274ZM436.511,236.418l.643.213c.571,1.061,1.214,1.983,1.929,2.761l.215.636v.744h-.429c-.358-.495-.68-.813-.965-.955-.285-.141-.536-.301-.75-.478-.216-.176-.411-.425-.59-.743-.179-.319-.338-.903-.482-1.752l.429-.425ZM442.877,248.256c-.073.39-.181.762-.324,1.115-.073.425-.162.85-.27,1.274-.108.425-.234.78-.377,1.063l-.432-.213c0-.567-.073-1.061-.217-1.487-.36-.07-.773-.301-1.241-.691-.468-.387-.952-.831-1.457-1.327-.504-.494-.97-.99-1.402-1.485-.431-.495-.72-.92-.862-1.274v-1.063l.432-.424c.574-.141,1.007-.213,1.295-.213h1.51c.215.355.52.621.916.796.395.178.773.372,1.133.585.36.212.684.496.972.849.287.355.431.815.431,1.38,0,.355-.036.727-.108,1.115ZM449.143,254.255l-.212.424h-.425c-.213-.069-.461-.246-.743-.53-.284-.283-.461-.531-.531-.744v-.849l1.061.212.85.849v.638Z" fill="#fff"/>
      <path d="M531.851,249.689c-.212-.565-.408-.99-.584-1.274-.178-.281-.265-.778-.265-1.486,0-.636.087-1.309.265-2.017.176-.706.265-1.415.265-2.124v-2.229c0-1.203-.056-2.424-.166-3.663-.111-1.238-.424-2.317-.942-3.239l-.775-.636c-.295,0-.569.196-.819.583-.252.39-.448.815-.589,1.274-.143.461-.266.94-.372,1.433-.106.496-.159.85-.159,1.061,0,1.063.212,1.717.637,1.965.424.249.637.69.637,1.327l-.85,2.335c0,.425.16.744.478.957.319.211.478.46.478.743,0,.355-.125.603-.372.743-.249.143-.531.284-.85.425-.318.143-.637.284-.955.425-.319.142-.549.319-.69.53v1.593c-.568,1.061-1.061,1.912-1.486,2.548-.425.638-.921,1.099-1.487,1.38-.567.284-1.274.461-2.123.531-.85.071-2.017.106-3.504.106-.85,0-1.682-.123-2.495-.372-.815-.247-1.682-.372-2.601-.372-.637,0-1.062.053-1.274.159-.213.106-.638.302-1.275.585h-.637l-6.37-.638c-.992,0-1.964.213-2.92.638-.955.424-2.036.636-3.238.636-.992,0-2.266-.141-3.822-.424-1.558-.283-2.691-.814-3.398-1.593,0-.354-.071-.673-.213-.956-.143-.281-.283-.6-.424-.955v-.53l.319-.744c0-.706.106-1.256.318-1.646.213-.387.441-.831.69-1.327.247-.494.478-1.115.69-1.857.213-.744.319-1.859.319-3.345,0-.778-.16-1.486-.478-2.123-.318-.638-.478-1.628-.478-2.973,0-.281-.143-.477-.425-.583-.284-.106-.531-.16-.743-.16-.779,0-1.311.143-1.593.424-.284.284-.478.585-.584.904-.106.317-.213.62-.318.902-.106.284-.337.425-.69.425-.425,0-.85-.106-1.274-.319-.425-.213-.815-.389-1.168-.531-.708-.706-1.026-1.381-.955-2.017.069-.638-.106-1.344-.531-2.124v-1.91l-1.062-1.168-.318-.85c0-.494.088-.99.265-1.485.176-.495.548-.744,1.115-.744l.637.319-.637,1.699c0,.283.088.566.265.849.176.284.406.425.69.425,1.061,0,1.822.106,2.283.317.459.213.831.443,1.115.691.282.249.548.496.796.742.247.249.653.408,1.221.478.425,0,.759-.301,1.008-.902.248-.601.425-1.291.531-2.071.106-.778.176-1.502.212-2.176.035-.673.053-1.115.053-1.327l-.531-3.079.319-3.397c0-1.131.106-2.299.318-3.504.213-1.203.319-2.406.319-3.61,0-1.274-.178-2.53-.531-3.769-.355-1.238-.531-2.352-.531-3.345l.956-3.184c0-.566-.16-1.078-.478-1.54-.318-.46-.549-.972-.69-1.54-.143-.425-.196-.884-.159-1.38.034-.494-.124-.919-.478-1.274-.143-.213-.336-.406-.584-.583-.249-.176-.371-.442-.371-.797l.424-.319c.425.144.778.213,1.062.213l.318-.106c.495-.424.778-.919.85-1.486.069-.565.247-.99.531-1.274.566-.565,1.15-1.168,1.752-1.804.601-.638,1.185-1.274,1.752-1.911.919-.07,1.822-.246,2.707-.53.884-.283,1.715-.425,2.495-.425l2.017.319c.778,0,1.593-.319,2.442-.956.85-.636,1.274-1.381,1.274-2.229,0-.706-.265-1.149-.796-1.327-.531-.176-1.08-.265-1.646-.265h-1.061c-3.61,0-7.203.139-10.777.413-3.575.276-7.166.492-10.777.649l-7.007-.319c-.496,0-1.098.018-1.805.053-.708.036-1.398.122-2.071.262-.673.139-1.257.366-1.752.674-.496.31-.743.774-.743,1.392,0,.688.425,1.117,1.274,1.289.85.174,1.662.258,2.442.258h1.486c.778,0,1.486.09,2.124.266.637.178,1.344.264,2.124.264.99,0,1.646-.158,1.964-.477.319-.319.76-.478,1.327-.478s1.096.249,1.593.744c0,.424-.071,1.061-.213,1.91-.143.849-.496,1.274-1.061,1.274s-.974-.281-1.221-.849c-.249-.566-.62-.85-1.115-.85l-.955.531c-.072.071-.106.249-.106.531,0,.355.122.902.371,1.645.247.744.531,1.576.85,2.496.318.92.601,1.84.85,2.759.247.921.371,1.699.371,2.337,0,.355-.106.654-.319.902-.212.249-.389.55-.531.902-.071.143-.124.443-.159.903-.037.46-.072.955-.106,1.486-.037.53-.071,1.027-.106,1.485-.036.461-.053.797-.053,1.01l.318,6.795c0,.142.035.513.106,1.115.07.601.16,1.221.266,1.857.106.638.229,1.523.371,2.654.141.355.354.638.637.85.283.211.425.495.425.849-.071.355-.196.621-.372.796-.178.178-.355.39-.531.638-.178.249-.337.583-.477,1.008-.143.425-.213,1.061-.213,1.912l.319,2.229c0,.638-.09,1.292-.266,1.965-.178.673-.266,1.398-.266,2.176s.123,1.505.372,2.176c.247.674.371,1.398.371,2.177l-.637,6.9v.744l.531,1.061c0,.568-.018,1.044-.052,1.433-.037.39-.053.762-.053,1.115l-.213.531c-.708.636-1.327,1.416-1.858,2.335-.531.92-1.098,1.824-1.699,2.707-.602.885-1.292,1.629-2.071,2.229-.78.602-1.77.903-2.973.903-.424,0-.921-.141-1.486-.425h-.531c-.85,0-1.274.355-1.274,1.061,0,.213.069.461.213.744.425.566.99.902,1.698,1.008.707.106,1.415.159,2.124.159h1.274l1.911-.425,2.017.425,2.761-.638h7.22c.637,0,.955-.247.955-.743,0-.425-.124-.761-.371-1.009-.249-.246-.531-.494-.85-.743-.318-.248-.637-.512-.955-.796-.319-.283-.514-.708-.584-1.274-.213-.213-.497-.442-.85-.691-.355-.247-.531-.547-.531-.902l.743-.85,1.168-.53c.566,0,1.115.09,1.646.266.531.178,1.009.336,1.433.477v1.699c.568,1.061.868,1.93.904,2.601.035.674.123,1.204.266,1.593.143.39.461.655.959.796.496.142,1.49.212,2.979.212l9.579.744,5.534-.425,1.81.53h7.343l3.299.425h8.302c.78-.284,1.594-.583,2.447-.902.851-.319,1.277-1.043,1.277-2.177l-.425-4.565v-.425ZM483.755,238.01l.424.638c0,.495-.212.743-.637.743l-.849-.638,1.061-.743ZM484.816,227.712l-.318-.106-.212-.425v-.636l.85.636-.319.531ZM485.029,221.766c-.496,0-.974-.159-1.433-.477-.461-.319-.69-.761-.69-1.327,0-.141.07-.301.213-.478.141-.176.247-.336.318-.478l.425-.106c.494,0,.919.231,1.274.691.353.461.531.902.531,1.327l-.637.849ZM484.179,210.936c-.424,0-.726-.175-.902-.53-.178-.354-.266-.706-.266-1.061,0-.141.053-.354.16-.638.106-.283.265-.425.477-.425.353,0,.69.196,1.009.585.318.39.478.761.478,1.115,0,.638-.319.955-.956.955ZM484.604,216.563l-.319.319-.213-.319.319-.319c.141,0,.213.106.213.319ZM481.207,196.762c.425-.531.637-1.149.637-1.858l-.531-1.698c0-.354.159-.654.477-.903.318-.246.69-.477,1.115-.689.425-.213.85-.389,1.274-.531.425-.14.743-.318.956-.53l.106-2.124.531-.849c.566.284.85.78.85,1.487,0,.425-.106.779-.319,1.061-.213.284-.461.568-.743.849v.85c0,.849-.284,1.487-.849,1.91.282.497.547,1.028.796,1.593.247.568.372,1.133.372,1.699l-.425,1.38c0,.355.106.601.319.743.213.143.441.266.69.372.247.106.478.266.69.478.213.211.318.636.318,1.274,0,.143-.036.424-.106.849-.072.425-.178.886-.319,1.38-.143.497-.302.92-.478,1.274-.178.355-.337.531-.478.531l-3.079-.106-.531-.531v-.425c0-.565.122-1.078.371-1.538.247-.46.372-.938.372-1.433s-.143-.903-.425-1.221c-.283-.319-.584-.566-.902-.744-.319-.176-.621-.319-.903-.425-.284-.105-.424-.264-.424-.477,0-.566.212-1.115.637-1.646ZM486.197,243.638c0,.355-.231.92-.69,1.698-.461.78-.868,1.169-1.221,1.169h-2.761c-.143,0-.371-.07-.69-.213-.318-.141-.478-.319-.478-.531,0-.353.388-.653,1.168-.902.778-.248,1.309-.62,1.593-1.115,0-.282.106-.601.318-.956l.85-.53h1.274l.637.424v.956Z" fill="#fff"/>
      <path d="M609.678,193.629c-.638-.565-1.327-1.115-2.071-1.645-.743-.531-1.398-1.115-1.964-1.752l-1.486-1.593c0-.281-.143-.53-.425-.742-.284-.213-.621-.425-1.008-.638-.39-.213-.78-.388-1.168-.53-.39-.141-.656-.248-.797-.319l-.636-.319-1.274-1.38c-1.558-.07-2.938-.372-4.141-.902-1.204-.531-2.548-.902-4.035-1.115l-2.123.636c-1.629-.141-3.222-.281-4.779-.424-1.558-.141-3.151-.213-4.777-.213l-6.159.636-1.274-.636c-1.417,0-2.691-.053-3.822-.159-.248-.023-.521-.067-.779-.099-.921-.113-1.887-.264-2.937-.486-1.133.143-2.266.302-3.398.478-.479.075-.958.125-1.437.169-.654.059-1.307.097-1.961.097l-9.556-1.38c-.283,0-.69.018-1.221.053-.531.036-1.061.143-1.592.317-.108.036-.201.081-.304.12-.4.153-.767.321-1.076.518-.39.249-.585.585-.585,1.008,0,1.204.282,2.036.85,2.495.566.461,1.238.744,2.017.85.569.078,1.164.117,1.771.138.223.008.442.022.671.022.85,0,1.593.211,2.23.636.213.355.548.815,1.009,1.38.187.231.369.476.55.723.265.362.525.736.777,1.135.424.673.813,1.327,1.168,1.963.158.285.275.545.362.787.109.3.169.571.169.806,0,1.417-.231,2.814-.69,4.194-.462,1.381-.69,2.707-.69,3.982v16.35c.353.709.584,1.312.69,1.805.106.496.159.993.159,1.487l-.106,2.867.637,16.351-.637,1.379c-.071,1.134-.213,2.248-.425,3.345-.213,1.098-.319,2.247-.319,3.45l1.38,2.761c-.637.709-1.31,1.38-2.017,2.018l-1.38-.638-.637-.636.637-1.38v-.744h-6.795c-.567,0-1.168.319-1.805.956-.637.636-.955,1.239-.955,1.804.353.638.653,1.292.902,1.965.248.673.406,1.397.478,2.176,1.203-.497,2.336-.743,3.398-.743l4.141.743,6.795-.743c.425,0,.884.035,1.38.106.495.069.919.281,1.274.636h11.679c.708,0,1.859-.018,3.451-.053,1.593-.036,3.361-.09,5.309-.16,1.945-.071,3.982-.178,6.105-.317,2.124-.144,4.123-.302,5.999-.478,1.874-.176,3.503-.425,4.884-.744,1.38-.317,2.317-.653,2.814-1.008.565-.07,1.256-.459,2.07-1.168.814-.706,1.503-1.238,2.071-1.593,1.274-.706,2.317-1.291,3.131-1.751.814-.46,1.575-.956,2.284-1.486.706-.531,1.362-1.168,1.964-1.912.601-.743,1.327-1.752,2.177-3.026.919-1.414,1.821-3.113,2.707-5.096.884-1.98,1.68-4.035,2.389-6.158.706-2.123,1.291-4.229,1.751-6.317s.691-3.945.691-5.574c0-5.521-.955-10.493-2.867-14.918-1.912-4.422-4.849-8.546-8.812-12.37ZM609.571,197.453c.636,0,.955.317.955.955,0,.568-.319.849-.955.849v-1.804ZM608.88,203.292c.531-.636,1.185-1.131,1.965-1.486v1.486c0,.355-.124.887-.372,1.593-.249.709-.515,1.38-.796,2.017l-1.593-1.592c0-.708.266-1.38.796-2.018ZM606.386,196.815c.425,0,.638.178.638.531s-.212.53-.638.53c-.496,0-.743-.175-.743-.53s.246-.531.743-.531ZM556.696,187.259v1.061h-1.062v-1.061h1.062ZM555.953,219.909c-.284-.248-.425-.548-.425-.904,0-.919.46-1.38,1.38-1.38v2.654c-.355,0-.673-.122-.955-.371ZM556.484,239.71c0,.355-.213.53-.637.53-.496,0-.743-.175-.743-.53,0-.425.247-.638.743-.638.425,0,.637.213.637.638ZM557.44,248.203c0,.212-.053.638-.16,1.274-.106.638-.372.957-.796.957h-.637l-.956-.957v-.636c.354-.566.725-1.078,1.115-1.54.388-.46.866-.689,1.434-.689v1.592ZM560.89,209.026c-.318.496-.69.973-1.115,1.433-.424.461-.868.867-1.327,1.221-.461.355-.903.53-1.327.53l-.85-.849c0-.07.017-.159.053-.266.035-.106.053-.228.053-.371.141-.567.335-1.238.584-2.018.247-.778.654-1.168,1.221-1.168.425.071.85.124,1.275.159.425.036.849.053,1.274.053h.955c-.212.355-.477.779-.796,1.274ZM561.793,211.68c0-.354.247-.531.743-.531.424,0,.638.178.638.531s-.213.53-.638.53c-.497,0-.743-.175-.743-.53ZM563.386,254.468c-.497,0-.744-.283-.744-.85s.247-.849.744-.849c.352,0,.547.106.583.319.035.211.053.424.053.636,0,.496-.213.744-.636.744ZM563.597,242.577c-.211,0-.442-.07-.69-.213-.249-.141-.371-.354-.371-.638,0-.353.122-.6.371-.743.248-.141.479-.213.69-.213.638,0,.957.319.957.955,0,.568-.319.85-.957.85ZM565.403,253.194c-.496,0-.743-.176-.743-.531,0-.425.246-.638.743-.638.425,0,.638.213.638.638,0,.355-.212.531-.638.531ZM600.441,244.7c-1.912.636-3.416,1.452-4.513,2.442-1.098.993-2.212,1.948-3.344,2.867-1.134.92-2.479,1.717-4.035,2.389-1.558.674-3.717,1.008-6.478,1.008h-1.061l-.636.638h-.85c-.566,0-1.485-.088-2.761-.266-1.274-.176-2.601-.425-3.981-.742-1.379-.319-2.619-.673-3.716-1.063-1.098-.387-1.751-.831-1.964-1.327-.212-.919-.443-2.14-.691-3.663-.249-1.522-.461-3.078-.636-4.671-.178-1.593-.337-3.149-.478-4.672-.143-1.52-.213-2.742-.213-3.663l.425-5.734-.425-2.017.319-33.976c.638-1.061,1.256-1.964,1.859-2.706.6-.744,1.185-1.716,1.751-2.92.212.071.46.106.744.106h.849c.919,0,1.805-.053,2.654-.16.849-.106,1.593-.301,2.229-.585.354.213.92.372,1.699.478.778.106,1.38.16,1.805.16l2.123-.638h.955c.212,0,.531.053.956.159.424.106.884.231,1.38.372.494.143.937.302,1.327.477.387.178.69.302.902.372,1.84,0,3.698.515,5.574,1.54,1.874,1.026,3.679,2.388,5.415,4.088,1.733,1.699,3.344,3.663,4.83,5.892,1.486,2.23,2.777,4.513,3.875,6.849,1.096,2.337,1.965,4.655,2.601,6.955.638,2.3.957,4.407.957,6.317,0,2.054-.197,4.247-.585,6.583-.39,2.337-.973,4.672-1.752,7.008-.779,2.336-1.751,4.549-2.92,6.636-1.168,2.089-2.566,3.911-4.193,5.468ZM604.74,247.885c-.106.212-.264.318-.477.318s-.39-.106-.531-.318c-.143-.212-.212-.389-.212-.531,0-.213.07-.425.212-.638.141-.211.319-.317.531-.317s.371.106.477.317c.106.213.16.425.16.638,0,.142-.053.319-.16.531ZM609.465,242.894c-.284,1.205-1.204,1.805-2.761,1.805h-2.123l1.274-2.123c.424-.85.849-1.716,1.274-2.601.424-.885.636-2.141.636-3.77l2.124,2.761c0,1.416-.144,2.725-.425,3.928ZM609.571,234.931v-1.274h1.38l-1.38,1.274ZM611.164,228.561c-.213,0-.39-.106-.531-.319-.143-.211-.213-.387-.213-.53,0-.212.07-.425.213-.638.141-.213.319-.319.531-.319.211,0,.371.106.477.319s.159.425.159.638c0,.143-.053.319-.159.53-.106.213-.266.319-.477.319ZM610.845,215.502c0-.638.319-.955.955-.955v1.804c-.636,0-.955-.281-.955-.849ZM611.588,234.718v-1.804c.638,0,.957.319.957.955,0,.568-.319.849-.957.849ZM610.845,209.45c-.212-.779-.319-1.557-.319-2.337.99,0,1.628.408,1.912,1.221.281.815.424,1.611.424,2.39-1.133-.07-1.804-.495-2.017-1.274ZM614.189,214.068c-.178.106-.302.16-.371.16-.496,0-.744-.176-.744-.531,0-.353.247-.53.744-.53.424,0,.636.178.636.53,0,.142-.09.266-.266.372ZM614.986,214.334l1.061,1.061-.638,1.593-.424-.106v-2.548ZM615.941,225.907c-.496,0-.743-.176-.743-.53,0-.425.246-.638.743-.638.425,0,.636.213.636.638,0,.354-.211.53-.636.53Z" fill="#fff"/>
      <path d="M337.501,208.834c-10.523,0-18.875,10.03-19.226,10.457-.168.205-.168.5,0,.706.351.427,8.703,10.456,19.226,10.456s18.874-10.03,19.225-10.456c.168-.205.168-.5,0-.706-.351-.427-8.703-10.457-19.225-10.457ZM326.712,225.812c-2.867-1.815-5.117-3.917-6.397-5.233-.506-.521-.506-1.351,0-1.872,1.28-1.316,3.53-3.418,6.397-5.234.739-.468,1.649.351,1.237,1.123-.802,1.506-1.258,3.223-1.258,5.046s.456,3.54,1.258,5.046c.411.772-.498,1.591-1.237,1.123ZM337.501,229.34c-5.347,0-9.698-4.35-9.698-9.697s4.351-9.698,9.698-9.698,9.697,4.35,9.697,9.698-4.35,9.697-9.697,9.697ZM354.686,220.579c-1.28,1.316-3.53,3.418-6.397,5.233-.739.468-1.649-.351-1.237-1.123.802-1.506,1.258-3.223,1.258-5.046s-.456-3.54-1.258-5.046c-.411-.772.498-1.591,1.237-1.123,2.867,1.815,5.117,3.917,6.398,5.234.506.521.506,1.351,0,1.872Z" fill="#fff"/>
      <path d="M337.501,214.216c-2.993,0-5.428,2.435-5.428,5.427s2.435,5.427,5.428,5.427,5.427-2.435,5.427-5.427-2.435-5.427-5.427-5.427ZM336.945,221.939c0,1.091-1.265,1.761-2.12,1.084-.998-.79-1.64-2.01-1.64-3.38s.642-2.59,1.64-3.38c.855-.677,2.12-.007,2.12,1.084v4.592ZM340.177,223.023c-.855.677-2.12.007-2.12-1.084v-4.592c0-1.091,1.265-1.761,2.12-1.084.998.79,1.64,2.011,1.64,3.38s-.642,2.59-1.64,3.38Z" fill="#fff"/>
    </g>
  </g>
</svg>